<?xml version="1.0" encoding="UTF-8" standalone="no"?>
<svg
   xmlns:dc="http://purl.org/dc/elements/1.1/"
   xmlns:cc="http://creativecommons.org/ns#"
   xmlns:rdf="http://www.w3.org/1999/02/22-rdf-syntax-ns#"
   xmlns:svg="http://www.w3.org/2000/svg"
   xmlns="http://www.w3.org/2000/svg"
   xmlns:sodipodi="http://sodipodi.sourceforge.net/DTD/sodipodi-0.dtd"
   xmlns:inkscape="http://www.inkscape.org/namespaces/inkscape"
   width="186mm"
   height="186mm"
   viewBox="0 0 186 186"
   version="1.1"
   id="svg261"
   inkscape:version="1.0.2-2 (e86c870879, 2021-01-15)"
   sodipodi:docname="Add.svg">
  <defs
     id="defs255" />
  <sodipodi:namedview
     id="base"
     pagecolor="#ffffff"
     bordercolor="#666666"
     borderopacity="1.0"
     inkscape:pageopacity="0.0"
     inkscape:pageshadow="2"
     inkscape:zoom="0.35"
     inkscape:cx="468.63893"
     inkscape:cy="861.49608"
     inkscape:document-units="mm"
     inkscape:current-layer="layer1"
     inkscape:document-rotation="0"
     showgrid="false"
     inkscape:window-width="1920"
     inkscape:window-height="1017"
     inkscape:window-x="-8"
     inkscape:window-y="-8"
     inkscape:window-maximized="1"
     inkscape:snap-page="true"
     inkscape:pagecheckerboard="0" />
  <metadata
     id="metadata258">
    <rdf:RDF>
      <cc:Work
         rdf:about="">
        <dc:format>image/svg+xml</dc:format>
        <dc:type
           rdf:resource="http://purl.org/dc/dcmitype/StillImage" />
        <dc:title />
      </cc:Work>
    </rdf:RDF>
  </metadata>
  <g
     inkscape:label="Layer 1"
     inkscape:groupmode="layer"
     id="layer1"
     transform="translate(18.08095,79.313095)">
    <path
       d="m 74.91881,-51.44672 a 65.13365,65.13365 0 1 0 65.13374,65.13367 65.13365,65.13365 0 0 0 -65.13374,-65.13367 z m 0,120.96245 A 55.828841,55.828841 0 1 1 130.7477,13.68695 55.828841,55.828841 0 0 1 74.91881,69.51573 Z m 32.56691,-55.82878 a 4.6524034,4.6524034 0 0 1 -4.65243,4.65238 H 79.57123 v 23.26203 a 4.6524054,4.6524054 0 0 1 -9.30477,0 V 18.33933 H 47.00441 a 4.6524038,4.6524038 0 0 1 0,-9.30477 h 23.26205 v -23.26203 a 4.6524054,4.6524054 0 0 1 9.30477,0 V 9.03456 h 23.26206 a 4.6524034,4.6524034 0 0 1 4.65243,4.65239 z"
       id="path22047"
       style="fill:#00467a;fill-opacity:1;stroke-width:4.38034"
       inkscape:export-xdpi="97"
       inkscape:export-ydpi="97" />
  </g>
</svg>
