<?xml version="1.0" encoding="UTF-8" standalone="no"?>
<svg
   xmlns:dc="http://purl.org/dc/elements/1.1/"
   xmlns:cc="http://creativecommons.org/ns#"
   xmlns:rdf="http://www.w3.org/1999/02/22-rdf-syntax-ns#"
   xmlns:svg="http://www.w3.org/2000/svg"
   xmlns="http://www.w3.org/2000/svg"
   xmlns:sodipodi="http://sodipodi.sourceforge.net/DTD/sodipodi-0.dtd"
   xmlns:inkscape="http://www.inkscape.org/namespaces/inkscape"
   width="55.5625mm"
   height="39.793331mm"
   viewBox="0 0 55.56251 39.79333"
   version="1.1"
   id="svg1374"
   sodipodi:docname="brodcast.svg"
   inkscape:version="1.0.2-2 (e86c870879, 2021-01-15)">
  <sodipodi:namedview
     pagecolor="#ffffff"
     bordercolor="#666666"
     borderopacity="1"
     objecttolerance="10"
     gridtolerance="10"
     guidetolerance="10"
     inkscape:pageopacity="0"
     inkscape:pageshadow="2"
     inkscape:window-width="1920"
     inkscape:window-height="1017"
     id="namedview10"
     showgrid="false"
     inkscape:zoom="1.7798768"
     inkscape:cx="-17.01416"
     inkscape:cy="68.566042"
     inkscape:window-x="-8"
     inkscape:window-y="-8"
     inkscape:window-maximized="1"
     inkscape:current-layer="svg1374"
     inkscape:snap-center="false" />
  <defs
     id="defs1368" />
  <metadata
     id="metadata1371">
    <rdf:RDF>
      <cc:Work
         rdf:about="">
        <dc:format>image/svg+xml</dc:format>
        <dc:type
           rdf:resource="http://purl.org/dc/dcmitype/StillImage" />
        <dc:title />
      </cc:Work>
    </rdf:RDF>
  </metadata>
  <g
     id="layer1"
     transform="matrix(0.32929368,0,0,0.44224606,285.068,-113.5149)">
    <g
       id="g2557">
      <path
         id="path1113"
         style="fill:#00467a;fill-opacity:1;stroke-width:0.126579"
         d="m -780.72365,262.58248 c -19.17309,0 -34.74756,15.57199 -34.74756,34.74754 0,5.69096 1.51399,11.20947 4.15862,16.19969 l -3.92144,12.17549 c -0.55793,1.73162 -0.10183,3.64982 1.18989,4.94138 1.27835,1.27829 3.19131,1.75689 4.94134,1.19379 l 12.17547,-3.92144 c 4.99103,2.64485 10.51273,4.15864 16.20368,4.15864 19.17305,0 34.74756,-15.57195 34.74756,-34.74755 0,-19.17305 -15.572,-34.74754 -34.74756,-34.74754 z m 0,9.74828 c 13.80452,0 24.99532,11.19433 24.99532,24.99926 0,13.80494 -11.19041,24.99532 -24.99532,24.99532 -4.69791,0 -9.26989,-1.31009 -13.23095,-3.78709 -1.20581,-0.75349 1.38001,-0.44424 0,0 l -13.29036,4.25853 5.30908,-12.23582 c 0.44061,-1.36946 0.75978,1.2156 0,0 -2.47661,-3.96124 -3.78704,-8.53319 -3.78704,-13.23094 0,-13.80451 11.19474,-24.99926 24.99927,-24.99926 z m -14.66595,19.48866 c -3.01559,0 -5.51059,2.49444 -5.51059,5.5106 0,3.01604 2.49813,5.50663 5.51059,5.50663 3.01262,0 5.50664,-2.4946 5.50664,-5.50663 0,-3.01219 -2.49088,-5.5106 -5.50664,-5.5106 z m 14.66595,0 c -3.01573,0 -5.5106,2.49488 -5.5106,5.5106 0,3.01556 2.49799,5.50663 5.5106,5.50663 3.01262,0 5.50663,-2.49458 5.50663,-5.50663 0,-3.0122 -2.49088,-5.5106 -5.50663,-5.5106 z m 14.28342,0 c -3.01575,0 -5.51059,2.49488 -5.51059,5.5106 0,3.01556 2.49798,5.50663 5.51059,5.50663 3.0126,0 5.50661,-2.49458 5.50661,-5.50663 0,-3.0122 -2.49088,-5.5106 -5.50661,-5.5106 z" />
      <path
         id="path1193"
         style="fill:#00467a;fill-opacity:1;stroke-width:7.1226"
         transform="matrix(0.58521409,0,0,0.6187005,-556.17428,1405.0813)"
         d="m -279.32422,-1855.959 c -2.18604,0.01 -4.36783,0.8428 -6.04687,2.5215 -3.35305,3.3531 -3.37619,8.7297 -0.0371,12.0625 a 1.336641,1.336641 0 0 1 0.002,0 l 6.47461,6.4824 -0.15234,-0.1308 c 0.048,0.035 0.18318,0.1195 0.36328,0.33 27.97582,29.0212 28.13503,75.0347 0.51953,104.2657 a 1.336641,1.336641 0 0 1 -0.0274,0.027 l -5.10546,5.0996 c -3.3235,3.3235 -3.31371,8.7154 0.0351,12.0664 4e-4,4e-4 0.002,-4e-4 0.002,0 4.1e-4,4e-4 -4e-4,0 0,0 3.3588,3.3442 8.74408,3.3537 12.06836,0.027 l 3.56641,-3.5644 a 1.336641,1.336641 0 0 1 0.0684,-0.074 l 2.84961,-2.8339 c 0.41902,-0.4264 0.78773,-0.8948 1.11133,-1.3926 a 1.336641,1.336641 0 0 1 0.11719,-0.1524 c 31.52114,-35.9027 30.55522,-90.4975 -2.88672,-125.2597 a 1.336641,1.336641 0 0 1 -0.0215,-0.021 c -0.29356,-0.32 -0.38458,-0.4842 -0.39453,-0.4941 l -6.48828,-6.4805 a 1.336641,1.336641 0 0 1 -0.002,0 c -1.66227,-1.6653 -3.82947,-2.4848 -6.01368,-2.4785 z m -25.93359,26.6211 c -2.43638,0.01 -4.85945,0.9326 -6.71485,2.7871 a 1.336641,1.336641 0 0 1 -0.002,0 c -3.7264,3.7201 -3.73035,9.7269 -0.0293,13.4219 a 1.336641,1.336641 0 0 1 0.002,0 l 5.96875,5.9687 c 14.06662,14.074 14.06735,36.9993 0.008,51.0664 l -4.16016,4.293 a 1.336641,1.336641 0 0 1 -0.0137,0.016 c -3.65946,3.6596 -3.65781,9.6023 0.0332,13.2872 a 1.336641,1.336641 0 0 1 0.004,0 c 1.7767,1.7829 4.12336,2.7574 6.64844,2.7637 2.50789,0.01 4.85277,-0.9536 6.61914,-2.7324 a 1.336641,1.336641 0 0 1 0.0195,-0.018 l 4.30078,-4.1719 c 0.20983,-0.204 0.42706,-0.4529 0.6875,-0.7363 a 1.336641,1.336641 0 0 1 0.0137,-0.016 l 0.73438,-0.7754 a 1.336641,1.336641 0 0 1 0.0508,-0.049 c 0.0139,-0.013 0.0772,-0.093 0.23047,-0.289 a 1.336641,1.336641 0 0 1 0.0644,-0.076 c 19.83124,-21.8282 19.04282,-55.1876 -1.78906,-76.0195 l -2.50391,-2.5 a 1.336641,1.336641 0 0 1 -0.002,0 l -3.46289,-3.4629 c -1.85012,-1.8502 -4.27101,-2.7646 -6.70508,-2.7598 z" />
      <path
         id="path1289"
         style="fill:#00467a;fill-opacity:1;stroke-width:7.1226"
         transform="matrix(-0.58521409,0,0,0.6187005,-1006.484,1405.0813)"
         d="m -279.32422,-1855.959 c -2.18604,0.01 -4.36783,0.8428 -6.04687,2.5215 -3.35305,3.3531 -3.37619,8.7297 -0.0371,12.0625 a 1.336641,1.336641 0 0 1 0.002,0 l 6.47461,6.4824 -0.15234,-0.1308 c 0.048,0.035 0.18318,0.1195 0.36328,0.33 27.97582,29.0212 28.13503,75.0347 0.51953,104.2657 a 1.336641,1.336641 0 0 1 -0.0274,0.027 l -5.10546,5.0996 c -3.3235,3.3235 -3.31371,8.7154 0.0351,12.0664 4e-4,4e-4 0.002,-4e-4 0.002,0 4.1e-4,4e-4 -4e-4,0 0,0 3.3588,3.3442 8.74408,3.3537 12.06836,0.027 l 3.56641,-3.5644 a 1.336641,1.336641 0 0 1 0.0684,-0.074 l 2.84961,-2.8339 c 0.41902,-0.4264 0.78773,-0.8948 1.11133,-1.3926 a 1.336641,1.336641 0 0 1 0.11719,-0.1524 c 31.52114,-35.9027 30.55522,-90.4975 -2.88672,-125.2597 a 1.336641,1.336641 0 0 1 -0.0215,-0.021 c -0.29356,-0.32 -0.38458,-0.4842 -0.39453,-0.4941 l -6.48828,-6.4805 a 1.336641,1.336641 0 0 1 -0.002,0 c -1.66227,-1.6653 -3.82947,-2.4848 -6.01368,-2.4785 z m -25.93359,26.6211 c -2.43638,0.01 -4.85945,0.9326 -6.71485,2.7871 a 1.336641,1.336641 0 0 1 -0.002,0 c -3.7264,3.7201 -3.73035,9.7269 -0.0293,13.4219 a 1.336641,1.336641 0 0 1 0.002,0 l 5.96875,5.9687 c 14.06662,14.074 14.06735,36.9993 0.008,51.0664 l -4.16016,4.293 a 1.336641,1.336641 0 0 1 -0.0137,0.016 c -3.65946,3.6596 -3.65781,9.6023 0.0332,13.2872 a 1.336641,1.336641 0 0 1 0.004,0 c 1.7767,1.7829 4.12336,2.7574 6.64844,2.7637 2.50789,0.01 4.85277,-0.9536 6.61914,-2.7324 a 1.336641,1.336641 0 0 1 0.0195,-0.018 l 4.30078,-4.1719 c 0.20983,-0.204 0.42706,-0.4529 0.6875,-0.7363 a 1.336641,1.336641 0 0 1 0.0137,-0.016 l 0.73438,-0.7754 a 1.336641,1.336641 0 0 1 0.0508,-0.049 c 0.0139,-0.013 0.0772,-0.093 0.23047,-0.289 a 1.336641,1.336641 0 0 1 0.0644,-0.076 c 19.83124,-21.8282 19.04282,-55.1876 -1.78906,-76.0195 l -2.50391,-2.5 a 1.336641,1.336641 0 0 1 -0.002,0 l -3.46289,-3.4629 c -1.85012,-1.8502 -4.27101,-2.7646 -6.70508,-2.7598 z" />
    </g>
  </g>
</svg>
