<?xml version="1.0" encoding="UTF-8" standalone="no"?>
<svg
   xmlns:dc="http://purl.org/dc/elements/1.1/"
   xmlns:cc="http://creativecommons.org/ns#"
   xmlns:rdf="http://www.w3.org/1999/02/22-rdf-syntax-ns#"
   xmlns:svg="http://www.w3.org/2000/svg"
   xmlns="http://www.w3.org/2000/svg"
   width="135.66371mm"
   height="125.13959mm"
   viewBox="0 0 135.66373 125.13959"
   version="1.1"
   id="svg1374">
  <defs
     id="defs1368" />
  <metadata
     id="metadata1371">
    <rdf:RDF>
      <cc:Work
         rdf:about="">
        <dc:format>image/svg+xml</dc:format>
        <dc:type
           rdf:resource="http://purl.org/dc/dcmitype/StillImage" />
        <dc:title></dc:title>
      </cc:Work>
    </rdf:RDF>
  </metadata>
  <g
     id="layer1"
     transform="translate(-949.25776,33.128138)">
    <g
       id="g1112"
       transform="matrix(0.26238618,0,0,0.26238618,-556.51214,42.5235)">
      <g
         id="g1037">
        <g
           id="g1035">
          <path
             id="path1033"
             style="fill:#00467a;fill-opacity:1;stroke-width:1"
             d="m 6093.8954,-288.32052 c -6.8322,-0.0808 -13.3664,3.88141 -16.2628,10.50889 -3.8618,8.83651 0.1994,19.20053 9.0371,23.06234 81.459,35.59619 134.0839,116.00919 134.0879,204.888739 0,88.884198 -52.6289,169.301231 -134.0958,204.896621 -8.8376,3.86059 -12.8985,14.224 -9.0371,23.06234 2.8664,6.56283 9.3013,10.50889 16.0576,10.50889 2.3429,0 4.7279,-0.47644 7.0047,-1.47195 94.2131,-41.16472 155.1059,-134.198448 155.1059,-236.995901 0,-102.790789 -60.8918,-195.822489 -155.098,-236.988029 -2.2083,-0.9652 -4.5174,-1.44507 -6.7956,-1.47194 z m -95.6745,36.20335 c -3.9757,-0.21478 -7.9829,0.93348 -11.3062,3.37022 l -115.8756,84.97208 h -114.7628 c -9.6442,0 -17.5217,7.87273 -17.5217,17.51765 V 46.543998 c 0,9.64492 7.8775,17.517648 17.5217,17.517648 h 114.7628 l 115.8756,84.972084 c 3.0602,2.24458 6.7002,3.39385 10.3591,3.39385 2.7025,0 5.4185,-0.62838 7.9163,-1.89423 5.8829,-2.98106 9.6014,-9.02806 9.6014,-15.62342 V -234.627 c 0,-6.59536 -3.7172,-12.64417 -9.6014,-15.62341 -2.2062,-1.11816 -4.5837,-1.73764 -6.9692,-1.86676 z m -18.4648,52.05974 v 300.39759 l -92.624,-67.923996 c -3.0042,-2.203167 -6.633,-3.393856 -10.359,-3.393856 H 5773.794 V -128.73957 h 102.9791 c 3.7261,0 7.3559,-1.19271 10.359,-3.39386 z m 114.6405,24.92889 c -5.0403,-0.20265 -10.1463,1.77927 -13.7648,5.8209 -6.4318,7.18616 -5.8155,18.29858 1.3694,24.73149 26.9183,24.09724 42.3558,58.62519 42.3558,94.719437 0,36.093642 -15.4385,70.622194 -42.3558,94.719441 -7.1852,6.4319 -7.8025,17.54533 -1.3694,24.731689 3.4489,3.851503 8.2491,5.836455 13.0544,5.836455 4.156,0 8.3441,-1.483259 11.6772,-4.467153 34.3347,-30.735846 54.029,-74.7688924 54.029,-120.820432 0,-46.050326 -19.6952,-90.085397 -54.029,-120.820227 -3.1433,-2.81377 -7.0469,-4.2938 -10.9668,-4.4516 z" />
        </g>
      </g>
      <g
         id="g1043">
        <g
           id="g1041" />
      </g>
      <g
         id="g1049">
        <g
           id="g1047" />
      </g>
      <g
         id="g1051" />
      <g
         id="g1053" />
      <g
         id="g1055" />
      <g
         id="g1057" />
      <g
         id="g1059" />
      <g
         id="g1061" />
      <g
         id="g1063" />
      <g
         id="g1065" />
      <g
         id="g1067" />
      <g
         id="g1069" />
      <g
         id="g1071" />
      <g
         id="g1073" />
      <g
         id="g1075" />
      <g
         id="g1077" />
      <g
         id="g1079" />
    </g>
  </g>
</svg>
