<?xml version="1.0" encoding="UTF-8" standalone="no"?>
<svg
   xmlns:dc="http://purl.org/dc/elements/1.1/"
   xmlns:cc="http://creativecommons.org/ns#"
   xmlns:rdf="http://www.w3.org/1999/02/22-rdf-syntax-ns#"
   xmlns:svg="http://www.w3.org/2000/svg"
   xmlns="http://www.w3.org/2000/svg"
   xmlns:sodipodi="http://sodipodi.sourceforge.net/DTD/sodipodi-0.dtd"
   xmlns:inkscape="http://www.inkscape.org/namespaces/inkscape"
   width="186.06114mm"
   height="186.06114mm"
   viewBox="0 0 186.06115 186.06115"
   version="1.1"
   id="svg261"
   inkscape:version="1.0.2-2 (e86c870879, 2021-01-15)"
   sodipodi:docname="Cancel.svg">
  <defs
     id="defs255" />
  <sodipodi:namedview
     id="base"
     pagecolor="#ffffff"
     bordercolor="#666666"
     borderopacity="1.0"
     inkscape:pageopacity="0.0"
     inkscape:pageshadow="2"
     inkscape:zoom="0.35"
     inkscape:cx="-188.3884"
     inkscape:cy="850.18305"
     inkscape:document-units="mm"
     inkscape:current-layer="layer1"
     inkscape:document-rotation="0"
     showgrid="false"
     inkscape:window-width="1920"
     inkscape:window-height="1017"
     inkscape:window-x="-8"
     inkscape:window-y="-8"
     inkscape:window-maximized="1"
     inkscape:snap-page="true"
     inkscape:pagecheckerboard="0" />
  <metadata
     id="metadata258">
    <rdf:RDF>
      <cc:Work
         rdf:about="">
        <dc:format>image/svg+xml</dc:format>
        <dc:type
           rdf:resource="http://purl.org/dc/dcmitype/StillImage" />
        <dc:title />
      </cc:Work>
    </rdf:RDF>
  </metadata>
  <g
     inkscape:label="Layer 1"
     inkscape:groupmode="layer"
     id="layer1"
     transform="translate(-52.792297,207.63335)">
    <path
       id="path1362"
       style="fill:#ff5778;fill-opacity:1;stroke-width:0.403477"
       sodipodi:type="inkscape:offset"
       inkscape:radius="-0.34101352"
       inkscape:original="M -755.55469 859.52734 A 1.1756473 1.1756473 0 0 0 -756.36133 861.5293 L -752.20508 865.68555 L -756.36133 869.8418 A 1.1756483 1.1756483 0 0 0 -754.69922 871.50586 L -750.54297 867.34961 L -746.38672 871.50586 A 1.1756472 1.1756472 0 0 0 -744.72461 871.50586 A 1.1756472 1.1756472 0 0 0 -744.72461 869.8418 L -748.88086 865.68555 L -744.72461 861.5293 A 1.1756477 1.1756477 0 0 0 -746.38672 859.86719 L -750.54297 864.02344 L -754.69922 859.86719 A 1.1756473 1.1756473 0 0 0 -755.55469 859.52734 z "
       transform="matrix(6.5915167,0,0,6.5915167,5093.0504,-5820.3774)"
       inkscape:export-xdpi="97"
       inkscape:export-ydpi="97"
       d="m -755.54688,859.86914 c -0.32342,0.008 -0.63104,0.22141 -0.75195,0.52148 -0.12091,0.30008 -0.0478,0.66841 0.17969,0.89844 l 4.1543,4.15625 a 0.34104762,0.34104762 0 0 1 0,0.48047 l -4.15625,4.15625 a 0.34104762,0.34104762 0 0 1 0,0.002 c -0.30932,0.30896 -0.30896,0.87037 0,1.17969 0.30895,0.30932 0.87232,0.30896 1.18164,0 l 4.15625,-4.15429 a 0.34104762,0.34104762 0 0 1 0.48047,0 l 4.15625,4.15624 c 0.30898,0.30881 0.87265,0.30881 1.18164,0 a 0.34104762,0.34104762 0 0 1 0,-0.002 c 0.30962,-0.30909 0.30962,-0.8706 0,-1.17969 a 0.34104762,0.34104762 0 0 1 0,-0.002 l -4.15625,-4.15625 a 0.34104762,0.34104762 0 0 1 0,-0.48047 l 4.15039,-4.15039 c 0.29655,-0.31157 0.28853,-0.86186 -0.0156,-1.16601 -0.30416,-0.30416 -0.85444,-0.31218 -1.16601,-0.0156 l -4.15039,4.15039 a 0.34104762,0.34104762 0 0 1 -0.48047,0 l -4.15625,-4.15429 c -0.15906,-0.15748 -0.38367,-0.24563 -0.60743,-0.24024 z" />
  </g>
</svg>
