<?xml version="1.0" encoding="UTF-8" standalone="no"?>
<svg
   width="210mm"
   height="210mm"
   viewBox="0 0 210 210"
   version="1.1"
   id="svg1491"
   inkscape:version="1.1 (c68e22c387, 2021-05-23)"
   sodipodi:docname="Chat_line.svg"
   xmlns:inkscape="http://www.inkscape.org/namespaces/inkscape"
   xmlns:sodipodi="http://sodipodi.sourceforge.net/DTD/sodipodi-0.dtd"
   xmlns="http://www.w3.org/2000/svg"
   xmlns:svg="http://www.w3.org/2000/svg"
   xmlns:rdf="http://www.w3.org/1999/02/22-rdf-syntax-ns#"
   xmlns:cc="http://creativecommons.org/ns#"
   xmlns:dc="http://purl.org/dc/elements/1.1/">
  <defs
     id="defs1485" />
  <sodipodi:namedview
     id="base"
     pagecolor="#ffffff"
     bordercolor="#666666"
     borderopacity="1.0"
     inkscape:pageopacity="0.0"
     inkscape:pageshadow="2"
     inkscape:zoom="0.175"
     inkscape:cx="-1597.1429"
     inkscape:cy="442.85714"
     inkscape:document-units="mm"
     inkscape:current-layer="layer1"
     inkscape:document-rotation="0"
     showgrid="false"
     fit-margin-top="0"
     fit-margin-left="0"
     fit-margin-right="0"
     fit-margin-bottom="0"
     inkscape:window-width="1366"
     inkscape:window-height="705"
     inkscape:window-x="-8"
     inkscape:window-y="-8"
     inkscape:window-maximized="1"
     inkscape:pagecheckerboard="0" />
  <metadata
     id="metadata1488">
    <rdf:RDF>
      <cc:Work
         rdf:about="">
        <dc:format>image/svg+xml</dc:format>
        <dc:type
           rdf:resource="http://purl.org/dc/dcmitype/StillImage" />
        <dc:title />
      </cc:Work>
    </rdf:RDF>
  </metadata>
  <g
     inkscape:label="Layer 1"
     inkscape:groupmode="layer"
     id="layer1"
     transform="translate(-1667.7744,-78.251467)">
    <g
       id="g2265"
       transform="matrix(2.0528419,0,0,2.1881345,-1755.9029,-92.973262)">
      <path
         id="path3877"
         style="fill:#00467a;fill-opacity:1;stroke-width:0.0559471"
         sodipodi:type="inkscape:offset"
         inkscape:radius="0.15973474"
         inkscape:original="M -732.03516 438.32031 C -740.00175 438.32031 -746.30273 444.02352 -746.30273 450.9082 C -746.30273 453.84105 -745.14147 456.68233 -743.0293 458.93359 C -742.61137 460.65687 -743.11801 462.48322 -744.37695 463.74219 C -744.9033 464.26854 -744.53233 465.17578 -743.78516 465.17578 C -741.39376 465.17578 -739.08866 464.23756 -737.375 462.58594 C -735.68025 463.19023 -733.88601 463.49609 -732.03516 463.49609 C -724.04648 463.49609 -717.65625 457.77615 -717.65625 450.9082 C -717.65625 444.03638 -724.0509 438.32031 -732.03516 438.32031 z M -732.03516 439.98828 C -725.03238 439.98828 -719.32422 444.8926 -719.32422 450.9082 C -719.32422 456.92379 -725.03238 461.83008 -732.03516 461.83008 C -733.86581 461.83008 -735.6311 461.48528 -737.28125 460.82812 C -737.60536 460.69912 -737.97546 460.78372 -738.21094 461.04102 C -739.22459 462.14872 -740.54314 462.92035 -741.97852 463.27539 C -741.18765 461.75984 -740.98538 459.97382 -741.4668 458.28125 C -741.5047 458.14776 -741.5752 458.02531 -741.67188 457.92578 C -743.57582 455.96466 -744.63477 453.47264 -744.63477 450.9082 C -744.63477 444.8926 -738.97624 439.98828 -732.03516 439.98828 z "
         transform="matrix(3.531533,0,0,3.531533,4303.9328,-1469.1256)"
         inkscape:export-xdpi="97"
         inkscape:export-ydpi="97"
         d="m -732.03516,438.16016 c -8.04282,0 -14.42773,5.7659 -14.42773,12.74804 0,2.95997 1.16757,5.82623 3.28516,8.09961 0.38886,1.6586 -0.10197,3.41054 -1.3125,4.6211 -0.30889,0.30889 -0.3592,0.74166 -0.2168,1.08789 0.1424,0.34622 0.48364,0.61914 0.92187,0.61914 2.40108,0 4.71323,-0.93307 6.44922,-2.57227 1.68562,0.58937 3.46521,0.89258 5.30078,0.89258 8.06493,0 14.53907,-5.78101 14.53907,-12.74805 0,-6.97091 -6.47857,-12.74804 -14.53907,-12.74804 z m 0,1.98828 c 6.9282,0 12.55078,4.84521 12.55078,10.75976 0,5.91455 -5.62261,10.76172 -12.55078,10.76172 -1.81059,0 -3.55588,-0.34045 -5.1875,-0.99023 -0.38522,-0.15333 -0.82548,-0.052 -1.10546,0.2539 -0.91577,1.00073 -2.09313,1.70568 -3.37305,2.08399 0.6765,-1.47857 0.84758,-3.16585 0.38867,-4.7793 -0.0451,-0.15887 -0.12888,-0.30517 -0.24414,-0.42383 -1.87745,-1.93383 -2.91797,-4.38578 -2.91797,-6.90625 0,-5.91543 5.57362,-10.75976 12.43945,-10.75976 z" />
      <g
         id="g4054"
         transform="matrix(3.531533,0,0,3.531533,4300.9295,-1469.1256)"
         style="fill:#00467a;fill-opacity:1"
         inkscape:export-xdpi="97"
         inkscape:export-ydpi="97">
        <path
           d="m -731.63605,449.00507 c -0.8802,0 -1.5963,0.7161 -1.5963,1.5963 0,0.88021 0.7161,1.59631 1.5963,1.59631 0.8802,0 1.59631,-0.7161 1.59631,-1.59631 0,-0.8802 -0.71611,-1.5963 -1.59631,-1.5963 z"
           id="path3889"
           style="fill:#00467a;fill-opacity:1;stroke-width:0.0354734" />
        <g
           id="g4048"
           transform="translate(0.01178)"
           style="fill:#00467a;fill-opacity:1">
          <path
             d="m -738.39695,449.00507 c -0.8802,0 -1.5963,0.7161 -1.5963,1.5963 0,0.88021 0.7161,1.59631 1.5963,1.59631 0.8802,0 1.5963,-0.7161 1.5963,-1.59631 0,-0.8802 -0.7161,-1.5963 -1.5963,-1.5963 z"
             id="path3883"
             style="fill:#00467a;fill-opacity:1;stroke-width:0.0354734" />
          <path
             d="m -724.8987,449.00506 c -0.8802,0 -1.59631,0.7161 -1.59631,1.59631 0,0.8802 0.71611,1.5963 1.59631,1.5963 0.8802,0 1.5963,-0.7161 1.5963,-1.5963 0,-0.88021 -0.7161,-1.59631 -1.5963,-1.59631 z"
             id="path3895"
             style="fill:#00467a;fill-opacity:1;stroke-width:0.0354734" />
        </g>
      </g>
    </g>
  </g>
</svg>
