<?xml version="1.0" encoding="UTF-8" standalone="no"?>
<svg
   xmlns:dc="http://purl.org/dc/elements/1.1/"
   xmlns:cc="http://creativecommons.org/ns#"
   xmlns:rdf="http://www.w3.org/1999/02/22-rdf-syntax-ns#"
   xmlns:svg="http://www.w3.org/2000/svg"
   xmlns="http://www.w3.org/2000/svg"
   xmlns:sodipodi="http://sodipodi.sourceforge.net/DTD/sodipodi-0.dtd"
   xmlns:inkscape="http://www.inkscape.org/namespaces/inkscape"
   width="186mm"
   height="186mm"
   viewBox="0 0 186 186"
   version="1.1"
   id="svg261"
   inkscape:version="1.0.2-2 (e86c870879, 2021-01-15)"
   sodipodi:docname="Clone.svg">
  <defs
     id="defs255" />
  <sodipodi:namedview
     id="base"
     pagecolor="#ffffff"
     bordercolor="#666666"
     borderopacity="1.0"
     inkscape:pageopacity="0.0"
     inkscape:pageshadow="2"
     inkscape:zoom="0.35"
     inkscape:cx="505.78177"
     inkscape:cy="715.78179"
     inkscape:document-units="mm"
     inkscape:current-layer="layer1"
     inkscape:document-rotation="0"
     showgrid="false"
     inkscape:window-width="1920"
     inkscape:window-height="1017"
     inkscape:window-x="-8"
     inkscape:window-y="-8"
     inkscape:window-maximized="1"
     inkscape:snap-page="true"
     inkscape:pagecheckerboard="0" />
  <metadata
     id="metadata258">
    <rdf:RDF>
      <cc:Work
         rdf:about="">
        <dc:format>image/svg+xml</dc:format>
        <dc:type
           rdf:resource="http://purl.org/dc/dcmitype/StillImage" />
        <dc:title />
      </cc:Work>
    </rdf:RDF>
  </metadata>
  <g
     inkscape:label="Layer 1"
     inkscape:groupmode="layer"
     id="layer1"
     transform="translate(130.85654,172.05592)">
    <g
       id="g22103"
       style="fill:#64a3d1;fill-opacity:1;stroke-width:0.423549"
       transform="matrix(0.64637894,0,0,0.64637894,-815.79315,-146.96028)"
       inkscape:export-xdpi="97"
       inkscape:export-ydpi="97">
      <path
         id="path22101"
         style="fill:#00467a;fill-opacity:1;stroke-width:0.423549"
         d="m 1177.0996,16.853022 c -11.4126,0 -20.6944,9.281795 -20.6944,20.694494 v 2.571849 c -5e-4,0.14564 -0.1185,0.263591 -0.2641,0.26405 h -13.8609 c -11.4127,0 -20.6945,9.281796 -20.6945,20.694495 V 172.5599 c 0,11.41271 9.2818,20.6945 20.6945,20.6945 h 87.679 c 11.4127,0 20.6945,-9.28179 20.6945,-20.6945 v -2.57184 c 4e-4,-0.14564 0.1184,-0.26359 0.264,-0.26405 h 13.8627 c 11.4127,0 20.6945,-9.2818 20.6945,-20.6945 V 37.547516 c 8e-4,-11.412674 -9.2818,-20.694494 -20.6945,-20.694494 z m 0,12.98951 h 87.6808 c 4.2454,0 7.7032,3.457779 7.7032,7.703224 V 149.02951 c 0,4.24545 -3.4578,7.70323 -7.7032,7.70323 h -13.8609 c -0.1457,-4.6e-4 -0.2636,-0.11841 -0.2641,-0.26405 V 61.07791 c 0,-11.412685 -9.2827,-20.694495 -20.6945,-20.694495 h -60.3004 c -0.1457,-4.59e-4 -0.2636,-0.11841 -0.2641,-0.26405 v -2.573609 c 0,-4.245445 3.4578,-7.703224 7.7032,-7.703224 z m -34.8194,23.532154 h 87.679 c 4.2454,0 7.7032,3.457779 7.7032,7.703224 v 111.45735 c 9e-4,0.008 0,0.0164 0,0.0246 0,4.24548 -3.4586,7.70322 -7.7032,7.70322 h -87.6808 c -4.2454,0 -7.7032,-3.45776 -7.7032,-7.70322 V 61.07791 c 0,-4.245445 3.4578,-7.703224 7.7032,-7.703224 z"
         sodipodi:nodetypes="ssccssssssccsscsssssssccssccsssssccsssss" />
    </g>
  </g>
</svg>
