<?xml version="1.0" encoding="UTF-8" standalone="no"?>
<svg
   width="210mm"
   height="210mm"
   viewBox="0 0 210 210"
   version="1.1"
   id="svg2376"
   inkscape:version="1.1 (c68e22c387, 2021-05-23)"
   sodipodi:docname="Dasboard.svg"
   xmlns:inkscape="http://www.inkscape.org/namespaces/inkscape"
   xmlns:sodipodi="http://sodipodi.sourceforge.net/DTD/sodipodi-0.dtd"
   xmlns="http://www.w3.org/2000/svg"
   xmlns:svg="http://www.w3.org/2000/svg"
   xmlns:rdf="http://www.w3.org/1999/02/22-rdf-syntax-ns#"
   xmlns:cc="http://creativecommons.org/ns#"
   xmlns:dc="http://purl.org/dc/elements/1.1/">
  <defs
     id="defs2370" />
  <sodipodi:namedview
     id="base"
     pagecolor="#ffffff"
     bordercolor="#666666"
     borderopacity="1.0"
     inkscape:pageopacity="0.0"
     inkscape:pageshadow="2"
     inkscape:zoom="0.0875"
     inkscape:cx="1377.1429"
     inkscape:cy="840"
     inkscape:document-units="mm"
     inkscape:current-layer="layer1"
     inkscape:document-rotation="0"
     showgrid="false"
     fit-margin-top="0"
     fit-margin-left="0"
     fit-margin-right="0"
     fit-margin-bottom="0"
     inkscape:window-width="1366"
     inkscape:window-height="705"
     inkscape:window-x="-8"
     inkscape:window-y="-8"
     inkscape:window-maximized="1"
     inkscape:pagecheckerboard="0" />
  <metadata
     id="metadata2373">
    <rdf:RDF>
      <cc:Work
         rdf:about="">
        <dc:format>image/svg+xml</dc:format>
        <dc:type
           rdf:resource="http://purl.org/dc/dcmitype/StillImage" />
        <dc:title />
      </cc:Work>
    </rdf:RDF>
  </metadata>
  <g
     inkscape:label="Layer 1"
     inkscape:groupmode="layer"
     id="layer1"
     transform="translate(17.601243,-52.984885)">
    <g
       id="g2027"
       transform="matrix(7.4962192,0,0,7.4963992,-32.541614,38.04214)"
       style="fill:#00467a;fill-opacity:1"
       inkscape:export-xdpi="97"
       inkscape:export-ydpi="97">
      <g
         id="g2019"
         style="fill:#00467a;fill-opacity:1">
        <path
           style="fill:#00467a;fill-opacity:1;stroke-width:2.82398"
           d="m -1610.0605,3283.4551 h 22.7675 c 0.7211,0 1.3047,0.5836 1.3047,1.3047 v 17.1191 c 0,0.7211 -0.5836,1.3047 -1.3047,1.3047 h -22.7675 c -0.7212,0 -1.3047,-0.5836 -1.3047,-1.3047 v -17.1191 c 0,-0.7211 0.5835,-1.3047 1.3047,-1.3047 z"
           transform="matrix(0.35411025,0,0,0.35411025,574.60799,-1141.6984)"
           id="path2452" />
        <path
           style="fill:#00467a;fill-opacity:1;stroke-width:2.82398"
           d="m -1610.0605,3277.7695 c -3.8539,0 -6.9922,3.1364 -6.9922,6.9903 v 17.1191 c 0,3.8538 3.1383,6.9922 6.9922,6.9922 h 22.7675 c 3.8539,0 6.9903,-3.1384 6.9903,-6.9922 v -17.1191 c 0,-3.8539 -3.1364,-6.9903 -6.9903,-6.9903 z"
           transform="matrix(0.35411025,0,0,0.35411025,574.60799,-1141.6984)"
           id="path2450" />
        <path
           style="fill:#00467a;fill-opacity:1;stroke-width:2.82398"
           d="m -1567.7012,3272.1602 h 22.7676 c 0.7211,0 1.3047,0.5836 1.3047,1.3046 v 28.4141 c 0,0.7211 -0.5836,1.3047 -1.3047,1.3047 h -22.7676 c -0.721,0 -1.3047,-0.5836 -1.3047,-1.3047 v -28.4141 c 0,-0.721 0.5837,-1.3046 1.3047,-1.3046 z"
           transform="matrix(0.35411025,0,0,0.35411025,574.60799,-1141.6984)"
           id="path2448" />
        <path
           style="fill:#00467a;fill-opacity:1;stroke-width:2.82398"
           d="m -1567.7012,3266.4727 c -3.8538,0 -6.9922,3.1383 -6.9922,6.9921 v 28.4141 c 0,3.8538 3.1384,6.9922 6.9922,6.9922 h 22.7676 c 3.8538,0 6.9922,-3.1384 6.9922,-6.9922 v -28.4141 c 0,-3.8538 -3.1384,-6.9921 -6.9922,-6.9921 z"
           transform="matrix(0.35411025,0,0,0.35411025,574.60799,-1141.6984)"
           id="path2446" />
        <path
           style="fill:#00467a;fill-opacity:1;stroke-width:2.82398"
           d="m -1567.7012,3235.4473 h 22.7676 c 0.7211,0 1.3047,0.5835 1.3047,1.3047 v 17.1191 c 0,0.721 -0.5836,1.3047 -1.3047,1.3047 h -22.7676 c -0.721,0 -1.3047,-0.5837 -1.3047,-1.3047 v -17.1191 c 0,-0.7212 0.5837,-1.3047 1.3047,-1.3047 z"
           transform="matrix(0.35411025,0,0,0.35411025,574.60799,-1141.6984)"
           id="path2444" />
        <path
           style="fill:#00467a;fill-opacity:1;stroke-width:2.82398"
           d="m -1610.0605,3235.4473 h 22.7675 c 0.7211,0 1.3047,0.5835 1.3047,1.3047 v 28.416 c 0,0.721 -0.5836,1.3047 -1.3047,1.3047 h -22.7675 c -0.7212,0 -1.3047,-0.5837 -1.3047,-1.3047 v -28.416 c 0,-0.7212 0.5835,-1.3047 1.3047,-1.3047 z"
           transform="matrix(0.35411025,0,0,0.35411025,574.60799,-1141.6984)"
           id="path2442" />
        <path
           style="fill:#00467a;fill-opacity:1;stroke-width:2.82398"
           d="m -1567.7012,3229.7617 c -3.8538,2e-4 -6.9922,3.1364 -6.9922,6.9903 v 17.1191 c 0,3.8538 3.1384,6.9921 6.9922,6.9922 h 22.7676 c 3.8538,-2e-4 6.9922,-3.1384 6.9922,-6.9922 v -17.1191 c 0,-3.8539 -3.1384,-6.9903 -6.9922,-6.9903 z"
           transform="matrix(0.35411025,0,0,0.35411025,574.60799,-1141.6984)"
           id="path2440" />
        <path
           style="fill:#00467a;fill-opacity:1;stroke-width:2.82398"
           d="m -1610.0605,3229.7617 c -3.8539,2e-4 -6.9922,3.1364 -6.9922,6.9903 v 28.416 c 0,3.8538 3.1383,6.9922 6.9922,6.9922 h 22.7675 c 3.8539,0 6.9903,-3.1384 6.9903,-6.9922 v -28.416 c 0,-3.8539 -3.1364,-6.9903 -6.9903,-6.9903 z"
           transform="matrix(0.35411025,0,0,0.35411025,574.60799,-1141.6984)"
           id="path2017" />
      </g>
      <g
         id="g2021"
         style="fill:#00467a;fill-opacity:1" />
      <g
         id="g2023"
         style="fill:#00467a;fill-opacity:1" />
      <g
         id="g2025"
         style="fill:#00467a;fill-opacity:1" />
    </g>
  </g>
</svg>
