<?xml version="1.0" encoding="UTF-8" standalone="no"?>
<svg
   width="210mm"
   height="210mm"
   viewBox="0 0 210.00001 210"
   version="1.1"
   id="svg1491"
   inkscape:version="1.1 (c68e22c387, 2021-05-23)"
   sodipodi:docname="DNC_list_line.svg"
   xmlns:inkscape="http://www.inkscape.org/namespaces/inkscape"
   xmlns:sodipodi="http://sodipodi.sourceforge.net/DTD/sodipodi-0.dtd"
   xmlns="http://www.w3.org/2000/svg"
   xmlns:svg="http://www.w3.org/2000/svg"
   xmlns:rdf="http://www.w3.org/1999/02/22-rdf-syntax-ns#"
   xmlns:cc="http://creativecommons.org/ns#"
   xmlns:dc="http://purl.org/dc/elements/1.1/">
  <defs
     id="defs1485" />
  <sodipodi:namedview
     id="base"
     pagecolor="#ffffff"
     bordercolor="#666666"
     borderopacity="1.0"
     inkscape:pageopacity="0.0"
     inkscape:pageshadow="2"
     inkscape:zoom="0.175"
     inkscape:cx="-1740"
     inkscape:cy="391.42857"
     inkscape:document-units="mm"
     inkscape:current-layer="layer1"
     inkscape:document-rotation="0"
     showgrid="false"
     fit-margin-top="0"
     fit-margin-left="0"
     fit-margin-right="0"
     fit-margin-bottom="0"
     inkscape:window-width="1366"
     inkscape:window-height="705"
     inkscape:window-x="-8"
     inkscape:window-y="-8"
     inkscape:window-maximized="1"
     inkscape:pagecheckerboard="0" />
  <metadata
     id="metadata1488">
    <rdf:RDF>
      <cc:Work
         rdf:about="">
        <dc:format>image/svg+xml</dc:format>
        <dc:type
           rdf:resource="http://purl.org/dc/dcmitype/StillImage" />
        <dc:title />
      </cc:Work>
    </rdf:RDF>
  </metadata>
  <g
     inkscape:label="Layer 1"
     inkscape:groupmode="layer"
     id="layer1"
     transform="translate(-1261.6864,-80.24923)">
    <g
       id="g2257"
       transform="matrix(2.0353554,0,0,2.1016433,-1306.2937,-88.40603)">
      <path
         id="path2860-6"
         style="color:#000000;font-style:normal;font-variant:normal;font-weight:normal;font-stretch:normal;font-size:medium;line-height:normal;font-family:sans-serif;font-variant-ligatures:normal;font-variant-position:normal;font-variant-caps:normal;font-variant-numeric:normal;font-variant-alternates:normal;font-variant-east-asian:normal;font-feature-settings:normal;font-variation-settings:normal;text-indent:0;text-align:start;text-decoration:none;text-decoration-line:none;text-decoration-style:solid;text-decoration-color:#000000;letter-spacing:normal;word-spacing:normal;text-transform:none;writing-mode:lr-tb;direction:ltr;text-orientation:mixed;dominant-baseline:auto;baseline-shift:baseline;text-anchor:start;white-space:normal;shape-padding:0;shape-margin:0;inline-size:0;clip-rule:nonzero;display:inline;overflow:visible;visibility:visible;isolation:auto;mix-blend-mode:normal;color-interpolation:sRGB;color-interpolation-filters:linearRGB;solid-color:#000000;solid-opacity:1;vector-effect:none;fill:#00467a;fill-opacity:1;fill-rule:evenodd;stroke:none;stroke-width:0.961541;stroke-linecap:round;stroke-linejoin:miter;stroke-miterlimit:4;stroke-dasharray:none;stroke-dashoffset:0;stroke-opacity:1;color-rendering:auto;image-rendering:auto;shape-rendering:auto;text-rendering:auto;enable-background:accumulate;stop-color:#000000"
         sodipodi:type="inkscape:offset"
         inkscape:radius="-0.39272264"
         inkscape:original="M -759.85352 449.41797 C -764.2691 449.41797 -767.875 453.02579 -767.875 457.44141 C -767.875 461.85703 -764.2691 465.4668 -759.85352 465.4668 C -755.43794 465.4668 -751.83008 461.85703 -751.83008 457.44141 C -751.83008 453.02579 -755.43794 449.41797 -759.85352 449.41797 z M -759.85352 452.04297 C -756.85699 452.04297 -754.45508 454.44479 -754.45508 457.44141 C -754.45508 460.43791 -756.85699 462.83789 -759.85352 462.83789 C -762.85005 462.83789 -765.25 460.43791 -765.25 457.44141 C -765.25 454.44479 -762.85005 452.04297 -759.85352 452.04297 z "
         transform="matrix(3.2722522,0,0,3.2722522,3826.3247,-1341.6691)"
         inkscape:export-xdpi="97"
         inkscape:export-ydpi="97"
         d="m -759.85352,449.81055 c -4.20166,0 -7.6289,3.42904 -7.6289,7.63086 0,4.20181 3.42736,7.63281 7.6289,7.63281 4.20155,0 7.63086,-3.43111 7.63086,-7.63281 0,-4.2017 -3.4292,-7.63086 -7.63086,-7.63086 z m 0,1.83984 c 3.20639,0 5.79102,2.58454 5.79102,5.79102 0,3.20636 -2.58479,5.78906 -5.79102,5.78906 -3.20622,0 -5.78906,-2.58287 -5.78906,-5.78906 0,-3.20631 2.58268,-5.79102 5.78906,-5.79102 z" />
      <path
         style="color:#000000;font-style:normal;font-variant:normal;font-weight:normal;font-stretch:normal;font-size:medium;line-height:normal;font-family:sans-serif;font-variant-ligatures:normal;font-variant-position:normal;font-variant-caps:normal;font-variant-numeric:normal;font-variant-alternates:normal;font-variant-east-asian:normal;font-feature-settings:normal;font-variation-settings:normal;text-indent:0;text-align:start;text-decoration:none;text-decoration-line:none;text-decoration-style:solid;text-decoration-color:#000000;letter-spacing:normal;word-spacing:normal;text-transform:none;writing-mode:lr-tb;direction:ltr;text-orientation:mixed;dominant-baseline:auto;baseline-shift:baseline;text-anchor:start;white-space:normal;shape-padding:0;shape-margin:0;inline-size:0;clip-rule:nonzero;display:inline;overflow:visible;visibility:visible;isolation:auto;mix-blend-mode:normal;color-interpolation:sRGB;color-interpolation-filters:linearRGB;solid-color:#000000;solid-opacity:1;vector-effect:none;fill:#00467a;fill-opacity:1;fill-rule:nonzero;stroke:none;stroke-width:3.14641;stroke-linecap:butt;stroke-linejoin:miter;stroke-miterlimit:4;stroke-dasharray:none;stroke-dashoffset:0;stroke-opacity:1;color-rendering:auto;image-rendering:auto;shape-rendering:auto;text-rendering:auto;enable-background:accumulate;stop-color:#000000"
         d="m 1326.0155,136.11574 -4.8552,4.85502 32.6152,33.30912 4.8552,-4.86187 z"
         id="path2865"
         sodipodi:nodetypes="ccccc"
         inkscape:export-xdpi="97"
         inkscape:export-ydpi="97" />
      <g
         id="g3814"
         transform="matrix(3.6959513,0,0,3.6959513,618.09195,81.374258)"
         inkscape:export-xdpi="97"
         inkscape:export-ydpi="97">
        <g
           id="g3812"
           transform="translate(174.29771,-0.14157256)">
          <path
             id="path3804"
             style="fill:#00467a;fill-opacity:1;stroke-width:4.19683"
             d="m -2932.1602,1659.3672 c -13.7074,0 -24.8125,11.1051 -24.8125,24.8125 v 50.3613 c 0,13.7074 11.1051,24.8125 24.8125,24.8125 h 30.7325 v -7.6562 h -30.7325 c -9.4597,0 -17.1562,-7.6965 -17.1562,-17.1563 v -50.3613 c 0,-9.4598 7.6965,-17.1563 17.1562,-17.1563 h 50.3614 c 9.4597,0 17.1562,7.6965 17.1562,17.1563 v 26.9512 h 7.6563 v -26.9512 c 0,-13.7074 -11.1051,-24.8125 -24.8125,-24.8125 z"
             transform="matrix(0.2432865,0,0,0.2432865,719.22881,-403.86446)"
             sodipodi:nodetypes="ssssccssssssccsss" />
          <path
             d="M 17.105162,13.021032 H 6.8948384 C 6.3312285,13.021032 5.873806,12.56361 5.873806,12 c 0,-0.56361 0.4574225,-1.021032 1.0210324,-1.021032 H 17.105162 c 0.564631,0 1.021032,0.457422 1.021032,1.021032 0,0.56361 -0.456401,1.021032 -1.021032,1.021032 z"
             id="path3806"
             style="fill:#00467a;fill-opacity:1;stroke-width:1.02103"
             transform="translate(-4.6030859e-6)" />
          <path
             d="M 17.105162,7.9158707 H 6.8948384 c -0.5636099,0 -1.0210324,-0.4574225 -1.0210324,-1.0210323 0,-0.5636099 0.4574225,-1.0210324 1.0210324,-1.0210324 H 17.105162 c 0.564631,0 1.021032,0.4574225 1.021032,1.0210324 0,0.5636098 -0.456401,1.0210323 -1.021032,1.0210323 z"
             id="path3808"
             style="fill:#00467a;fill-opacity:1;stroke-width:1.02103"
             transform="translate(-4.6030859e-6)" />
          <path
             d="M 11.49185,18.126194 H 6.8948384 c -0.5636099,0 -1.0210324,-0.456401 -1.0210324,-1.021032 0,-0.564631 0.4574225,-1.021033 1.0210324,-1.021033 H 11.49185 c 0.564631,0 1.021032,0.456402 1.021032,1.021033 0,0.564631 -0.456401,1.021032 -1.021032,1.021032 z"
             id="path3810"
             sodipodi:nodetypes="sssssss"
             style="fill:#00467a;fill-opacity:1;stroke-width:1.02103" />
        </g>
      </g>
    </g>
  </g>
</svg>
