<?xml version="1.0" encoding="UTF-8" standalone="no"?>
<svg
   width="210mm"
   height="210mm"
   viewBox="0 0 210 210"
   version="1.1"
   id="svg2376"
   inkscape:version="1.1 (c68e22c387, 2021-05-23)"
   sodipodi:docname="DNC_list.svg"
   xmlns:inkscape="http://www.inkscape.org/namespaces/inkscape"
   xmlns:sodipodi="http://sodipodi.sourceforge.net/DTD/sodipodi-0.dtd"
   xmlns="http://www.w3.org/2000/svg"
   xmlns:svg="http://www.w3.org/2000/svg"
   xmlns:rdf="http://www.w3.org/1999/02/22-rdf-syntax-ns#"
   xmlns:cc="http://creativecommons.org/ns#"
   xmlns:dc="http://purl.org/dc/elements/1.1/">
  <defs
     id="defs2370" />
  <sodipodi:namedview
     id="base"
     pagecolor="#ffffff"
     bordercolor="#666666"
     borderopacity="1.0"
     inkscape:pageopacity="0.0"
     inkscape:pageshadow="2"
     inkscape:zoom="0.0875"
     inkscape:cx="-2211.4286"
     inkscape:cy="1445.7143"
     inkscape:document-units="mm"
     inkscape:current-layer="layer1"
     inkscape:document-rotation="0"
     showgrid="false"
     fit-margin-top="0"
     fit-margin-left="0"
     fit-margin-right="0"
     fit-margin-bottom="0"
     inkscape:window-width="1366"
     inkscape:window-height="705"
     inkscape:window-x="-8"
     inkscape:window-y="-8"
     inkscape:window-maximized="1"
     inkscape:pagecheckerboard="0" />
  <metadata
     id="metadata2373">
    <rdf:RDF>
      <cc:Work
         rdf:about="">
        <dc:format>image/svg+xml</dc:format>
        <dc:type
           rdf:resource="http://purl.org/dc/dcmitype/StillImage" />
        <dc:title />
      </cc:Work>
    </rdf:RDF>
  </metadata>
  <g
     inkscape:label="Layer 1"
     inkscape:groupmode="layer"
     id="layer1"
     transform="translate(-2653.9024,-56.013279)">
    <g
       id="g3089"
       transform="matrix(0.91045068,0,0,0.94309863,237.65515,3.1872321)">
      <g
         id="g2492"
         transform="matrix(7.7343808,0,0,7.7343808,17759.417,-2099.3971)"
         inkscape:export-xdpi="97"
         inkscape:export-ydpi="97">
        <path
           id="path2484"
           style="fill:#00467a;fill-opacity:1;stroke-width:4.19683"
           d="m -6905.8262,1053.2754 c -13.7076,0 -24.8125,11.1051 -24.8125,24.8125 v 50.3633 c 0,13.7074 11.1049,24.8105 24.8125,24.8105 h 35.043 c -3.748,-5.1962 -5.9688,-11.5566 -5.9688,-18.4121 0,-17.3741 14.219,-31.6016 31.5938,-31.6016 5.2207,0 10.1541,1.2902 14.5059,3.5586 v -28.7187 c 0,-13.7074 -11.105,-24.8125 -24.8125,-24.8125 z m 4.1953,24.8125 h 41.9688 c 2.321,0 4.1973,1.8806 4.1973,4.1973 0,2.3166 -1.8763,4.1972 -4.1973,4.1972 h -41.9688 c -2.3164,0 -4.1953,-1.8806 -4.1953,-4.1972 0,-2.3167 1.8789,-4.1973 4.1953,-4.1973 z m 0,20.9844 h 24.2911 c 2.321,0 4.1953,1.8806 4.1953,4.1972 0,2.3167 -1.8743,4.1973 -4.1953,4.1973 h -24.2911 c -2.3164,0 -4.1953,-1.8806 -4.1953,-4.1973 0,-2.3166 1.8789,-4.1972 4.1953,-4.1972 z m 0,20.9843 h 16.2989 c 2.321,0 4.1972,1.8764 4.1972,4.1973 0,2.3208 -1.8762,4.1973 -4.1972,4.1973 h -16.2989 c -2.3164,0 -4.1953,-1.8765 -4.1953,-4.1973 0,-2.3209 1.8789,-4.1973 4.1953,-4.1973 z"
           transform="matrix(0.26458333,0,0,0.26458333,-119.3033,0)" />
      </g>
      <path
         id="path2494"
         style="color:#000000;font-style:normal;font-variant:normal;font-weight:normal;font-stretch:normal;font-size:medium;line-height:normal;font-family:sans-serif;font-variant-ligatures:normal;font-variant-position:normal;font-variant-caps:normal;font-variant-numeric:normal;font-variant-alternates:normal;font-variant-east-asian:normal;font-feature-settings:normal;font-variation-settings:normal;text-indent:0;text-align:start;text-decoration:none;text-decoration-line:none;text-decoration-style:solid;text-decoration-color:#000000;letter-spacing:normal;word-spacing:normal;text-transform:none;writing-mode:lr-tb;direction:ltr;text-orientation:mixed;dominant-baseline:auto;baseline-shift:baseline;text-anchor:start;white-space:normal;shape-padding:0;shape-margin:0;inline-size:0;clip-rule:nonzero;display:inline;overflow:visible;visibility:visible;isolation:auto;mix-blend-mode:normal;color-interpolation:sRGB;color-interpolation-filters:linearRGB;solid-color:#000000;solid-opacity:1;vector-effect:none;fill:#00467a;fill-opacity:1;fill-rule:evenodd;stroke:none;stroke-width:7.02189;stroke-linecap:round;stroke-linejoin:miter;stroke-miterlimit:4;stroke-dasharray:none;stroke-dashoffset:0;stroke-opacity:1;color-rendering:auto;image-rendering:auto;shape-rendering:auto;text-rendering:auto;enable-background:accumulate;stop-color:#000000"
         d="m 2828.8291,167.21931 c -30.6837,0 -55.7121,25.03926 -55.7121,55.72411 0,30.68476 25.0292,55.7401 55.7121,55.7401 30.6823,0 55.7283,-25.05618 55.7283,-55.7401 0,-30.68391 -25.0443,-55.72411 -55.7283,-55.72411 z m 0,13.43342 c 23.4152,0 42.2909,18.87461 42.2909,42.29069 0,9.08617 -2.8672,17.4662 -7.7141,24.34482 l -58.222,-59.44117 c 6.7414,-4.54478 14.8727,-7.19434 23.6452,-7.19434 z m -34.5647,17.94187 58.2021,59.44117 c -6.7416,4.53731 -14.8705,7.18634 -23.6374,7.18634 -23.4142,0 -42.2747,-18.86471 -42.2747,-42.27869 0,-9.0862 2.8658,-17.46747 7.71,-24.34882 z"
         inkscape:export-xdpi="97"
         inkscape:export-ydpi="97" />
    </g>
  </g>
</svg>
