<?xml version="1.0" encoding="UTF-8" standalone="no"?>
<svg
   xmlns:dc="http://purl.org/dc/elements/1.1/"
   xmlns:cc="http://creativecommons.org/ns#"
   xmlns:rdf="http://www.w3.org/1999/02/22-rdf-syntax-ns#"
   xmlns:svg="http://www.w3.org/2000/svg"
   xmlns="http://www.w3.org/2000/svg"
   xmlns:sodipodi="http://sodipodi.sourceforge.net/DTD/sodipodi-0.dtd"
   xmlns:inkscape="http://www.inkscape.org/namespaces/inkscape"
   width="186.06114mm"
   height="186.06114mm"
   viewBox="0 0 186.06115 186.06115"
   version="1.1"
   id="svg261"
   inkscape:version="1.0.2-2 (e86c870879, 2021-01-15)"
   sodipodi:docname="Download.svg">
  <defs
     id="defs255" />
  <sodipodi:namedview
     id="base"
     pagecolor="#ffffff"
     bordercolor="#666666"
     borderopacity="1.0"
     inkscape:pageopacity="0.0"
     inkscape:pageshadow="2"
     inkscape:zoom="0.35"
     inkscape:cx="345.25072"
     inkscape:cy="877.08706"
     inkscape:document-units="mm"
     inkscape:current-layer="layer1"
     inkscape:document-rotation="0"
     showgrid="false"
     inkscape:window-width="1267"
     inkscape:window-height="1041"
     inkscape:window-x="720"
     inkscape:window-y="13"
     inkscape:window-maximized="0"
     inkscape:snap-page="true" />
  <metadata
     id="metadata258">
    <rdf:RDF>
      <cc:Work
         rdf:about="">
        <dc:format>image/svg+xml</dc:format>
        <dc:type
           rdf:resource="http://purl.org/dc/dcmitype/StillImage" />
        <dc:title />
      </cc:Work>
    </rdf:RDF>
  </metadata>
  <g
     inkscape:label="Layer 1"
     inkscape:groupmode="layer"
     id="layer1"
     transform="translate(291.21448,215.24129)">
    <path
       id="path1418"
       style="fill:#00467a;fill-opacity:1;stroke-width:0.470323"
       sodipodi:type="inkscape:offset"
       inkscape:radius="-0.16969985"
       inkscape:original="M -446.95508 3125.627 C -448.37586 3125.654 -449.77634 3126.259 -450.77148 3127.2734 C -451.76663 3128.2879 -452.34369 3129.7 -452.34375 3131.1211 L -452.34375 3203.0117 L -471.11328 3184.2422 C -472.13122 3183.2244 -473.5625 3182.6327 -475.00195 3182.6328 C -476.44141 3182.6329 -477.87278 3183.2243 -478.89062 3184.2422 C -479.90848 3185.26 -480.49994 3186.6914 -480.5 3188.1309 C -480.50006 3189.5703 -479.90838 3191.0016 -478.89062 3192.0195 L -450.75 3220.1602 C -449.73164 3221.1862 -448.29332 3221.7832 -446.84766 3221.7832 C -445.40108 3221.7832 -443.96378 3221.1855 -442.94531 3220.1582 L -414.88086 3192.0938 C -414.86926 3192.0808 -414.85816 3192.0677 -414.84766 3192.0547 C -413.98369 3191.0169 -413.52218 3189.6518 -413.58008 3188.3027 C -413.63798 3186.9537 -414.21436 3185.6337 -415.16406 3184.6738 C -416.11377 3183.7139 -417.427 3183.1231 -418.77539 3183.0508 C -420.12378 3182.9788 -421.49408 3183.4265 -422.54102 3184.2793 C -422.55592 3184.2913 -422.57028 3184.3034 -422.58398 3184.3164 L -441.35352 3203.0859 L -441.35352 3131.1211 C -441.35358 3129.6649 -441.96044 3128.219 -443 3127.1992 C -444.03956 3126.1795 -445.49912 3125.599 -446.95508 3125.627 z M -509.77344 3204.7969 C -511.19422 3204.8239 -512.5947 3205.4289 -513.58984 3206.4434 C -514.58499 3207.4578 -515.16205 3208.87 -515.16211 3210.291 L -515.16211 3227.1367 C -515.15511 3233.7841 -512.4172 3240.3894 -507.7168 3245.0898 C -503.01639 3249.7903 -496.41105 3252.5285 -489.76367 3252.5352 L -403.93359 3252.5352 C -397.28621 3252.5252 -390.68087 3249.7903 -385.98047 3245.0898 C -381.28007 3240.3894 -378.54181 3233.7841 -378.53516 3227.1367 L -378.53516 3210.291 C -378.53548 3208.8524 -379.12705 3207.4234 -380.14453 3206.4062 C -381.16201 3205.3893 -382.5926 3204.7966 -384.03125 3204.7969 C -385.46953 3204.7972 -386.89899 3205.3892 -387.91602 3206.4062 C -388.93304 3207.4234 -389.52506 3208.8527 -389.52539 3210.291 L -389.52539 3227.1367 C -389.52539 3235.9572 -396.91907 3241.5449 -403.93359 3241.5449 L -489.76367 3241.5449 C -497.01686 3241.5449 -504.17187 3234.8003 -504.17188 3227.1367 L -504.17188 3210.291 C -504.17194 3208.8348 -504.7788 3207.3889 -505.81836 3206.3691 C -506.85792 3205.3494 -508.31748 3204.7689 -509.77344 3204.7969 z "
       transform="matrix(0.82759903,0,0,0.82759903,171.62761,-2758.9814)"
       inkscape:export-xdpi="97"
       inkscape:export-ydpi="97"
       d="m -446.95117,3125.7969 c -1.37475,0.026 -2.7362,0.614 -3.69922,1.5957 -0.96299,0.9817 -1.52338,2.3533 -1.52344,3.7285 v 71.8906 a 0.16971682,0.16971682 0 0 1 -0.28906,0.1192 l -18.76953,-18.7696 c -0.98495,-0.9848 -2.3766,-1.5587 -3.76953,-1.5586 -1.39299,10e-5 -2.7847,0.5737 -3.76953,1.5586 -0.98485,0.9848 -1.55854,2.3765 -1.5586,3.7696 -6e-5,1.3929 0.57382,2.7846 1.5586,3.7695 l 28.14062,28.1406 a 0.16971682,0.16971682 0 0 1 0.002,0 c 0.98527,0.9927 2.38231,1.5723 3.78125,1.5723 1.39984,0 2.79581,-0.5803 3.78125,-1.5742 a 0.16971682,0.16971682 0 0 1 0.002,0 l 28.05664,-28.0586 c 0.01,-0.011 0.0186,-0.022 0.0273,-0.033 a 0.16971682,0.16971682 0 0 1 0.002,-0 c 0.83617,-1.0044 1.28455,-2.3291 1.22852,-3.6348 -0.056,-1.3055 -0.61602,-2.5885 -1.53516,-3.5175 -0.91918,-0.9291 -2.19508,-1.5023 -3.5,-1.5723 -1.30487,-0.07 -2.63516,0.3641 -3.64843,1.1895 a 0.16971682,0.16971682 0 0 1 -0.002,0 c -0.013,0.01 -0.0224,0.019 -0.0312,0.027 l -18.76758,18.7656 a 0.16971682,0.16971682 0 0 1 -0.28906,-0.1192 v -71.9648 c -6e-5,-1.4091 -0.58981,-2.814 -1.5957,-3.8008 -1.00586,-0.9866 -2.42333,-1.5505 -3.83203,-1.5234 z m -62.81836,79.1699 c -1.37475,0.026 -2.7362,0.6139 -3.69922,1.5957 -0.96298,0.9816 -1.52338,2.3535 -1.52344,3.7285 v 16.8457 c 0.007,6.6009 2.72704,13.1665 7.39453,17.834 4.66751,4.6676 11.2331,7.3879 17.83399,7.3945 h 85.83008 c 6.601,-0.01 13.16652,-2.7269 17.83398,-7.3945 4.66749,-4.6675 7.38793,-11.2331 7.39453,-17.834 v -16.8457 c -3.1e-4,-1.3921 -0.57405,-2.7813 -1.55859,-3.7656 -0.98455,-0.984 -2.37556,-1.5589 -3.76758,-1.5586 -1.39174,3e-4 -2.78153,0.5745 -3.76563,1.5586 -0.9841,0.9843 -1.55827,2.3739 -1.55859,3.7656 v 16.8457 c 0,8.9154 -7.47348,14.5781 -14.57812,14.5781 h -85.83008 c -7.35839,0 -14.57812,-6.8089 -14.57813,-14.5781 v -16.8457 c -5e-5,-1.409 -0.58981,-2.814 -1.5957,-3.8008 -1.00586,-0.9866 -2.42333,-1.5505 -3.83203,-1.5234 z" />
  </g>
</svg>
