<?xml version="1.0" encoding="UTF-8" standalone="no"?>
<svg
   xmlns:dc="http://purl.org/dc/elements/1.1/"
   xmlns:cc="http://creativecommons.org/ns#"
   xmlns:rdf="http://www.w3.org/1999/02/22-rdf-syntax-ns#"
   xmlns:svg="http://www.w3.org/2000/svg"
   xmlns="http://www.w3.org/2000/svg"
   xmlns:sodipodi="http://sodipodi.sourceforge.net/DTD/sodipodi-0.dtd"
   xmlns:inkscape="http://www.inkscape.org/namespaces/inkscape"
   width="186mm"
   height="186mm"
   viewBox="0 0 186 186"
   version="1.1"
   id="svg261"
   inkscape:version="1.0.2-2 (e86c870879, 2021-01-15)"
   sodipodi:docname="Edit.svg">
  <defs
     id="defs255" />
  <sodipodi:namedview
     id="base"
     pagecolor="#ffffff"
     bordercolor="#666666"
     borderopacity="1.0"
     inkscape:pageopacity="0.0"
     inkscape:pageshadow="2"
     inkscape:zoom="0.35"
     inkscape:cx="-184.21821"
     inkscape:cy="357.21034"
     inkscape:document-units="mm"
     inkscape:current-layer="layer1"
     inkscape:document-rotation="0"
     showgrid="false"
     inkscape:window-width="1920"
     inkscape:window-height="1017"
     inkscape:window-x="-8"
     inkscape:window-y="-8"
     inkscape:window-maximized="1"
     inkscape:snap-page="true"
     inkscape:pagecheckerboard="0" />
  <metadata
     id="metadata258">
    <rdf:RDF>
      <cc:Work
         rdf:about="">
        <dc:format>image/svg+xml</dc:format>
        <dc:type
           rdf:resource="http://purl.org/dc/dcmitype/StillImage" />
        <dc:title></dc:title>
      </cc:Work>
    </rdf:RDF>
  </metadata>
  <g
     inkscape:label="Layer 1"
     inkscape:groupmode="layer"
     id="layer1"
     transform="translate(-51.248249,-152.92383)">
    <g
       id="g22067"
       style="fill:#ffffff;fill-opacity:1;stroke-width:0.773942"
       transform="matrix(0.35373647,0,0,0.35373647,-308.74414,184.21782)"
       inkscape:export-xdpi="97"
       inkscape:export-ydpi="97">
      <path
         id="path22065"
         style="fill:#ffffff;fill-opacity:1;stroke-width:0.274229"
         sodipodi:type="inkscape:offset"
         inkscape:radius="-0.47960144"
         inkscape:original="M -564.35938 1159.6191 C -568.67756 1159.6191 -572.82321 1161.4479 -575.73438 1164.6348 L -630.7793 1224.8984 C -631.28103 1225.4476 -631.66121 1226.0953 -631.89648 1226.8008 L -638.36914 1246.2031 C -639.11748 1248.4464 -638.74251 1250.9279 -637.36523 1252.8398 C -635.97698 1254.7667 -633.74122 1255.918 -631.38281 1255.918 C -630.3627 1255.918 -629.36562 1255.7088 -628.41992 1255.2949 L -609.67773 1247.0957 C -608.99636 1246.7977 -608.38614 1246.3598 -607.88477 1245.8105 L -552.83984 1185.5469 C -547.11178 1179.2763 -547.5519 1169.515 -553.82422 1163.7852 L -553.97461 1163.6504 C -556.81986 1161.0514 -560.50746 1159.6191 -564.35938 1159.6191 z M -564.35938 1170.25 C -563.16706 1170.25 -562.02432 1170.6928 -561.14062 1171.5 L -560.99219 1171.6348 C -559.04905 1173.4096 -558.91267 1176.4358 -560.6875 1178.3789 L -607.48242 1229.6094 L -614.68164 1223.0352 L -567.88672 1171.8027 C -566.97149 1170.8007 -565.71857 1170.25 -564.35938 1170.25 z M -647.75195 1171.0527 C -661.06654 1171.0527 -671.89844 1181.885 -671.89844 1195.1992 L -671.89844 1259.0918 C -671.89844 1272.406 -661.06618 1283.2383 -647.75195 1283.2383 L -583.33594 1283.2383 C -570.02171 1283.2383 -559.18945 1272.406 -559.18945 1259.0918 L -559.18945 1213.9688 C -559.1891 1211.0334 -561.56865 1208.6543 -564.50391 1208.6543 C -567.43916 1208.6543 -569.81836 1211.0334 -569.81836 1213.9688 L -569.81836 1259.0918 C -569.81836 1266.5447 -575.883 1272.6074 -583.33594 1272.6074 L -647.75195 1272.6074 C -655.20524 1272.6074 -661.26758 1266.5447 -661.26758 1259.0918 L -661.26758 1195.1992 C -661.26758 1187.7463 -655.20489 1181.6816 -647.75195 1181.6816 L -601.12695 1181.6816 C -598.1917 1181.6816 -595.8125 1179.3024 -595.8125 1176.3672 C -595.8125 1173.4319 -598.1917 1171.0527 -601.12695 1171.0527 L -647.75195 1171.0527 z M -621.84961 1230.8828 L -614.65234 1237.457 L -614.97266 1237.8086 L -625.96875 1242.6191 L -622.16992 1231.2344 L -621.84961 1230.8828 z "
         transform="matrix(2.8222433,0,0,2.8222433,3003.1651,-3272.728)"
         d="m -564.35938,1160.0996 c -4.18276,0 -8.20161,1.7724 -11.02148,4.8594 l -55.04492,60.2637 c -0.45646,0.4996 -0.80154,1.0884 -1.01563,1.7304 l -6.47265,19.4024 c -0.69953,2.0969 -0.34887,4.4174 0.9375,6.2031 1.29845,1.8023 3.39142,2.8789 5.59375,2.8789 0.95454,0 1.88484,-0.194 2.77148,-0.582 l 18.74219,-8.1993 c 0.61965,-0.271 1.17456,-0.6699 1.63086,-1.1699 l 55.04492,-60.2636 c 5.55138,-6.0772 5.12517,-15.5252 -0.95117,-21.0801 l -0.002,-0 -0.14844,-0.1328 a 0.4796494,0.4796494 0 0 1 -0.004,-0 c -2.75768,-2.519 -6.32752,-3.9043 -10.06055,-3.9043 z m 0,9.6699 c 1.31107,0 2.57175,0.4898 3.54297,1.377 l 0.14649,0.1328 a 0.4796494,0.4796494 0 0 1 0.002,0 c 2.13534,1.9504 2.28429,5.2867 0.33399,7.4219 l -46.79493,51.2305 a 0.4796494,0.4796494 0 0 1 -0.67773,0.029 l -7.19922,-6.5742 a 0.4796494,0.4796494 0 0 1 -0.0293,-0.6778 l 46.79493,-51.2324 c 1.00321,-1.0983 2.39212,-1.709 3.88085,-1.709 z m -83.39257,1.7637 c -13.05447,0 -23.66602,10.6119 -23.66602,23.666 v 63.8926 c 0,13.0541 10.61192,23.666 23.66602,23.666 h 64.41601 c 13.0541,0 23.66602,-10.6119 23.66602,-23.666 v -45.123 c 3.2e-4,-2.6762 -2.15788,-4.834 -4.83399,-4.834 -2.67609,0 -4.83398,2.1577 -4.83398,4.834 v 45.123 c 0,7.7131 -6.28502,13.9961 -13.99805,13.9961 h -64.41601 c -7.71337,0 -13.9961,-6.2831 -13.9961,-13.9961 v -63.8926 c 0,-7.713 6.28298,-13.998 13.9961,-13.998 h 46.625 c 2.67608,0 4.83398,-2.158 4.83398,-4.834 0,-2.6762 -2.1579,-4.834 -4.83398,-4.834 z m 25.91015,58.8691 a 0.4796494,0.4796494 0 0 1 0.31641,0.127 l 7.19727,6.5742 a 0.4796494,0.4796494 0 0 1 0.0312,0.6758 l -0.32031,0.3516 a 0.4796494,0.4796494 0 0 1 -0.16406,0.1171 l -10.99609,4.8106 a 0.4796494,0.4796494 0 0 1 -0.64649,-0.5918 l 3.79883,-11.3848 a 0.4796494,0.4796494 0 0 1 0.0996,-0.1699 l 0.32031,-0.3516 a 0.4796494,0.4796494 0 0 1 0.36328,-0.1582 z" />
    </g>
  </g>
</svg>
