<?xml version="1.0" encoding="UTF-8" standalone="no"?>
<svg
   xmlns:dc="http://purl.org/dc/elements/1.1/"
   xmlns:cc="http://creativecommons.org/ns#"
   xmlns:rdf="http://www.w3.org/1999/02/22-rdf-syntax-ns#"
   xmlns:svg="http://www.w3.org/2000/svg"
   xmlns="http://www.w3.org/2000/svg"
   xmlns:sodipodi="http://sodipodi.sourceforge.net/DTD/sodipodi-0.dtd"
   xmlns:inkscape="http://www.inkscape.org/namespaces/inkscape"
   width="186.06114mm"
   height="186.06114mm"
   viewBox="0 0 186.06115 186.06115"
   version="1.1"
   id="svg261"
   inkscape:version="1.0.2-2 (e86c870879, 2021-01-15)"
   sodipodi:docname="Export.svg">
  <defs
     id="defs255" />
  <sodipodi:namedview
     id="base"
     pagecolor="#ffffff"
     bordercolor="#666666"
     borderopacity="1.0"
     inkscape:pageopacity="0.0"
     inkscape:pageshadow="2"
     inkscape:zoom="0.35"
     inkscape:cx="539.69884"
     inkscape:cy="982.9844"
     inkscape:document-units="mm"
     inkscape:current-layer="layer1"
     inkscape:document-rotation="0"
     showgrid="false"
     inkscape:window-width="1267"
     inkscape:window-height="1041"
     inkscape:window-x="182"
     inkscape:window-y="0"
     inkscape:window-maximized="0"
     inkscape:snap-page="true" />
  <metadata
     id="metadata258">
    <rdf:RDF>
      <cc:Work
         rdf:about="">
        <dc:format>image/svg+xml</dc:format>
        <dc:type
           rdf:resource="http://purl.org/dc/dcmitype/StillImage" />
        <dc:title />
      </cc:Work>
    </rdf:RDF>
  </metadata>
  <g
     inkscape:label="Layer 1"
     inkscape:groupmode="layer"
     id="layer1"
     transform="translate(163.50693,243.25996)">
    <g
       id="g1726"
       transform="matrix(-3.4950582,0,0,3.4950582,-2540.3057,-3649.3381)"
       style="fill:#64a3d1;fill-opacity:1;stroke-width:0.286118"
       inkscape:export-xdpi="97"
       inkscape:export-ydpi="97">
      <g
         id="g1430"
         style="fill:#64a3d1;fill-opacity:1;stroke-width:0.286118"
         transform="matrix(0.02897724,0.02897724,-0.02897724,0.02897724,-688.23664,928.43424)">
        <g
           id="g1428"
           style="fill:#64a3d1;fill-opacity:1;stroke-width:0.286118">
          <path
             id="path1720"
             style="fill:#00467a;fill-opacity:1;stroke-width:0.0275753"
             sodipodi:type="inkscape:offset"
             inkscape:radius="0.31550622"
             inkscape:original="M -909.45117 3736.168 C -910.11448 3736.168 -910.7171 3736.4398 -911.1543 3736.877 L -935.27539 3760.998 C -935.71252 3761.4352 -935.98438 3762.0378 -935.98438 3762.7012 L -935.98438 3806.1191 C -935.98438 3807.4457 -934.89888 3808.5312 -933.57227 3808.5312 L -885.86719 3808.5312 C -882.73577 3808.4352 -881.99414 3803.6621 -886.11719 3803.6621 L -887.74219 3803.707 L -931.16016 3803.707 L -931.16016 3765.1152 L -909.45117 3765.1152 C -908.12453 3765.1152 -907.03906 3764.0297 -907.03906 3762.7031 L -907.03906 3740.9941 L -887.74219 3740.9941 L -885.26953 3740.9941 C -881.60572 3740.9941 -881.66043 3736.1699 -885.33008 3736.1699 L -909.45117 3736.168 z M -911.86328 3744.4004 L -911.86328 3760.291 L -927.75391 3760.291 L -911.86328 3744.4004 z M -884.30859 3765.5449 C -884.89312 3765.5448 -885.47729 3765.7664 -885.91992 3766.209 C -885.92192 3766.209 -885.92573 3766.2088 -885.92773 3766.2188 C -886.79364 3767.1033 -886.80111 3768.5465 -885.91602 3769.4316 L -881.24414 3774.1035 L -906.39258 3774.1133 C -907.01791 3774.1133 -907.59044 3774.3697 -908.00195 3774.7812 C -908.41346 3775.1928 -908.66993 3775.7654 -908.66992 3776.3906 C -908.66995 3777.0096 -908.41724 3777.5827 -908.00391 3777.9961 C -907.59061 3778.4094 -907.01784 3778.6621 -906.39844 3778.6621 L -881.24414 3778.6621 L -885.91602 3783.332 C -886.80088 3784.2169 -886.80274 3785.6678 -885.92188 3786.5488 C -885.03683 3787.4339 -883.58446 3787.4341 -882.69922 3786.5488 L -874.14453 3777.9961 C -873.25928 3777.1108 -873.25949 3775.6565 -874.14453 3774.7715 L -882.69727 3766.2168 C -883.13978 3765.7743 -883.72406 3765.5529 -884.30859 3765.5527 L -884.30859 3765.5449 z "
             transform="matrix(-6.8498662,6.8498662,6.8498662,6.8498662,-31100.483,-18069.992)"
             d="m -909.45117,3735.8516 c -0.7495,0 -1.43231,0.3092 -1.92578,0.8027 l -24.1211,24.1211 c -0.49337,0.4934 -0.80273,1.1762 -0.80273,1.9258 v 43.4179 c 0,1.4988 1.2298,2.7286 2.72851,2.7286 h 47.70508 a 0.31553777,0.31553777 0 0 0 0.01,-0 c 1.72502,-0.053 2.8309,-1.4067 2.90039,-2.7695 0.0347,-0.6814 -0.19074,-1.3768 -0.7207,-1.8926 -0.52997,-0.5158 -1.34782,-0.8379 -2.43946,-0.8379 a 0.31553777,0.31553777 0 0 0 -0.008,0 l -1.62109,0.043 h -43.09766 v -37.959 h 21.39258 c 1.49874,0 2.72851,-1.2298 2.72851,-2.7285 v -21.3926 h 18.98047 2.47266 c 1.97038,0 3.05147,-1.3665 3.03515,-2.7324 -0.0163,-1.3659 -1.12262,-2.7246 -3.0957,-2.7246 z m -2.72852,9.3105 v 14.8125 h -14.8125 z m 27.8711,20.0664 c -0.64157,-1e-4 -1.27849,0.249 -1.77539,0.7188 -0.0168,0.01 -0.0408,0.019 -0.041,0.02 -1.2e-4,10e-5 -0.01,0.011 -0.0176,0.019 -0.005,0 -0.005,0.01 -0.01,0.012 -0.0121,0.013 -0.0252,0.025 -0.0254,0.025 -3.6e-4,5e-4 -0.0252,0.036 -0.0332,0.053 -0.005,0.01 -0.005,0.015 -0.008,0.023 -0.89945,1.0122 -0.89692,2.5777 0.0801,3.5547 l 4.13281,4.1328 -24.38672,0.01 c -0.71157,0 -1.36339,0.2931 -1.83203,0.7617 -0.46861,0.4687 -0.76173,1.1205 -0.76172,1.832 -3e-5,0.7049 0.28882,1.3571 0.75977,1.8282 0.47089,0.4708 1.12291,0.7597 1.82812,0.7597 h 24.39258 l -4.13281,4.1309 c -1.00663,1.0067 -1.00934,2.6584 -0.006,3.6621 1.00706,1.0071 2.66071,1.0073 3.66797,0 l 8.55468,-8.5527 c 1.00743,-1.0075 1.00723,-2.6628 0,-3.67 l -8.55273,-8.5547 c -0.46724,-0.4672 -1.07751,-0.6965 -1.69336,-0.7304 a 0.31553777,0.31553777 0 0 0 -0.14062,-0.035 z" />
        </g>
      </g>
    </g>
  </g>
</svg>
