<?xml version="1.0" encoding="UTF-8" standalone="no"?>
<svg
   xmlns:dc="http://purl.org/dc/elements/1.1/"
   xmlns:cc="http://creativecommons.org/ns#"
   xmlns:rdf="http://www.w3.org/1999/02/22-rdf-syntax-ns#"
   xmlns:svg="http://www.w3.org/2000/svg"
   xmlns="http://www.w3.org/2000/svg"
   xmlns:sodipodi="http://sodipodi.sourceforge.net/DTD/sodipodi-0.dtd"
   xmlns:inkscape="http://www.inkscape.org/namespaces/inkscape"
   width="186.06114mm"
   height="186.06114mm"
   viewBox="0 0 186.06114 186.06115"
   version="1.1"
   id="svg8"
   inkscape:version="1.0.2-2 (e86c870879, 2021-01-15)"
   sodipodi:docname="filter square.svg">
  <defs
     id="defs2" />
  <sodipodi:namedview
     id="base"
     pagecolor="#ffffff"
     bordercolor="#666666"
     borderopacity="1.0"
     inkscape:pageopacity="0.0"
     inkscape:pageshadow="2"
     inkscape:zoom="0.49497475"
     inkscape:cx="830.31685"
     inkscape:cy="317.7121"
     inkscape:document-units="mm"
     inkscape:current-layer="layer1"
     inkscape:document-rotation="0"
     showgrid="false"
     inkscape:window-width="1920"
     inkscape:window-height="1017"
     inkscape:window-x="-8"
     inkscape:window-y="-8"
     inkscape:window-maximized="1" />
  <metadata
     id="metadata5">
    <rdf:RDF>
      <cc:Work
         rdf:about="">
        <dc:format>image/svg+xml</dc:format>
        <dc:type
           rdf:resource="http://purl.org/dc/dcmitype/StillImage" />
        <dc:title />
      </cc:Work>
    </rdf:RDF>
  </metadata>
  <g
     inkscape:label="Layer 1"
     inkscape:groupmode="layer"
     id="layer1"
     transform="translate(414.25296,-663.72083)">
    <g
       id="g1228">
      <path
         id="path894-2"
         style="fill:#00467a;fill-opacity:1;stroke-width:0.247585"
         d="m -376.15338,697.3282 c -2.47743,0 -4.49126,2.01384 -4.49126,4.49133 v 21.12741 c 2.9e-4,1.27257 0.5405,2.48554 1.48637,3.33708 l 40.76836,36.69087 v 48.7065 c -9.5e-4,2.47749 2.01192,4.49195 4.48945,4.49326 0.6976,2.6e-4 1.3856,-0.16194 2.00964,-0.47387 l 25.3528,-12.67616 c 1.52224,-0.76059 2.48438,-2.31794 2.48352,-4.01985 v -36.02988 l 40.76789,-36.68219 c 0.94825,-0.85329 1.48874,-2.06998 1.48646,-3.34576 v -5e-4 -21.12691 c -1.9e-4,-2.47747 -2.01383,-4.49133 -4.49135,-4.49133 z m 4.49136,8.98269 h 100.87869 v 14.63698 l -40.76732,36.6822 c -0.94844,0.85339 -1.48903,2.07028 -1.48693,3.34626 v 35.25278 l -16.36962,8.18479 v -43.43804 c -1.9e-4,-1.27263 -0.54097,-2.48581 -1.48694,-3.33709 l -40.76788,-36.6909 z"
         inkscape:export-xdpi="95"
         inkscape:export-ydpi="95" />
    </g>
  </g>
</svg>
