<?xml version="1.0" encoding="UTF-8" standalone="no"?>
<svg
   width="210mm"
   height="209.99983mm"
   viewBox="0 0 210 209.99983"
   version="1.1"
   id="svg4513"
   inkscape:version="1.1 (c68e22c387, 2021-05-23)"
   sodipodi:docname="Groups_line.svg"
   xmlns:inkscape="http://www.inkscape.org/namespaces/inkscape"
   xmlns:sodipodi="http://sodipodi.sourceforge.net/DTD/sodipodi-0.dtd"
   xmlns="http://www.w3.org/2000/svg"
   xmlns:svg="http://www.w3.org/2000/svg"
   xmlns:rdf="http://www.w3.org/1999/02/22-rdf-syntax-ns#"
   xmlns:cc="http://creativecommons.org/ns#"
   xmlns:dc="http://purl.org/dc/elements/1.1/">
  <defs
     id="defs4507" />
  <sodipodi:namedview
     id="base"
     pagecolor="#ffffff"
     bordercolor="#666666"
     borderopacity="1.0"
     inkscape:pageopacity="0.0"
     inkscape:pageshadow="2"
     inkscape:zoom="0.98994949"
     inkscape:cx="689.42911"
     inkscape:cy="270.21581"
     inkscape:document-units="mm"
     inkscape:current-layer="layer1"
     inkscape:document-rotation="0"
     showgrid="false"
     inkscape:window-width="1366"
     inkscape:window-height="705"
     inkscape:window-x="-8"
     inkscape:window-y="-8"
     inkscape:window-maximized="1"
     inkscape:pagecheckerboard="0" />
  <metadata
     id="metadata4510">
    <rdf:RDF>
      <cc:Work
         rdf:about="">
        <dc:format>image/svg+xml</dc:format>
        <dc:type
           rdf:resource="http://purl.org/dc/dcmitype/StillImage" />
        <dc:title />
      </cc:Work>
    </rdf:RDF>
  </metadata>
  <g
     inkscape:label="Layer 1"
     inkscape:groupmode="layer"
     id="layer1"
     transform="translate(-60.77057,37.68351)">
    <path
       id="path865"
       style="color:#000000;font-style:normal;font-variant:normal;font-weight:normal;font-stretch:normal;font-size:medium;line-height:normal;font-family:sans-serif;font-variant-ligatures:normal;font-variant-position:normal;font-variant-caps:normal;font-variant-numeric:normal;font-variant-alternates:normal;font-variant-east-asian:normal;font-feature-settings:normal;font-variation-settings:normal;text-indent:0;text-align:start;text-decoration:none;text-decoration-line:none;text-decoration-style:solid;text-decoration-color:#000000;letter-spacing:normal;word-spacing:normal;text-transform:none;writing-mode:lr-tb;direction:ltr;text-orientation:mixed;dominant-baseline:auto;baseline-shift:baseline;text-anchor:start;white-space:normal;shape-padding:0;shape-margin:0;inline-size:0;clip-rule:nonzero;display:inline;overflow:visible;visibility:visible;isolation:auto;mix-blend-mode:normal;color-interpolation:sRGB;color-interpolation-filters:linearRGB;solid-color:#000000;solid-opacity:1;vector-effect:none;fill:#00467a;fill-opacity:1;fill-rule:nonzero;stroke:none;stroke-width:0.820998;stroke-linecap:round;stroke-linejoin:round;stroke-miterlimit:4;stroke-dasharray:none;stroke-dashoffset:0;stroke-opacity:1;color-rendering:auto;image-rendering:auto;shape-rendering:auto;text-rendering:auto;enable-background:accumulate;stop-color:#000000"
       d="m 127.44024,-37.68351 c -20.85115,0 -37.893554,22.544596 -37.893546,50.127867 0,27.583345 17.042416,50.127857 37.893546,50.127857 20.85131,0 37.88889,-22.546233 37.88889,-50.127857 1e-5,-27.581551 -17.03756,-50.127867 -37.88889,-50.127867 z m 0,18.266693 c 13.38998,0 24.08041,14.1463694 24.08041,31.861174 0,17.71491 -10.6904,31.861164 -24.08041,31.861164 -13.38971,0 -24.08508,-14.148206 -24.08507,-31.861164 0,-17.7128531 10.69537,-31.861174 24.08507,-31.861174 z m 88.47249,14.5289277 c -17.46997,0 -31.77004,18.9168493 -31.77004,42.0273193 0,23.11047 14.29999,42.027319 31.77004,42.027319 17.4701,0 31.76849,-18.916965 31.76849,-42.027319 0,-23.110334 -14.29838,-42.0273193 -31.76849,-42.0273193 z m 0,18.2666823 c 10.01006,0 17.96001,10.518613 17.96001,23.760637 0,13.242066 -7.95003,28.51948 -17.96001,28.51948 -10.00984,0 -17.96156,-15.277603 -17.96156,-28.51948 0,-13.241836 7.95165,-23.760637 17.96156,-23.760637 z m -88.47714,54.92975 c -7.77872,0 -15.56807,0.792941 -23.29349,2.424223 h -0.002 c -0.0261,0.0052 -0.053,0.01049 -0.079,0.01637 l -1.48556,0.338125 c -24.003095,5.065504 -41.80497,32.652519 -41.80497,64.810469 0,19.89219 12.369638,36.26494 27.409383,36.26494 h 78.510367 c 15.03951,0 27.41559,-16.36978 27.41559,-36.26494 0,-32.15819 -17.8034,-59.74251 -41.80498,-64.810469 l -1.49485,-0.340171 c -0.007,-0.001 -0.0144,-0.0031 -0.0216,-0.0042 -0.0182,-0.0031 -0.036,-0.0063 -0.0542,-0.01049 -7.72552,-1.631816 -15.5122,-2.424222 -23.29039,-2.424222 z m 88.47404,17.063799 c -0.0478,1.67e-4 -0.0948,5.77e-4 -0.14251,0.0021 -0.008,1.78e-4 -5.88724,0.134727 -9.42615,0.514348 -2.03661,0.218495 -4.06789,0.50501 -6.09252,0.856575 -1.7927,0.310814 -3.47779,1.597004 -4.57908,3.493901 -1.10127,1.896906 -1.60487,4.380755 -1.36938,6.752161 0.23541,2.371071 1.20728,4.599093 2.64118,6.055433 1.43389,1.45634 3.31185,2.12306 5.10421,1.8115 1.80209,-0.3129 3.60577,-0.56661 5.41093,-0.76026 2.41074,-0.25861 8.38854,-0.45307 8.51218,-0.45698 5.57398,0.004 11.14188,0.57722 16.65259,1.73979 0.002,7.2e-4 0.006,0.001 0.008,0.002 l 1.21448,0.27254 c 0.004,7.2e-4 0.007,0.001 0.0109,0.002 0.0198,0.004 0.039,0.008 0.0589,0.0123 13.27311,2.80784 23.04874,17.96321 23.04874,35.74444 0,6.93218 -4.31134,12.63544 -9.55163,12.63544 h -44.81791 c -1.8077,0 -3.60447,0.9833 -4.8827,2.67422 -1.27824,1.69093 -2.02155,4.0678 -2.02155,6.45912 0,2.39133 0.74331,4.76821 2.02155,6.45912 1.27823,1.69093 3.075,2.67423 4.8827,2.67423 h 44.81791 c 12.81555,0 23.3601,-13.94896 23.3601,-30.90213 0,-26.68226 -14.77451,-49.580535 -34.69006,-53.785718 l -1.20052,-0.270493 c -0.004,-7.24e-4 -0.007,-0.001 -0.0109,-0.0021 -0.0166,-0.0031 -0.0328,-0.0073 -0.0496,-0.01049 l -0.009,-0.0021 c -6.12472,-1.293041 -12.29895,-1.919863 -18.46501,-1.9488 h -0.002 c 0.18721,7.66e-4 0.22222,-0.0021 -0.0186,-0.0021 -0.13268,-0.0107 -0.2652,-0.01994 -0.39812,-0.02046 -0.002,0 -0.003,0 -0.005,0 h -0.009 c -8e-4,0 -0.002,0 -0.003,0 z m -88.47404,1.202894 h 0.005 c 7.06922,0 14.12539,0.721365 21.11083,2.196757 0.0533,0.01112 0.10715,0.01731 0.1611,0.01847 h -0.0743 l 1.41121,0.321725 c 0.007,0.0011 0.0144,0.0031 0.0217,0.0042 0.0192,0.0042 0.0381,0.0063 0.0573,0.01049 17.36334,3.667291 30.16984,23.513572 30.16984,46.771242 0,9.87196 -6.14433,17.99824 -13.60711,17.99824 H 88.180548 c -7.462795,0 -13.600907,-8.12378 -13.600907,-17.99824 0,-23.2573 12.804043,-43.105116 30.166749,-46.771242 0.0267,-0.0052 0.0539,-0.01049 0.0806,-0.01637 h 0.002 l 1.49486,-0.338115 0.0124,-0.0021 c 6.98041,-1.472737 14.03591,-2.1947 21.09998,-2.1947 z"
       sodipodi:nodetypes="sssssssssssssssssssscccccssssccccccccscscscsccccccsssssssssccsccsccssscccsccccccssssccccccc" />
  </g>
</svg>
