<?xml version="1.0" encoding="UTF-8" standalone="no"?>
<svg
   xmlns:dc="http://purl.org/dc/elements/1.1/"
   xmlns:cc="http://creativecommons.org/ns#"
   xmlns:rdf="http://www.w3.org/1999/02/22-rdf-syntax-ns#"
   xmlns:svg="http://www.w3.org/2000/svg"
   xmlns="http://www.w3.org/2000/svg"
   xmlns:sodipodi="http://sodipodi.sourceforge.net/DTD/sodipodi-0.dtd"
   xmlns:inkscape="http://www.inkscape.org/namespaces/inkscape"
   width="210mm"
   height="210mm"
   viewBox="0 0 210 210"
   version="1.1"
   id="svg1491"
   inkscape:version="1.0.2-2 (e86c870879, 2021-01-15)"
   sodipodi:docname="dial - Copy.svg">
  <defs
     id="defs1485" />
  <sodipodi:namedview
     id="base"
     pagecolor="#ffffff"
     bordercolor="#666666"
     borderopacity="1.0"
     inkscape:pageopacity="0.0"
     inkscape:pageshadow="2"
     inkscape:zoom="0.175"
     inkscape:cx="-1402.8571"
     inkscape:cy="282.85714"
     inkscape:document-units="mm"
     inkscape:current-layer="layer1"
     inkscape:document-rotation="0"
     showgrid="false"
     fit-margin-top="0"
     fit-margin-left="0"
     fit-margin-right="0"
     fit-margin-bottom="0"
     inkscape:window-width="1920"
     inkscape:window-height="1017"
     inkscape:window-x="-8"
     inkscape:window-y="-8"
     inkscape:window-maximized="1"
     inkscape:pagecheckerboard="0" />
  <metadata
     id="metadata1488">
    <rdf:RDF>
      <cc:Work
         rdf:about="">
        <dc:format>image/svg+xml</dc:format>
        <dc:type
           rdf:resource="http://purl.org/dc/dcmitype/StillImage" />
        <dc:title />
      </cc:Work>
    </rdf:RDF>
  </metadata>
  <g
     inkscape:label="Layer 1"
     inkscape:groupmode="layer"
     id="layer1"
     transform="translate(-443.97837,-79.140122)">
    <g
       id="g3658"
       style="fill:#ff5778;fill-opacity:1"
       transform="matrix(0,0.86089032,-0.86464754,0,653.48403,80.0942)"
       inkscape:export-xdpi="97"
       inkscape:export-ydpi="97">
      <path
         id="path3652"
         style="fill:#ff5778;fill-opacity:1;stroke-width:0.422957"
         transform="matrix(2.3643079,0,0,2.3643079,9094.4997,-3920.5895)"
         d="m -3828.1074,1657.998 c -3.0038,0 -5.8506,1.1593 -8.0313,3.2579 0,0 -0.01,0.01 -0.014,0.012 -1.3634,1.1024 -7.7543,6.8045 -10.1446,18.4804 -1.6815,8.2113 -0.5811,16.2982 3.7031,25.0586 4.2843,8.7605 11.7377,18.2078 22.7774,29.252 24.7058,24.6981 45.8665,26.6641 51.8242,26.6641 1.2382,0 1.9909,-0.077 2.2051,-0.1016 11.6054,-1.3604 15.9045,-6.6165 18.9062,-10.3399 4.0162,-4.9826 4.0218,-11.6231 -0.068,-15.7285 l -14.7774,-14.7832 c -2.072,-2.0615 -4.8547,-3.1992 -7.8144,-3.1992 -3.0786,0 -5.9924,1.2176 -8.1875,3.414 l -5.4981,5.4961 c -4.4281,-2.4672 -10.1758,-5.8223 -16.1679,-11.8144 -5.9858,-5.9879 -9.3434,-11.7222 -11.8223,-16.1719 l 5.5039,-5.4981 c 4.456,-4.4652 4.5531,-11.652 0.1953,-16.0058 l -14.7734,-14.7735 c -2.0667,-2.0723 -4.8492,-3.2168 -7.8164,-3.2168 z m 0,7.2852 c 1.0312,0 1.9681,0.3818 2.6621,1.0781 l 14.7793,14.7793 c 1.508,1.5065 1.4409,4.0615 -0.1992,5.7051 l -6.5118,6.5059 a 0.46991904,0.46991904 0 0 0 -0.01,0.01 l -0.1074,0.1114 a 0.46991904,0.46991904 0 0 0 -0.01,0.01 c -1.8497,2.0374 -1.646,4.7863 -0.625,6.586 4e-4,7e-4 0,0 0,0 2e-4,5e-4 -3e-4,0 0,0 2.697,4.8671 6.4225,11.5883 13.5761,18.7441 7.131,7.131 13.8435,10.8548 18.6973,13.5469 0.5313,0.2983 1.6066,0.791 2.9766,0.791 1.6052,0 3.0951,-0.6871 4.1835,-1.9102 l 0.021,-0.021 6.0899,-6.0879 c 0.8282,-0.8285 1.9022,-1.2774 3.0371,-1.2774 1.0339,0 1.9763,0.3844 2.668,1.0723 l 14.7675,14.7734 c 0.8306,0.8336 1.0664,1.8496 0.9317,2.9297 -0.1348,1.0802 -0.6694,2.2024 -1.377,3.0801 -2.8216,3.4996 -5.2796,6.6455 -14.084,7.6777 0,2e-4 -0.01,0 -0.014,0 -0.013,0 -0.032,0 -0.061,0.01 -0.056,0 -0.1413,0.011 -0.2559,0.018 -0.2292,0.013 -0.5742,0.025 -1.0254,0.025 -5.1322,0 -23.8615,-1.7241 -46.6738,-24.5293 -10.1437,-10.1479 -16.9766,-18.6889 -20.9102,-26.377 -3.9335,-7.688 -4.9802,-14.5049 -3.584,-21.3242 2.0387,-9.9581 7.4336,-14.1628 7.5957,-14.2871 l 0.01,-0.01 0.1816,-0.1329 a 0.46991904,0.46991904 0 0 0 0.057,-0.049 l 0.1661,-0.1679 c 0.8333,-0.8316 1.9095,-1.2813 3.0449,-1.2813 z m 43.5097,1.9492 c -1.6889,0.147 -3.096,1.4697 -3.2968,3.2129 -0.2296,1.9924 1.2081,3.8056 3.2011,4.0352 5.3064,0.6106 11.6677,3.8704 16.0723,8.2754 4.4459,4.4459 7.715,10.872 8.2969,16.2363 0.2019,1.8607 1.7804,3.25 3.6152,3.25 0.1403,0 0.2696,-0.011 0.3867,-0.021 a 0.46991904,0.46991904 0 0 0 0.01,0 c 1.9942,-0.2166 3.445,-2.0194 3.2285,-4.0137 -0.7706,-7.1012 -4.7427,-14.9551 -10.3867,-20.5996 -5.5915,-5.5919 -13.3655,-9.5527 -20.3906,-10.3614 -0.2486,-0.028 -0.4952,-0.032 -0.7364,-0.012 z m -2.9648,13.2871 c -1.6903,0.1465 -3.0961,1.47 -3.2969,3.2129 -0.229,1.9927 1.2086,3.8036 3.2012,4.0332 2.7691,0.319 6.8296,2.4702 9.4238,5.0644 2.6163,2.6167 4.7711,6.7142 5.0742,9.5137 0.202,1.8615 1.7826,3.25 3.6172,3.25 0.1406,0 0.2674,-0.012 0.3789,-0.02 a 0.46991904,0.46991904 0 0 0 0.018,0 c 1.9943,-0.2164 3.443,-2.0196 3.2266,-4.0137 -0.5699,-5.2561 -3.9915,-10.7045 -7.166,-13.8789 -3.1458,-3.1462 -8.5369,-6.5511 -13.7364,-7.1504 -0.249,-0.028 -0.4968,-0.032 -0.7383,-0.012 z" />
    </g>
  </g>
</svg>
