<?xml version="1.0" encoding="UTF-8" standalone="no"?>
<svg
   width="210mm"
   height="210mm"
   viewBox="0 0 210 210"
   version="1.1"
   id="svg1491"
   inkscape:version="1.1 (c68e22c387, 2021-05-23)"
   sodipodi:docname="List_line.svg"
   xmlns:inkscape="http://www.inkscape.org/namespaces/inkscape"
   xmlns:sodipodi="http://sodipodi.sourceforge.net/DTD/sodipodi-0.dtd"
   xmlns="http://www.w3.org/2000/svg"
   xmlns:svg="http://www.w3.org/2000/svg"
   xmlns:rdf="http://www.w3.org/1999/02/22-rdf-syntax-ns#"
   xmlns:cc="http://creativecommons.org/ns#"
   xmlns:dc="http://purl.org/dc/elements/1.1/">
  <defs
     id="defs1485" />
  <sodipodi:namedview
     id="base"
     pagecolor="#ffffff"
     bordercolor="#666666"
     borderopacity="1.0"
     inkscape:pageopacity="0.0"
     inkscape:pageshadow="2"
     inkscape:zoom="0.175"
     inkscape:cx="-974.28571"
     inkscape:cy="391.42857"
     inkscape:document-units="mm"
     inkscape:current-layer="layer1"
     inkscape:document-rotation="0"
     showgrid="false"
     fit-margin-top="0"
     fit-margin-left="0"
     fit-margin-right="0"
     fit-margin-bottom="0"
     inkscape:window-width="1366"
     inkscape:window-height="705"
     inkscape:window-x="-8"
     inkscape:window-y="-8"
     inkscape:window-maximized="1"
     inkscape:pagecheckerboard="0" />
  <metadata
     id="metadata1488">
    <rdf:RDF>
      <cc:Work
         rdf:about="">
        <dc:format>image/svg+xml</dc:format>
        <dc:type
           rdf:resource="http://purl.org/dc/dcmitype/StillImage" />
        <dc:title />
      </cc:Work>
    </rdf:RDF>
  </metadata>
  <g
     inkscape:label="Layer 1"
     inkscape:groupmode="layer"
     id="layer1"
     transform="translate(-839.38281,-80.396166)">
    <g
       id="_x31_"
       transform="matrix(8.6329883,0,0,8.6329883,-663.92316,83.022597)"
       inkscape:export-xdpi="97"
       inkscape:export-ydpi="97">
      <g
         id="g3796"
         transform="translate(174.29771,-0.14157256)">
        <path
           id="path3759"
           sodipodi:type="inkscape:offset"
           inkscape:radius="-0.088579051"
           inkscape:original="M 6 0 C 2.686 0 0 2.686 0 6 L 0 18 C 0 21.314 2.686 24 6 24 L 18 24 C 21.314 24 24 21.314 24 18 L 24 6 C 24 2.686 21.314 0 18 0 L 6 0 z M 6 2 L 18 2 C 20.206 2 22 3.794 22 6 L 22 18 C 22 20.206 20.206 22 18 22 L 6 22 C 3.794 22 2 20.206 2 18 L 2 6 C 2 3.794 3.794 2 6 2 z "
           style="fill:#00467a;fill-opacity:1"
           transform="matrix(1.0210323,0,0,1.0210323,-0.25238463,-0.25239862)"
           d="M 6,0.08789062 C 2.7338623,0.08789062 0.08789062,2.7338623 0.08789062,6 v 12 c 0,3.266138 2.64597168,5.912109 5.91210938,5.912109 h 12 c 3.266138,0 5.912109,-2.645971 5.912109,-5.912109 V 6 C 23.912109,2.7338623 21.266138,0.08789062 18,0.08789062 Z M 6,1.9121094 h 12 c 2.254024,0 4.087891,1.8338668 4.087891,4.0878906 v 12 c 0,2.254024 -1.833867,4.087891 -4.087891,4.087891 H 6 C 3.7459762,22.087891 1.9121094,20.254024 1.9121094,18 V 6 C 1.9121094,3.7459762 3.7459762,1.9121094 6,1.9121094 Z" />
        <path
           d="M 17.105162,13.021032 H 6.8948384 C 6.3312285,13.021032 5.873806,12.56361 5.873806,12 c 0,-0.56361 0.4574225,-1.021032 1.0210324,-1.021032 H 17.105162 c 0.564631,0 1.021032,0.457422 1.021032,1.021032 0,0.56361 -0.456401,1.021032 -1.021032,1.021032 z"
           id="path3762"
           style="fill:#00467a;fill-opacity:1;stroke-width:1.02103"
           transform="translate(-4.6030859e-6)" />
        <path
           d="M 17.105162,7.9158707 H 6.8948384 c -0.5636099,0 -1.0210324,-0.4574225 -1.0210324,-1.0210323 0,-0.5636099 0.4574225,-1.0210324 1.0210324,-1.0210324 H 17.105162 c 0.564631,0 1.021032,0.4574225 1.021032,1.0210324 0,0.5636098 -0.456401,1.0210323 -1.021032,1.0210323 z"
           id="path3765"
           style="fill:#00467a;fill-opacity:1;stroke-width:1.02103"
           transform="translate(-4.6030859e-6)" />
        <path
           d="M 14.24863,18.126194 H 6.8948384 c -0.5636099,0 -1.0210324,-0.456401 -1.0210324,-1.021032 0,-0.564631 0.4574225,-1.021033 1.0210324,-1.021033 H 14.24863 c 0.564631,0 1.021032,0.456402 1.021032,1.021033 0,0.564631 -0.456401,1.021032 -1.021032,1.021032 z"
           id="path3768"
           sodipodi:nodetypes="sssssss"
           style="fill:#00467a;fill-opacity:1;stroke-width:1.02103" />
      </g>
    </g>
  </g>
</svg>
