<?xml version="1.0" encoding="UTF-8" standalone="no"?>
<svg
   xmlns:dc="http://purl.org/dc/elements/1.1/"
   xmlns:cc="http://creativecommons.org/ns#"
   xmlns:rdf="http://www.w3.org/1999/02/22-rdf-syntax-ns#"
   xmlns:svg="http://www.w3.org/2000/svg"
   xmlns="http://www.w3.org/2000/svg"
   xmlns:sodipodi="http://sodipodi.sourceforge.net/DTD/sodipodi-0.dtd"
   xmlns:inkscape="http://www.inkscape.org/namespaces/inkscape"
   width="94.662827mm"
   height="94.653831mm"
   viewBox="0 0 94.662831 94.653836"
   version="1.1"
   id="svg261"
   inkscape:version="1.0.2-2 (e86c870879, 2021-01-15)"
   sodipodi:docname="LogOut.svg">
  <defs
     id="defs255" />
  <sodipodi:namedview
     id="base"
     pagecolor="#ffffff"
     bordercolor="#666666"
     borderopacity="1.0"
     inkscape:pageopacity="0.0"
     inkscape:pageshadow="2"
     inkscape:zoom="0.35"
     inkscape:cx="201.7473"
     inkscape:cy="234.60084"
     inkscape:document-units="mm"
     inkscape:current-layer="layer1"
     inkscape:document-rotation="0"
     showgrid="false"
     inkscape:window-width="1920"
     inkscape:window-height="1017"
     inkscape:window-x="-8"
     inkscape:window-y="-8"
     inkscape:window-maximized="1"
     inkscape:snap-page="true"
     inkscape:pagecheckerboard="0" />
  <metadata
     id="metadata258">
    <rdf:RDF>
      <cc:Work
         rdf:about="">
        <dc:format>image/svg+xml</dc:format>
        <dc:type
           rdf:resource="http://purl.org/dc/dcmitype/StillImage" />
        <dc:title />
      </cc:Work>
    </rdf:RDF>
  </metadata>
  <g
     inkscape:label="Layer 1"
     inkscape:groupmode="layer"
     id="layer1"
     transform="translate(74.059325,93.335228)">
    <path
       id="path52"
       style="text-decoration:none;text-decoration-line:none;fill:#00467a;fill-opacity:1;stroke-width:4.46102"
       sodipodi:type="inkscape:offset"
       inkscape:radius="-0.05697209"
       inkscape:original="M -538.00195 922.93359 A 0.99553417 0.9999265 0 0 0 -538.98828 923.94531 L -538.98828 931.94531 A 0.99640657 1.0008028 0 0 0 -536.99414 931.94531 L -536.99414 923.94531 A 0.99553417 0.9999265 0 0 0 -538.00195 922.93359 z M -532.19531 924.93945 A 0.99553417 0.9999265 0 0 0 -532.29102 924.94141 A 0.99553417 0.9999265 0 0 0 -532.84375 926.70703 C -531.11943 928.17779 -530.02931 930.36601 -530.0293 932.82422 C -530.02929 937.26286 -533.57716 940.8418 -537.98633 940.8418 C -542.3955 940.8418 -545.95118 937.26286 -545.95117 932.82422 C -545.95116 930.38023 -544.87504 928.20689 -543.16797 926.73633 A 0.99567317 1.0000661 0 1 0 -544.46094 925.21484 C -546.5919 927.05057 -547.9453 929.78618 -547.94531 932.82422 C -547.94532 938.34177 -543.47322 942.83984 -537.98633 942.83984 C -532.49943 942.83984 -528.03711 938.34177 -528.03711 932.82422 C -528.03713 929.76847 -529.40405 927.02159 -531.55664 925.18555 A 0.99553417 0.9999265 0 0 0 -532.19531 924.93945 z "
       transform="matrix(4.7821776,0,0,4.7821776,2546.0416,-4507.2381)"
       inkscape:export-xdpi="97"
       inkscape:export-ydpi="97"
       d="m -538.00195,922.99023 c -0.24606,0.002 -0.48988,0.10655 -0.66211,0.28321 -0.17223,0.17666 -0.2705,0.42454 -0.26758,0.67187 v 8 c 0,0.24734 0.10134,0.49315 0.27539,0.66797 0.17405,0.17482 0.41996,0.27735 0.66602,0.27734 0.24605,0 0.49,-0.10252 0.66406,-0.27734 0.17405,-0.17482 0.27539,-0.42063 0.27539,-0.66797 v -8 c 0.003,-0.25073 -0.0989,-0.5025 -0.27539,-0.67969 -0.1765,-0.17718 -0.42636,-0.27849 -0.67578,-0.27539 z m 5.80468,2.00586 c -0.0301,-8.3e-4 -0.0598,-1.1e-4 -0.0898,0.002 -0.18425,0.0155 -0.36341,0.087 -0.50781,0.20312 -0.1444,0.11609 -0.25309,0.27583 -0.3086,0.45313 -0.0555,0.17729 -0.0562,0.3725 -0.004,0.55078 0.0523,0.17827 0.1585,0.34028 0.30078,0.45898 1.73653,1.48118 2.83397,3.68511 2.83398,6.16016 10e-6,4.469 -3.57367,8.07422 -8.01367,8.07422 -4.44,0 -8.02149,-3.60516 -8.02148,-8.07422 10e-6,-2.46071 1.0836,-4.64991 2.80273,-6.13086 0.18696,-0.16028 0.30681,-0.39635 0.32617,-0.64258 0.0194,-0.24623 -0.0611,-0.49969 -0.2207,-0.6875 -0.1596,-0.1878 -0.39567,-0.30869 -0.64062,-0.32812 -0.24496,-0.0194 -0.49664,0.0624 -0.6836,0.22265 -2.11879,1.82525 -3.46483,4.54529 -3.46484,7.56641 -10e-6,5.48676 4.44659,9.95898 9.90234,9.95898 5.45577,0 9.89258,-4.47215 9.89258,-9.95898 -2e-5,-3.03876 -1.3597,-5.77014 -3.5,-7.5957 -0.16542,-0.14486 -0.38221,-0.22899 -0.60156,-0.23243 a 0.05697779,0.05697779 0 0 1 -0.002,0 z" />
  </g>
</svg>
