<?xml version="1.0" encoding="UTF-8" standalone="no"?>
<svg
   xmlns:dc="http://purl.org/dc/elements/1.1/"
   xmlns:cc="http://creativecommons.org/ns#"
   xmlns:rdf="http://www.w3.org/1999/02/22-rdf-syntax-ns#"
   xmlns:svg="http://www.w3.org/2000/svg"
   xmlns="http://www.w3.org/2000/svg"
   width="111.68671mm"
   height="131.00543mm"
   viewBox="0 0 111.68672 131.00543"
   version="1.1"
   id="svg1374">
  <defs
     id="defs1368" />
  <metadata
     id="metadata1371">
    <rdf:RDF>
      <cc:Work
         rdf:about="">
        <dc:format>image/svg+xml</dc:format>
        <dc:type
           rdf:resource="http://purl.org/dc/dcmitype/StillImage" />
        <dc:title></dc:title>
      </cc:Work>
    </rdf:RDF>
  </metadata>
  <g
     id="layer1"
     transform="translate(-618.87069,-224.0072)">
    <g
       id="g2227"
       transform="matrix(1.8382209,0,0,1.8382209,-1079.642,529.82814)">
      <g
         id="g2709">
        <path
           id="path2234"
           style="color:#000000;font-style:normal;font-variant:normal;font-weight:normal;font-stretch:normal;font-size:medium;line-height:normal;font-family:sans-serif;font-variant-ligatures:normal;font-variant-position:normal;font-variant-caps:normal;font-variant-numeric:normal;font-variant-alternates:normal;font-variant-east-asian:normal;font-feature-settings:normal;font-variation-settings:normal;text-indent:0;text-align:start;text-decoration:none;text-decoration-line:none;text-decoration-style:solid;text-decoration-color:#000000;letter-spacing:normal;word-spacing:normal;text-transform:none;writing-mode:lr-tb;direction:ltr;text-orientation:mixed;dominant-baseline:auto;baseline-shift:baseline;text-anchor:start;white-space:normal;shape-padding:0;shape-margin:0;inline-size:0;clip-rule:nonzero;display:inline;overflow:visible;visibility:visible;isolation:auto;mix-blend-mode:normal;color-interpolation:sRGB;color-interpolation-filters:linearRGB;solid-color:#000000;solid-opacity:1;vector-effect:none;fill:#00467a;fill-opacity:1;fill-rule:nonzero;stroke:none;stroke-width:2.28257;stroke-linecap:round;stroke-linejoin:round;stroke-miterlimit:4;stroke-dasharray:none;stroke-dashoffset:0;stroke-opacity:1;color-rendering:auto;image-rendering:auto;shape-rendering:auto;text-rendering:auto;enable-background:accumulate;stop-color:#000000"
           d="m 1796.0742,-114.39062 c -65.4548,0 -118.9297,53.342215 -118.9297,118.6328075 0,65.2908605 53.4746,118.6328125 118.9297,118.6328125 65.4551,0 118.9278,-53.342019 118.9278,-118.6328125 0,-65.2905255 -53.4729,-118.6328075 -118.9278,-118.6328075 z m -0.01,249.17968 c -24.7833,1e-4 -49.5986,1.90811 -74.2031,5.82617 -0.062,0.0184 -0.1238,0.0202 -0.1856,0.0312 a 1.3005185,1.2972547 0 0 0 -0.019,0 l -4.8457,0.82422 c -75.6924,12.05211 -131.8105,77.6529 -131.8105,154.11719 0,46.71802 38.54,85.16016 85.3769,85.16016 h 251.3691 c 46.8364,0 85.377,-38.44122 85.377,-85.16016 0,-76.46833 -56.127,-142.06751 -131.8203,-154.12109 l -4.832,-0.82032 a 1.3005185,1.2972547 0 0 0 -0.02,0 c -0.068,-0.0184 -0.1342,-0.0222 -0.2011,-0.0332 -24.6007,-3.91751 -49.4065,-5.82412 -74.1836,-5.82422 z m -0.018,39.31641 c 22.7418,0 45.4577,1.74984 67.9395,5.32812 l 4.8789,0.82618 a 1.3005185,1.2972547 0 0 0 0.018,0 c 0.064,0.0184 0.13,0.0185 0.1953,0.0332 5.7323,0.91268 11.3042,2.25438 16.7051,3.94922 l -76.8067,76.79297 c -7.1428,7.14038 -18.7224,7.14038 -25.8652,0 l -76.7949,-76.79688 c 5.4029,-1.69539 10.9742,-3.03263 16.7089,-3.94531 0.064,-0.0184 0.1322,-0.0185 0.1973,-0.0332 a 1.3005185,1.2972547 0 0 0 0.018,0 l 4.834,-0.82227 h 0.029 a 1.3005185,1.2972547 0 0 0 0.022,0 c 22.4672,-3.57534 45.1694,-5.32422 67.8964,-5.32422 z"
           transform="matrix(0.14393446,0,0,0.14393446,695.86173,-149.90314)" />
      </g>
      <path
         style="color:#000000;font-style:normal;font-variant:normal;font-weight:normal;font-stretch:normal;font-size:medium;line-height:normal;font-family:sans-serif;font-variant-ligatures:normal;font-variant-position:normal;font-variant-caps:normal;font-variant-numeric:normal;font-variant-alternates:normal;font-variant-east-asian:normal;font-feature-settings:normal;font-variation-settings:normal;text-indent:0;text-align:start;text-decoration:none;text-decoration-line:none;text-decoration-style:solid;text-decoration-color:#000000;letter-spacing:normal;word-spacing:normal;text-transform:none;writing-mode:lr-tb;direction:ltr;text-orientation:mixed;dominant-baseline:auto;baseline-shift:baseline;text-anchor:start;white-space:normal;shape-padding:0;shape-margin:0;inline-size:0;clip-rule:nonzero;display:inline;overflow:visible;visibility:visible;isolation:auto;mix-blend-mode:normal;color-interpolation:sRGB;color-interpolation-filters:linearRGB;solid-color:#000000;solid-opacity:1;vector-effect:none;fill:#00467a;fill-opacity:1;fill-rule:nonzero;stroke:none;stroke-width:3.40157;stroke-linecap:round;stroke-linejoin:round;stroke-miterlimit:4;stroke-dasharray:none;stroke-dashoffset:0;stroke-opacity:1;color-rendering:auto;image-rendering:auto;shape-rendering:auto;text-rendering:auto;enable-background:accumulate;stop-color:#000000"
         d="m 2690.8086,-1394.3418 c 65.7144,0 118.332,52.6233 118.332,118.3379 0,65.7151 -52.618,118.3379 -118.332,118.3379 -65.7142,0 -118.3359,-52.6229 -118.3359,-118.3379 0,-65.7145 52.6214,-118.3379 118.3359,-118.3379 z"
         transform="matrix(0.09670665,0,0,0.09646395,694.1597,-26.204164)"
         id="path2232" />
    </g>
  </g>
</svg>
