<?xml version="1.0" encoding="UTF-8" standalone="no"?>
<svg
   xmlns:dc="http://purl.org/dc/elements/1.1/"
   xmlns:cc="http://creativecommons.org/ns#"
   xmlns:rdf="http://www.w3.org/1999/02/22-rdf-syntax-ns#"
   xmlns:svg="http://www.w3.org/2000/svg"
   xmlns="http://www.w3.org/2000/svg"
   width="111.68736mm"
   height="131.00636mm"
   viewBox="0 0 111.68738 131.00636"
   version="1.1"
   id="svg1374">
  <defs
     id="defs1368" />
  <metadata
     id="metadata1371">
    <rdf:RDF>
      <cc:Work
         rdf:about="">
        <dc:format>image/svg+xml</dc:format>
        <dc:type
           rdf:resource="http://purl.org/dc/dcmitype/StillImage" />
        <dc:title></dc:title>
      </cc:Work>
    </rdf:RDF>
  </metadata>
  <g
     id="layer1"
     transform="translate(112.85796,-224.00739)">
    <g
       id="g1348"
       transform="matrix(1.8382209,0,0,1.8382209,-1811.3714,529.82814)">
      <path
         id="path877"
         style="color:#000000;font-style:normal;font-variant:normal;font-weight:normal;font-stretch:normal;font-size:medium;line-height:normal;font-family:sans-serif;font-variant-ligatures:normal;font-variant-position:normal;font-variant-caps:normal;font-variant-numeric:normal;font-variant-alternates:normal;font-variant-east-asian:normal;font-feature-settings:normal;font-variation-settings:normal;text-indent:0;text-align:start;text-decoration:none;text-decoration-line:none;text-decoration-style:solid;text-decoration-color:#000000;letter-spacing:normal;word-spacing:normal;text-transform:none;writing-mode:lr-tb;direction:ltr;text-orientation:mixed;dominant-baseline:auto;baseline-shift:baseline;text-anchor:start;white-space:normal;shape-padding:0;shape-margin:0;inline-size:0;clip-rule:nonzero;display:inline;overflow:visible;visibility:visible;isolation:auto;mix-blend-mode:normal;color-interpolation:sRGB;color-interpolation-filters:linearRGB;solid-color:#000000;solid-opacity:1;vector-effect:none;fill:#00467a;fill-opacity:1;fill-rule:nonzero;stroke:none;stroke-width:3.40157;stroke-linecap:round;stroke-linejoin:round;stroke-miterlimit:4;stroke-dasharray:none;stroke-dashoffset:0;stroke-opacity:1;color-rendering:auto;image-rendering:auto;shape-rendering:auto;text-rendering:auto;enable-background:accumulate;stop-color:#000000"
         transform="matrix(0.09670665,0,0,0.09646395,694.1597,-26.204164)"
         d="m 2690.8086,-1453.0156 c -97.4205,0 -177.0117,79.5912 -177.0117,177.0117 0,97.4209 79.5908,177.0117 177.0117,177.0117 97.4208,0 177.0059,-79.5909 177.0059,-177.0117 0,-97.4204 -79.5854,-177.0117 -177.0059,-177.0117 z m 0,58.6738 c 65.7144,0 118.332,52.6233 118.332,118.3379 0,65.7151 -52.618,118.3379 -118.332,118.3379 -65.7142,0 -118.3359,-52.6229 -118.3359,-118.3379 0,-65.7145 52.6214,-118.3379 118.3359,-118.3379 z m -0.01,313.1289 c -36.8873,0 -73.8218,2.8449 -110.4433,8.6914 -0.093,0.014 -0.1862,0.028 -0.2793,0.043 a 1.9356418,1.9356418 0 0 0 -0.021,0 l -7.2129,1.2324 c -112.6577,17.9831 -196.1816,115.86406 -196.1816,229.95704 0,69.7082 57.364,127.07422 127.0742,127.07422 h 374.1289 c 69.7095,0 127.0722,-57.3647 127.0722,-127.07422 0,-114.09905 -83.5382,-211.97374 -196.1972,-229.95894 l -7.1953,-1.2305 a 1.9356418,1.9356418 0 0 0 -0.024,-0 c -0.1003,-0.016 -0.2003,-0.03 -0.3007,-0.045 -36.6157,-5.8454 -73.5359,-8.6895 -110.4141,-8.6895 z m -0.064,58.6758 a 1.9356418,1.9356418 0 0 0 0.01,0 1.9356418,1.9356418 0 0 0 0.055,0 h 0.01 c 33.8479,0 67.6541,2.6081 101.1152,7.9473 l 7.2598,1.2363 a 1.9356418,1.9356418 0 0 0 0.016,0 c 0.097,0.016 0.1937,0.032 0.291,0.047 84.4523,13.48005 146.7754,86.50198 146.7754,172.01954 0,37.52259 -30.8759,68.40039 -68.3984,68.40039 h -374.1289 c -37.5218,0 -68.4004,-30.88041 -68.4004,-68.40039 0,-85.51827 62.3221,-158.54674 146.7754,-172.01954 0.097,-0.015 0.1938,-0.031 0.291,-0.047 a 1.9356418,1.9356418 0 0 0 0.018,-0 l 7.1914,-1.2285 0.045,-0.01 a 1.9356418,1.9356418 0 0 0 0.022,-0 c 33.4395,-5.3348 67.2287,-7.9418 101.0547,-7.9453 z" />
      <path
         style="color:#000000;font-style:normal;font-variant:normal;font-weight:normal;font-stretch:normal;font-size:medium;line-height:normal;font-family:sans-serif;font-variant-ligatures:normal;font-variant-position:normal;font-variant-caps:normal;font-variant-numeric:normal;font-variant-alternates:normal;font-variant-east-asian:normal;font-feature-settings:normal;font-variation-settings:normal;text-indent:0;text-align:start;text-decoration:none;text-decoration-line:none;text-decoration-style:solid;text-decoration-color:#000000;letter-spacing:normal;word-spacing:normal;text-transform:none;writing-mode:lr-tb;direction:ltr;text-orientation:mixed;dominant-baseline:auto;baseline-shift:baseline;text-anchor:start;white-space:normal;shape-padding:0;shape-margin:0;inline-size:0;clip-rule:nonzero;display:inline;overflow:visible;visibility:visible;opacity:1;isolation:auto;mix-blend-mode:normal;color-interpolation:sRGB;color-interpolation-filters:linearRGB;solid-color:#000000;solid-opacity:1;vector-effect:none;fill:#00467a;fill-opacity:1;fill-rule:nonzero;stroke:none;stroke-linecap:butt;stroke-linejoin:round;stroke-miterlimit:4;stroke-dasharray:none;stroke-dashoffset:0;stroke-opacity:1;color-rendering:auto;image-rendering:auto;shape-rendering:auto;text-rendering:auto;enable-background:accumulate;stop-color:#000000;stop-opacity:1"
         d="m 944.47852,-127.8126 -3.72266,3.72266 11.75976,11.75977 c 1.02809,1.02774 2.69457,1.02774 3.72266,0 L 968,-124.08994 l -3.72461,-3.72266 -9.89844,1.61308 z"
         id="path1340" />
    </g>
  </g>
</svg>
