<?xml version="1.0" encoding="UTF-8" standalone="no"?>
<svg
   xmlns:dc="http://purl.org/dc/elements/1.1/"
   xmlns:cc="http://creativecommons.org/ns#"
   xmlns:rdf="http://www.w3.org/1999/02/22-rdf-syntax-ns#"
   xmlns:svg="http://www.w3.org/2000/svg"
   xmlns="http://www.w3.org/2000/svg"
   xmlns:sodipodi="http://sodipodi.sourceforge.net/DTD/sodipodi-0.dtd"
   xmlns:inkscape="http://www.inkscape.org/namespaces/inkscape"
   width="96.240913mm"
   height="71.39679mm"
   viewBox="0 0 96.240913 71.39679"
   version="1.1"
   id="svg8"
   inkscape:version="1.0.2-2 (e86c870879, 2021-01-15)"
   sodipodi:docname="filter blue line icon.svg">
  <defs
     id="defs2" />
  <sodipodi:namedview
     id="base"
     pagecolor="#ffffff"
     bordercolor="#666666"
     borderopacity="1.0"
     inkscape:pageopacity="0.0"
     inkscape:pageshadow="2"
     inkscape:zoom="0.35000001"
     inkscape:cx="452.3335"
     inkscape:cy="1061.1642"
     inkscape:document-units="mm"
     inkscape:current-layer="layer1"
     inkscape:document-rotation="0"
     showgrid="false"
     inkscape:window-width="1920"
     inkscape:window-height="1017"
     inkscape:window-x="-8"
     inkscape:window-y="-8"
     inkscape:window-maximized="1" />
  <metadata
     id="metadata5">
    <rdf:RDF>
      <cc:Work
         rdf:about="">
        <dc:format>image/svg+xml</dc:format>
        <dc:type
           rdf:resource="http://purl.org/dc/dcmitype/StillImage" />
        <dc:title></dc:title>
      </cc:Work>
    </rdf:RDF>
  </metadata>
  <g
     inkscape:label="Layer 1"
     inkscape:groupmode="layer"
     id="layer1"
     transform="translate(533.45611,907.29751)">
    <g
       id="g1110"
       transform="matrix(1.2644403,0,0,1.2644403,-676.63905,-398.82452)"
       inkscape:export-xdpi="95"
       inkscape:export-ydpi="95">
      <path
         id="rect1072"
         style="fill:#00467a;fill-opacity:1;fill-rule:evenodd;stroke-width:105.261;stroke-linecap:round"
         sodipodi:type="inkscape:offset"
         inkscape:radius="-3.5355024"
         inkscape:original="M 400.83203 -1483.7305 C 391.12838 -1483.7305 383.31641 -1475.9185 383.31641 -1466.2148 C 383.31641 -1456.5112 391.12838 -1448.6992 400.83203 -1448.6992 L 404.06641 -1448.6992 C 413.77006 -1448.6992 421.58203 -1456.5112 421.58203 -1466.2148 C 421.58203 -1475.9185 413.77006 -1483.7305 404.06641 -1483.7305 L 400.83203 -1483.7305 z M 461.80859 -1483.7305 C 452.10491 -1483.7305 444.29297 -1475.9185 444.29297 -1466.2148 C 444.29297 -1456.5112 452.10491 -1448.6992 461.80859 -1448.6992 L 611.34375 -1448.6992 C 621.0474 -1448.6992 628.85937 -1456.5112 628.85938 -1466.2148 C 628.85938 -1475.9185 621.0474 -1483.7305 611.34375 -1483.7305 L 461.80859 -1483.7305 z M 400.83203 -1409.2539 C 391.12838 -1409.2539 383.31641 -1401.4419 383.31641 -1391.7383 C 383.31641 -1382.0347 391.12838 -1374.2227 400.83203 -1374.2227 L 404.06641 -1374.2227 C 413.77006 -1374.2227 421.58203 -1382.0347 421.58203 -1391.7383 C 421.58203 -1401.4419 413.77006 -1409.2539 404.06641 -1409.2539 L 400.83203 -1409.2539 z M 461.80859 -1409.2539 C 452.10491 -1409.2539 444.29297 -1401.4419 444.29297 -1391.7383 C 444.29297 -1382.0347 452.10491 -1374.2227 461.80859 -1374.2227 L 611.34375 -1374.2227 C 621.0474 -1374.2227 628.85937 -1382.0347 628.85938 -1391.7383 C 628.85938 -1401.4419 621.0474 -1409.2539 611.34375 -1409.2539 L 461.80859 -1409.2539 z M 400.83203 -1334.7793 C 391.12838 -1334.7793 383.31641 -1326.9673 383.31641 -1317.2637 C 383.31641 -1307.56 391.12838 -1299.748 400.83203 -1299.748 L 404.06641 -1299.748 C 413.77006 -1299.748 421.58203 -1307.56 421.58203 -1317.2637 C 421.58203 -1326.9673 413.77006 -1334.7793 404.06641 -1334.7793 L 400.83203 -1334.7793 z M 461.80859 -1334.7793 C 452.10491 -1334.7793 444.29297 -1326.9673 444.29297 -1317.2637 C 444.29297 -1307.56 452.10491 -1299.748 461.80859 -1299.748 L 611.34375 -1299.748 C 621.0474 -1299.748 628.85937 -1307.56 628.85938 -1317.2637 C 628.85938 -1326.9673 621.0474 -1334.7793 611.34375 -1334.7793 L 461.80859 -1334.7793 z "
         d="m 400.83203,-1480.1953 c -7.80613,0 -13.98047,6.1743 -13.98047,13.9805 0,7.806 6.17434,13.9804 13.98047,13.9804 h 3.23438 c 7.80612,0 13.98047,-6.1744 13.98047,-13.9804 0,-7.8062 -6.17435,-13.9805 -13.98047,-13.9805 z m 60.97656,0 c -7.80616,0 -13.98047,6.1743 -13.98047,13.9805 0,7.806 6.17431,13.9804 13.98047,13.9804 h 149.53516 c 7.80613,0 13.98046,-6.1744 13.98047,-13.9804 0,-7.8062 -6.17434,-13.9805 -13.98047,-13.9805 z m -60.97656,74.4765 c -7.80613,0 -13.98047,6.1744 -13.98047,13.9805 0,7.8061 6.17434,13.9805 13.98047,13.9805 h 3.23438 c 7.80612,0 13.98047,-6.1744 13.98047,-13.9805 0,-7.8061 -6.17435,-13.9804 -13.98047,-13.9805 z m 60.97656,0 c -7.80616,0 -13.98047,6.1744 -13.98047,13.9805 0,7.8061 6.17431,13.9805 13.98047,13.9805 h 149.53516 c 7.80613,0 13.98046,-6.1744 13.98047,-13.9805 0,-7.8061 -6.17434,-13.9804 -13.98047,-13.9805 z m -60.97656,74.4747 c -7.80613,0 -13.98047,6.1744 -13.98047,13.9804 0,7.8062 6.17434,13.9805 13.98047,13.9805 h 3.23438 c 7.80612,0 13.98047,-6.1743 13.98047,-13.9805 0,-7.806 -6.17435,-13.9804 -13.98047,-13.9804 z m 60.97656,0 c -7.80616,0 -13.98047,6.1743 -13.98047,13.9804 0,7.8062 6.17431,13.9805 13.98047,13.9805 h 149.53516 c 7.80613,0 13.98046,-6.1743 13.98047,-13.9805 0,-7.806 -6.17434,-13.9804 -13.98047,-13.9804 z"
         transform="matrix(0.31917056,0,0,0.31917056,-10.233431,70.301904)" />
      <g
         id="g1099"
         transform="translate(0,-1.228165)">
        <g
           id="g1087" />
        <g
           id="g1091" />
      </g>
    </g>
  </g>
</svg>
