<?xml version="1.0" encoding="UTF-8" standalone="no"?>
<svg
   xmlns:dc="http://purl.org/dc/elements/1.1/"
   xmlns:cc="http://creativecommons.org/ns#"
   xmlns:rdf="http://www.w3.org/1999/02/22-rdf-syntax-ns#"
   xmlns:svg="http://www.w3.org/2000/svg"
   xmlns="http://www.w3.org/2000/svg"
   width="135.57709mm"
   height="104.45062mm"
   viewBox="0 0 135.57711 104.45062"
   version="1.1"
   id="svg1374">
  <defs
     id="defs1368" />
  <metadata
     id="metadata1371">
    <rdf:RDF>
      <cc:Work
         rdf:about="">
        <dc:format>image/svg+xml</dc:format>
        <dc:type
           rdf:resource="http://purl.org/dc/dcmitype/StillImage" />
        <dc:title></dc:title>
      </cc:Work>
    </rdf:RDF>
  </metadata>
  <g
     id="layer1"
     transform="translate(481.04754,-258.27279)">
    <g
       id="g1451"
       transform="matrix(2.1812305,0,0,2.1812305,-745.85835,1118.6094)">
      <rect
         x="134.20685"
         y="-381.62463"
         style="fill:#00467a;fill-opacity:1;stroke-width:3.20063"
         width="32.00634"
         height="6.401268"
         id="rect1392" />
      <rect
         x="134.20685"
         y="-394.42719"
         style="fill:#00467a;fill-opacity:1;stroke-width:3.20063"
         width="32.00634"
         height="6.401268"
         id="rect1396" />
      <polygon
         style="fill:#00467a;fill-opacity:1"
         points="9.012,18 16.108,18 18.118,16 9.012,16 "
         id="polygon1398"
         transform="matrix(3.2006339,0,0,3.2006339,105.36274,-420.03224)" />
      <rect
         x="121.40432"
         y="-381.62463"
         style="fill:#00467a;fill-opacity:1;stroke-width:3.20063"
         width="6.401268"
         height="6.401268"
         id="rect1400" />
      <rect
         x="121.40432"
         y="-394.42719"
         style="fill:#00467a;fill-opacity:1;stroke-width:3.20063"
         width="6.401268"
         height="6.401268"
         id="rect1402" />
      <rect
         x="121.40432"
         y="-368.82211"
         style="fill:#00467a;fill-opacity:1;stroke-width:3.20063"
         width="6.401268"
         height="6.401268"
         id="rect1404" />
      <g
         id="g1440"
         transform="matrix(0.94507397,0,0,0.94507397,10.334843,-22.57038)">
        <path
           style="fill:#00467a;fill-opacity:1;stroke-width:2.48248"
           d="m 182.50819,-367.54963 -3.76593,-3.77337 c -1.03767,-1.04512 -2.71583,-1.05257 -3.74109,-0.0223 l -3.02863,3.04848 7.52192,7.55419 3.0311,-3.05097 c 1.03023,-1.03023 1.02278,-2.71335 -0.0174,-3.75599 z"
           id="path1410" />
        <path
           style="fill:#00467a;fill-opacity:1;stroke-width:2.48248"
           d="m 157.13973,-353.72719 c -0.16633,0.13654 -0.30783,0.30535 -0.37237,0.52877 l -2.62399,8.97417 c -0.11667,0.38975 -0.007,0.81177 0.27804,1.09973 0.2135,0.21101 0.4965,0.32521 0.78695,0.32521 0.10426,0 0.21101,-0.0149 0.31279,-0.0472 l 8.94189,-2.63639 c 0.20853,-0.0596 0.36989,-0.18867 0.50643,-0.34258 l 12.26096,-12.20139 -7.85208,-7.88187 z m 1.18911,7.73541 -1.04761,-1.05505 1.487,-5.08164 3.80316,0.78446 0.75219,3.87764 z"
           id="path1412" />
      </g>
    </g>
  </g>
</svg>
