<?xml version="1.0" encoding="UTF-8" standalone="no"?>
<svg
   xmlns:dc="http://purl.org/dc/elements/1.1/"
   xmlns:cc="http://creativecommons.org/ns#"
   xmlns:rdf="http://www.w3.org/1999/02/22-rdf-syntax-ns#"
   xmlns:svg="http://www.w3.org/2000/svg"
   xmlns="http://www.w3.org/2000/svg"
   xmlns:sodipodi="http://sodipodi.sourceforge.net/DTD/sodipodi-0.dtd"
   xmlns:inkscape="http://www.inkscape.org/namespaces/inkscape"
   width="110.81541mm"
   height="121.96303mm"
   viewBox="0 0 110.81542 121.96303"
   version="1.1"
   id="svg1374"
   sodipodi:docname="notifications - Copy.svg"
   inkscape:version="1.0.2-2 (e86c870879, 2021-01-15)">
  <sodipodi:namedview
     pagecolor="#ffffff"
     bordercolor="#666666"
     borderopacity="1"
     objecttolerance="10"
     gridtolerance="10"
     guidetolerance="10"
     inkscape:pageopacity="0"
     inkscape:pageshadow="2"
     inkscape:window-width="1920"
     inkscape:window-height="1017"
     id="namedview7"
     showgrid="false"
     inkscape:zoom="0.32597044"
     inkscape:cx="263.63971"
     inkscape:cy="315.41958"
     inkscape:window-x="-8"
     inkscape:window-y="-8"
     inkscape:window-maximized="1"
     inkscape:current-layer="svg1374" />
  <defs
     id="defs1368" />
  <metadata
     id="metadata1371">
    <rdf:RDF>
      <cc:Work
         rdf:about="">
        <dc:format>image/svg+xml</dc:format>
        <dc:type
           rdf:resource="http://purl.org/dc/dcmitype/StillImage" />
        <dc:title />
      </cc:Work>
    </rdf:RDF>
  </metadata>
  <g
     id="layer1"
     transform="translate(-609.91767,32.430101)"
     style="fill:#ff5778;fill-opacity:1">
    <path
       id="path1230"
       style="fill:#ff5778;fill-opacity:1;stroke-width:11.5345"
       transform="matrix(0.48636261,0,0,0.48636261,102.2466,260.2443)"
       d="m 1157.7305,-601.76172 c -2.2196,0 -4.3446,0.7673 -6.1035,2.02344 a 1.6704079,1.6704079 0 0 1 -0.4473,0.6582 c -0.057,0.0506 -0.1123,0.10243 -0.168,0.1543 l -0.2539,-0.27539 c -1.8297,1.64569 -3.0723,4.04092 -3.0781,7.47851 v 0.76563 a 1.6704079,1.6704079 0 0 1 -1.4277,1.65234 c -38.8891,5.69506 -67.7332,38.99803 -67.7793,78.31836 v 41.66016 a 1.6704079,1.6704079 0 0 1 0,0.004 c -0.034,15.70013 -5.117,30.97207 -14.502,43.5586 a 1.6704079,1.6704079 0 0 1 -0,0.004 l -18.0859,24.08789 c -5.0252,6.70032 -0.3361,16.08395 8.039,16.08399 h 59.1875 a 1.6704079,1.6704079 0 0 1 1.6172,1.25391 c 1.7424,6.75937 4.7633,12.35255 8.5039,17.04687 a 1.6704079,1.6704079 0 0 1 0.7891,0.50781 c 0.5818,0.68439 1.1843,1.35034 1.8066,1.99805 l -0.3066,0.29297 c 0.2712,0.28603 0.5366,0.5747 0.8144,0.85156 a 1.6704079,1.6704079 0 0 1 1.0899,0.4375 c 0.9271,0.87232 1.8917,1.70499 2.8906,2.49414 a 1.6704079,1.6704079 0 0 1 0.5918,1.00196 c 0.3292,0.24459 0.657,0.48455 0.9922,0.71874 l 0.248,-0.35156 c 0.6909,0.48936 1.3955,0.95929 2.1133,1.40821 a 1.6704079,1.6704079 0 0 1 0.6328,0.74218 c 6.9528,4.04904 14.8542,6.18946 22.8399,6.18946 8.0267,0 15.9687,-2.16294 22.9472,-6.25391 a 1.6704079,1.6704079 0 0 1 0.625,-0.73633 c 0.6886,-0.43356 1.3657,-0.8846 2.0293,-1.35547 l 0.2461,0.34961 c 0.3582,-0.2504 0.7035,-0.51506 1.0547,-0.77734 a 1.6704079,1.6704079 0 0 1 0.5879,-0.99024 c 1.0228,-0.81153 2.01,-1.66762 2.957,-2.5664 a 1.6704079,1.6704079 0 0 1 1.1075,-0.44336 c 0.2676,-0.26936 0.5061,-0.57362 0.7675,-0.85156 l -0.2949,-0.2793 c 0.6193,-0.6497 1.2183,-1.31775 1.7969,-2.00391 a 1.6704079,1.6704079 0 0 1 0.7832,-0.50781 c 3.6923,-4.6703 6.6737,-10.22366 8.4004,-16.92187 a 1.6704079,1.6704079 0 0 1 1.6172,-1.25391 h 59.1875 c 8.3751,0 13.0717,-9.38424 8.0468,-16.08399 l -18.0781,-24.0957 a 1.6704079,1.6704079 0 0 1 -0,-0.002 c -9.391,-12.58028 -14.4783,-27.85443 -14.5137,-43.55274 a 1.6704079,1.6704079 0 0 1 0,-0.004 v -41.66016 -0.002 c -0.047,-39.3193 -28.8967,-72.62141 -67.7852,-78.31641 a 1.6704079,1.6704079 0 0 1 -1.4277,-1.65234 v -0.76367 -0.004 c -0.01,-3.30615 -1.1941,-5.60615 -2.9082,-7.24414 l -0.2246,0.23047 c -0.1121,-0.10962 -0.2265,-0.21812 -0.3438,-0.32227 a 1.6704079,1.6704079 0 0 1 -0.4492,-0.66406 c -1.7625,-1.26586 -3.8985,-2.03711 -6.1269,-2.03711 z m 0,31.64844 c 32.6402,0 59.1376,26.4847 59.1543,59.125 v 41.6582 c 0.04,20.05606 6.5438,39.56788 18.5429,55.63867 l 3.9981,5.32813 a 1.6704079,1.6704079 0 0 1 -1.336,2.67187 h -160.7187 a 1.6704079,1.6704079 0 0 1 -1.3359,-2.67187 l 4.0156,-5.34961 0,-0.004 c 11.9846,-16.06763 18.4784,-35.56798 18.5254,-55.61328 v -41.6582 c 0.016,-32.64025 26.512,-59.125 59.1524,-59.125 z m -19.461,184.52539 a 1.6704079,1.6704079 0 0 1 0.047,0 h 38.8359 a 1.6704079,1.6704079 0 0 1 1.4336,2.52734 c -4.3922,7.33593 -12.2559,11.94087 -20.8496,11.9668 a 1.6704079,1.6704079 0 0 1 -0.012,0 c -8.5938,-0.0259 -16.45,-4.63164 -20.8418,-11.9668 a 1.6704079,1.6704079 0 0 1 1.3867,-2.52734 z" />
  </g>
</svg>
