<?xml version="1.0" encoding="UTF-8" standalone="no"?>
<svg
   xmlns:dc="http://purl.org/dc/elements/1.1/"
   xmlns:cc="http://creativecommons.org/ns#"
   xmlns:rdf="http://www.w3.org/1999/02/22-rdf-syntax-ns#"
   xmlns:svg="http://www.w3.org/2000/svg"
   xmlns="http://www.w3.org/2000/svg"
   xmlns:sodipodi="http://sodipodi.sourceforge.net/DTD/sodipodi-0.dtd"
   xmlns:inkscape="http://www.inkscape.org/namespaces/inkscape"
   width="186.06114mm"
   height="186.06114mm"
   viewBox="0 0 186.06115 186.06115"
   version="1.1"
   id="svg261"
   inkscape:version="1.0.2-2 (e86c870879, 2021-01-15)"
   sodipodi:docname="Pause.svg">
  <defs
     id="defs255" />
  <sodipodi:namedview
     id="base"
     pagecolor="#ffffff"
     bordercolor="#666666"
     borderopacity="1.0"
     inkscape:pageopacity="0.0"
     inkscape:pageshadow="2"
     inkscape:zoom="0.35"
     inkscape:cx="202.92163"
     inkscape:cy="694.35027"
     inkscape:document-units="mm"
     inkscape:current-layer="layer1"
     inkscape:document-rotation="0"
     showgrid="false"
     inkscape:window-width="1264"
     inkscape:window-height="761"
     inkscape:window-x="0"
     inkscape:window-y="0"
     inkscape:window-maximized="0"
     inkscape:snap-page="true" />
  <metadata
     id="metadata258">
    <rdf:RDF>
      <cc:Work
         rdf:about="">
        <dc:format>image/svg+xml</dc:format>
        <dc:type
           rdf:resource="http://purl.org/dc/dcmitype/StillImage" />
        <dc:title />
      </cc:Work>
    </rdf:RDF>
  </metadata>
  <g
     inkscape:label="Layer 1"
     inkscape:groupmode="layer"
     id="layer1"
     transform="translate(-52.14365,35.546841)">
    <g
       id="g1526"
       transform="matrix(10.207381,0,0,10.207381,2325.5796,-9359.1995)"
       style="fill:#64a3d1;fill-opacity:1;stroke-width:0.0979684"
       inkscape:export-xdpi="97"
       inkscape:export-ydpi="97">
      <g
         id="g1416"
         transform="matrix(0.62823317,0,0,0.62823317,-78.128539,392.4008)"
         style="fill:#64a3d1;fill-opacity:1;stroke-width:0.0979684">
        <path
           id="path1412"
           style="fill:#00467a;fill-opacity:1;stroke-width:1.91681"
           sodipodi:type="inkscape:offset"
           inkscape:radius="-1.5633384"
           inkscape:original="M -3110.6367 3496.5293 C -3113.6552 3496.5293 -3116.1035 3498.9757 -3116.1035 3501.9941 L -3116.1035 3515.1289 L -3116.1035 3526.0586 L -3116.1035 3553.3867 C -3116.0815 3560.6515 -3105.195 3560.6515 -3105.1719 3553.3867 L -3105.1719 3526.0586 L -3105.1719 3515.1289 L -3105.1719 3501.9941 C -3105.1719 3498.9757 -3107.6183 3496.5293 -3110.6367 3496.5293 z M -3072.4238 3496.5293 C -3075.4423 3496.5293 -3077.8887 3498.9757 -3077.8887 3501.9941 L -3077.8887 3515.1289 L -3077.8887 3526.0586 L -3077.8887 3553.3867 C -3077.8667 3560.6515 -3066.9801 3560.6515 -3066.957 3553.3867 L -3066.957 3526.0586 L -3066.957 3515.1289 L -3066.957 3501.9941 C -3066.957 3498.9757 -3069.4054 3496.5293 -3072.4238 3496.5293 z "
           transform="matrix(0.21636566,0,0,0.21636566,453.24519,80.974195)"
           d="m -3110.6367,3498.0918 c -2.1738,0 -3.9043,1.7293 -3.9043,3.9023 v 13.1348 10.9297 27.3281 c 0.01,1.4231 0.488,2.294 1.1894,2.916 0.7022,0.6227 1.6963,0.9688 2.7129,0.9688 1.0166,0 2.0125,-0.346 2.7149,-0.9688 0.7023,-0.6227 1.1849,-1.4961 1.1894,-2.9218 v -27.3223 -10.9297 -13.1348 c 0,-2.1736 -1.7286,-3.9023 -3.9023,-3.9023 z m 38.2129,0 c -2.1738,0 -3.9024,1.7287 -3.9024,3.9023 v 13.1348 10.9297 27.3242 c 0,1.4258 0.4873,2.2973 1.1895,2.9199 0.7022,0.6227 1.6963,0.9688 2.7129,0.9688 1.0166,0 2.0125,-0.346 2.7148,-0.9688 0.7024,-0.6227 1.1849,-1.4961 1.1895,-2.9218 v -27.3223 -10.9297 -13.1348 c 0,-2.1729 -1.7306,-3.9023 -3.9043,-3.9023 z" />
      </g>
    </g>
  </g>
</svg>
