<?xml version="1.0" encoding="UTF-8" standalone="no"?>
<svg
   xmlns:dc="http://purl.org/dc/elements/1.1/"
   xmlns:cc="http://creativecommons.org/ns#"
   xmlns:rdf="http://www.w3.org/1999/02/22-rdf-syntax-ns#"
   xmlns:svg="http://www.w3.org/2000/svg"
   xmlns="http://www.w3.org/2000/svg"
   xmlns:sodipodi="http://sodipodi.sourceforge.net/DTD/sodipodi-0.dtd"
   xmlns:inkscape="http://www.inkscape.org/namespaces/inkscape"
   width="186.06114mm"
   height="186.06114mm"
   viewBox="0 0 186.06115 186.06115"
   version="1.1"
   id="svg261"
   inkscape:version="1.0.2-2 (e86c870879, 2021-01-15)"
   sodipodi:docname="Print.svg">
  <defs
     id="defs255" />
  <sodipodi:namedview
     id="base"
     pagecolor="#ffffff"
     bordercolor="#666666"
     borderopacity="1.0"
     inkscape:pageopacity="0.0"
     inkscape:pageshadow="2"
     inkscape:zoom="0.35"
     inkscape:cx="317.39089"
     inkscape:cy="554.77904"
     inkscape:document-units="mm"
     inkscape:current-layer="layer1"
     inkscape:document-rotation="0"
     showgrid="false"
     inkscape:window-width="1267"
     inkscape:window-height="1041"
     inkscape:window-x="182"
     inkscape:window-y="0"
     inkscape:window-maximized="0"
     inkscape:snap-page="true" />
  <metadata
     id="metadata258">
    <rdf:RDF>
      <cc:Work
         rdf:about="">
        <dc:format>image/svg+xml</dc:format>
        <dc:type
           rdf:resource="http://purl.org/dc/dcmitype/StillImage" />
        <dc:title />
      </cc:Work>
    </rdf:RDF>
  </metadata>
  <g
     inkscape:label="Layer 1"
     inkscape:groupmode="layer"
     id="layer1"
     transform="translate(104.68795,129.96396)">
    <g
       id="g1498"
       transform="matrix(0.2115926,0,0,0.2115926,-180.92732,-91.24378)"
       style="fill:#64a3d1;fill-opacity:1;stroke-width:0.190694"
       inkscape:export-xdpi="97"
       inkscape:export-ydpi="97">
      <path
         id="path1496"
         style="fill:#00467a;fill-opacity:1;stroke-width:0.0438195"
         d="m -97.925781,2836.3411 c -9.782339,0 -17.749999,7.9677 -17.749999,17.75 v 6.1335 h -2.70117 c -9.78235,0 -17.75,7.9677 -17.75,17.75 v 27.5742 c 0,9.7824 7.96765,17.75 17.75,17.75 h 2.70117 v 15.1094 c 0,5.9812 4.87421,10.8574 10.85547,10.8574 h 56.068357 c 5.98125,0 10.857422,-4.8761 10.857422,-10.8574 v -15.1094 h 2.701172 c 9.782348,0 17.75,-7.9676 17.75,-17.75 v -27.5742 c 0,-9.7823 -7.967652,-17.75 -17.75,-17.75 h -2.701172 v -6.1335 c 0,-9.7823 -7.967656,-17.75 -17.75,-17.75 z m 0,7.9239 h 42.28125 c 5.422237,0 9.824219,4.4038 9.824219,9.8261 v 6.1335 h -61.931638 v -6.1335 c 0,-5.4222 4.40393,-9.8261 9.826169,-9.8261 z m -20.451169,23.8854 h 83.183591 c 5.422358,0 9.824218,4.4019 9.824218,9.8242 v 27.5742 c 0,5.4224 -4.40186,9.8242 -9.824218,9.8242 h -2.701172 v -10.457 h 1.550781 c 2.182099,0 3.962891,-1.7808 3.962891,-3.9629 0,-2.182 -1.780792,-3.9629 -3.962891,-3.9629 h -80.88477 c -2.18209,0 -3.96289,1.7809 -3.96289,3.9629 0,2.1821 1.7808,3.9629 3.96289,3.9629 h 1.55274 v 10.457 h -2.70117 c -5.42236,0 -9.82617,-4.4019 -9.82617,-9.8242 v -27.5742 c 0,-5.4222 4.40381,-9.8242 9.82617,-9.8242 z m 1.14843,6.7812 c -2.18209,0 -3.96289,1.7809 -3.96289,3.9629 0,2.1822 1.78116,3.961 3.96289,3.961 h 11.0293 c 2.18174,0 3.96289,-1.7788 3.96289,-3.961 0,-2.182 -1.78079,-3.9629 -3.96289,-3.9629 z m 9.47657,29.9844 h 61.931638 v 33.4922 c 0,1.6211 -1.310568,2.9316 -2.931641,2.9316 h -56.068357 c -1.62107,0 -2.93164,-1.3105 -2.93164,-2.9316 z"
         sodipodi:nodetypes="sscsssscsssscsssscssssssccsssssssccssssssccsssssssssssccssssc"
         transform="matrix(4.3518241,0,0,4.3518241,1134.136,-12320.438)" />
    </g>
  </g>
</svg>
