<?xml version="1.0" encoding="UTF-8" standalone="no"?>
<svg
   xmlns:dc="http://purl.org/dc/elements/1.1/"
   xmlns:cc="http://creativecommons.org/ns#"
   xmlns:rdf="http://www.w3.org/1999/02/22-rdf-syntax-ns#"
   xmlns:svg="http://www.w3.org/2000/svg"
   xmlns="http://www.w3.org/2000/svg"
   xmlns:sodipodi="http://sodipodi.sourceforge.net/DTD/sodipodi-0.dtd"
   xmlns:inkscape="http://www.inkscape.org/namespaces/inkscape"
   width="150.79501mm"
   height="150.79536mm"
   viewBox="0 0 150.79501 150.79536"
   version="1.1"
   id="svg1304"
   inkscape:version="1.0.2-2 (e86c870879, 2021-01-15)">
  <defs
     id="defs1298" />
  <sodipodi:namedview
     id="base"
     pagecolor="#ffffff"
     bordercolor="#666666"
     borderopacity="1.0"
     inkscape:pageopacity="0.0"
     inkscape:pageshadow="2"
     inkscape:zoom="0.12374369"
     inkscape:cx="-381.41091"
     inkscape:cy="1014.2158"
     inkscape:document-units="mm"
     inkscape:current-layer="layer1"
     inkscape:document-rotation="0"
     showgrid="false"
     fit-margin-top="0"
     fit-margin-left="0"
     fit-margin-right="0"
     fit-margin-bottom="0"
     inkscape:window-width="1920"
     inkscape:window-height="1017"
     inkscape:window-x="-8"
     inkscape:window-y="-8"
     inkscape:window-maximized="1" />
  <metadata
     id="metadata1301">
    <rdf:RDF>
      <cc:Work
         rdf:about="">
        <dc:format>image/svg+xml</dc:format>
        <dc:type
           rdf:resource="http://purl.org/dc/dcmitype/StillImage" />
        <dc:title></dc:title>
      </cc:Work>
    </rdf:RDF>
  </metadata>
  <g
     inkscape:label="Layer 1"
     inkscape:groupmode="layer"
     id="layer1"
     transform="translate(-47.677271,30.25265)">
    <path
       id="circle2245"
       style="fill:#00467a;fill-opacity:1;fill-rule:evenodd;stroke:none;stroke-width:11.2756;stroke-linecap:round;stroke-linejoin:round;stroke-miterlimit:4;stroke-dasharray:none;stroke-opacity:1"
       d="m 122.74188,-30.252466 a 75.397966,75.397966 0 0 0 -75.064609,75.39611 75.397966,75.397966 0 0 0 75.399119,75.399066 75.397966,75.397966 0 0 0 75.3959,-75.399066 75.397966,75.397966 0 0 0 -75.3959,-75.39611 75.397966,75.397966 0 0 0 -0.3329,0 z m 1.19629,27.6071095 c 4.49791,0 8.54103,0.57598 12.13527,1.77414002 3.55666,1.18555 6.61879,2.83973998 9.14348,4.95607998 2.62238,2.11782 4.60797,4.66773 5.93258,7.6128705 v 0.0215 c 1.40947,2.83609 2.12896,5.89098 2.12896,9.12022 0,3.78281 -0.74419,7.11862 -2.29326,9.92101 -1.39926,2.69874 -3.20388,5.10797 -5.39888,7.20523 v 0.0166 c -2.05485,2.05206 -4.30891,3.9056 -6.75034,5.56592 -2.36252,1.60645 -4.5763,3.20835 -6.64834,4.80937 -1.91579,1.45956 -3.53625,3.04319 -4.88879,4.75367 v 0.0166 c -1.15066,1.48448 -1.71605,3.15757 -1.71605,5.17601 0,0.78935 0.21477,1.67653 0.70392,2.66272 0.7399,1.19258 1.15871,2.46781 1.15871,3.76552 0,1.54787 -0.57828,3.02127 -1.63067,4.19061 -1.09052,1.21138 -2.63689,1.87385 -4.29066,1.87385 -1.72731,0 -3.33811,-0.61784 -4.60958,-1.77414 a 1.3415108,1.3415108 0 0 1 -0.0966,-0.0993 c -1.05669,-1.16241 -1.88947,-2.48285 -2.51607,-3.94438 -0.60352,-1.40848 -1.05884,-2.83476 -1.36381,-4.258 -0.29532,-1.37553 -0.46714,-2.40671 -0.46714,-3.26989 0,-3.23192 0.67116,-6.10995 2.04089,-8.53362 a 1.3415108,1.3415108 0 0 1 0,-0.0322 c 1.40086,-2.30116 3.09919,-4.35214 5.09981,-6.15259 1.95605,-1.76029 4.06245,-3.37947 6.30791,-4.8445 2.25674,-1.50443 4.31159,-3.01178 6.18496,-4.51041 1.81162,-1.54413 3.28605,-3.1538 4.44261,-4.8445 a 1.3415108,1.3415108 0 0 1 0,-0.0166 c 1.17266,-1.67492 1.76275,-3.61421 1.76275,-5.95306 0,-3.27965 -1.17857,-5.94294 -3.7129,-8.30208 a 1.3415108,1.3415108 0 0 1 0,-0.0216 c -2.43017,-2.34635 -6.28376,-3.62473 -11.79217,-3.62473 -4.22783,0 -7.82154,0.73603 -10.85039,2.16138 -3.0804,1.44966 -5.7989,3.38806 -8.1582,5.82993 -1.1034,1.2261 -2.69487,1.87396 -4.422189,1.87396 -1.68652,0 -3.28283,-0.71155 -4.53388,-1.96197 -1.26233,-1.26228 -1.96197,-2.91046 -1.96197,-4.66864 0,-1.80448 0.61051,-3.46915 1.81807,-4.6774105 1.87014,-1.87009 3.89815,-3.5334 6.061999,-5.00874 2.16707,-1.47776 4.43185,-2.72324 6.80619,-3.71268998 2.46237,-0.98497 5.0778,-1.71422002 7.81562,-2.20520002 2.76201,-0.59117 5.6142,-0.88857 8.55714,-0.88857 z m -1.57483,77.1762105 c 2.50105,0 4.7755,0.91881 6.52806,2.67159 1.75256,1.75266 2.67178,4.02667 2.67178,6.52784 0,2.50114 -0.91922,4.77523 -2.67178,6.52789 -1.75041,1.75047 -4.02219,2.68328 -6.52806,2.68328 -2.50534,0 -4.77712,-0.93281 -6.52752,-2.68328 -1.75041,-1.75041 -2.6836,-4.02229 -2.6836,-6.52789 0,-2.50567 0.93319,-4.77739 2.6836,-6.52784 1.75256,-1.75278 4.02648,-2.67159 6.52752,-2.67159 z"
       inkscape:export-xdpi="97"
       inkscape:export-ydpi="97" />
  </g>
</svg>
