<?xml version="1.0" encoding="UTF-8" standalone="no"?>
<svg
   xmlns:dc="http://purl.org/dc/elements/1.1/"
   xmlns:cc="http://creativecommons.org/ns#"
   xmlns:rdf="http://www.w3.org/1999/02/22-rdf-syntax-ns#"
   xmlns:svg="http://www.w3.org/2000/svg"
   xmlns="http://www.w3.org/2000/svg"
   xmlns:sodipodi="http://sodipodi.sourceforge.net/DTD/sodipodi-0.dtd"
   xmlns:inkscape="http://www.inkscape.org/namespaces/inkscape"
   width="99.369736mm"
   height="99.369736mm"
   viewBox="0 0 99.369735 99.369742"
   version="1.1"
   id="svg1491"
   inkscape:version="1.0.2-2 (e86c870879, 2021-01-15)">
  <defs
     id="defs1485" />
  <sodipodi:namedview
     id="base"
     pagecolor="#ffffff"
     bordercolor="#666666"
     borderopacity="1.0"
     inkscape:pageopacity="0.0"
     inkscape:pageshadow="2"
     inkscape:zoom="0.12374369"
     inkscape:cx="306.62215"
     inkscape:cy="794.48582"
     inkscape:document-units="mm"
     inkscape:current-layer="layer1"
     inkscape:document-rotation="0"
     showgrid="false"
     fit-margin-top="0"
     fit-margin-left="0"
     fit-margin-right="0"
     fit-margin-bottom="0"
     inkscape:window-width="1920"
     inkscape:window-height="1017"
     inkscape:window-x="-8"
     inkscape:window-y="-8"
     inkscape:window-maximized="1" />
  <metadata
     id="metadata1488">
    <rdf:RDF>
      <cc:Work
         rdf:about="">
        <dc:format>image/svg+xml</dc:format>
        <dc:type
           rdf:resource="http://purl.org/dc/dcmitype/StillImage" />
        <dc:title></dc:title>
      </cc:Work>
    </rdf:RDF>
  </metadata>
  <g
     inkscape:label="Layer 1"
     inkscape:groupmode="layer"
     id="layer1"
     transform="translate(-1669.2376,-396.72166)">
    <g
       id="g2303">
      <path
         id="path4322"
         style="font-style:normal;font-variant:normal;font-weight:normal;font-stretch:normal;font-size:35.761px;line-height:1.25;font-family:ProximaNovaSoftW03-Regular;-inkscape-font-specification:ProximaNovaSoftW03-Regular;letter-spacing:0px;word-spacing:0px;fill:#00467a;fill-opacity:1;stroke:none;stroke-width:0.877729"
         sodipodi:type="inkscape:offset"
         inkscape:radius="0.23637205"
         inkscape:original="M -649.83398 536.4668 C -650.33769 536.4668 -650.82479 536.51644 -651.29492 536.61719 C -651.76506 536.70114 -652.2111 536.82623 -652.63086 536.99414 C -653.03383 537.16205 -653.41967 537.37314 -653.78906 537.625 C -654.15846 537.87686 -654.50326 538.16145 -654.82227 538.48047 C -654.99013 538.64838 -655.07422 538.86807 -655.07422 539.13672 C -655.07422 539.38857 -654.98157 539.60631 -654.79688 539.79102 C -654.61217 539.97567 -654.40108 540.06836 -654.16602 540.06836 C -653.91415 540.06836 -653.71362 539.98433 -653.5625 539.81641 C -653.12595 539.36307 -652.62166 539.00107 -652.05078 538.73242 C -651.4799 538.46377 -650.80948 538.33008 -650.03711 538.33008 C -649.02968 538.33008 -648.28185 538.56503 -647.79492 539.03516 C -647.308 539.48851 -647.06445 540.03382 -647.06445 540.67188 C -647.06445 541.12522 -647.1829 541.51965 -647.41797 541.85547 C -647.63625 542.17448 -647.91224 542.47628 -648.24805 542.76172 C -648.58386 543.03036 -648.95249 543.29972 -649.35547 543.56836 C -649.74165 543.82022 -650.10364 544.09816 -650.43945 544.40039 C -650.77526 544.70262 -651.05985 545.04546 -651.29492 545.43164 C -651.5132 545.81781 -651.62305 546.28106 -651.62305 546.81836 C -651.62305 546.93589 -651.59727 547.11063 -651.54688 547.3457 C -651.49651 547.58077 -651.42106 547.81571 -651.32031 548.05078 C -651.21956 548.28584 -651.08588 548.49694 -650.91797 548.68164 C -650.73327 548.84959 -650.51554 548.93359 -650.26367 548.93359 C -650.0286 548.93359 -649.83471 548.84954 -649.68359 548.68164 C -649.53251 548.51373 -649.45703 548.31984 -649.45703 548.10156 C -649.45703 547.91686 -649.51527 547.73353 -649.63281 547.54883 C -649.73352 547.34734 -649.78516 547.15345 -649.78516 546.96875 C -649.78516 546.56578 -649.66671 546.21239 -649.43164 545.91016 C -649.17979 545.59114 -648.878 545.29794 -648.52539 545.0293 C -648.156 544.74386 -647.76157 544.45927 -647.3418 544.17383 C -646.92204 543.88839 -646.53618 543.56939 -646.18359 543.2168 C -645.81419 542.8642 -645.51045 542.46115 -645.27539 542.00781 C -645.02353 541.55447 -644.89844 541.00719 -644.89844 540.36914 C -644.89844 539.83185 -645.01688 539.32952 -645.25195 538.85938 C -645.47022 538.37246 -645.79588 537.95221 -646.23242 537.59961 C -646.65219 537.24702 -647.16507 536.96907 -647.76953 536.76758 C -648.37399 536.56609 -649.06162 536.4668 -649.83398 536.4668 z M -650.11133 550.06641 C -650.49751 550.06641 -650.8251 550.2001 -651.09375 550.46875 C -651.3624 550.73739 -651.49805 551.06499 -651.49805 551.45117 C -651.49805 551.83736 -651.3624 552.16494 -651.09375 552.43359 C -650.8251 552.70224 -650.49751 552.83789 -650.11133 552.83789 C -649.72515 552.83789 -649.39756 552.70224 -649.12891 552.43359 C -648.86027 552.16494 -648.72656 551.83736 -648.72656 551.45117 C -648.72656 551.06499 -648.86027 550.73739 -649.12891 550.46875 C -649.39756 550.2001 -649.72515 550.06641 -650.11133 550.06641 z "
         transform="matrix(3.4656618,0,0,3.4656618,3971.5543,-1441.1717)"
         inkscape:export-xdpi="97"
         inkscape:export-ydpi="97"
         d="m -649.83398,536.23047 c -0.51858,0 -1.02111,0.0521 -1.50782,0.15625 -0.48239,0.0865 -0.94304,0.2151 -1.37695,0.38867 a 0.23639569,0.23639569 0 0 0 -0.004,0 c -0.41844,0.17436 -0.81732,0.39391 -1.19922,0.6543 -0.38131,0.25998 -0.73883,0.55327 -1.06835,0.88281 -0.21284,0.2129 -0.32032,0.50624 -0.32032,0.82422 0,0.30982 0.12329,0.59982 0.34571,0.82226 0.22042,0.22035 0.50163,0.34571 0.79882,0.34571 0.30445,0 0.58486,-0.11402 0.7793,-0.33008 0.41572,-0.43029 0.89464,-0.77188 1.4375,-1.02734 0.53371,-0.25116 1.16702,-0.38086 1.91211,-0.38086 0.97068,0 1.64989,0.2252 2.07813,0.63867 a 0.23639569,0.23639569 0 0 0 0.004,0.004 c 0.44651,0.41572 0.6543,0.88498 0.6543,1.4629 0,0.41216 -0.10395,0.75368 -0.31055,1.04882 a 0.23639569,0.23639569 0 0 0 -0.002,0.002 c -0.20385,0.29792 -0.46399,0.58141 -0.7832,0.85351 -0.33011,0.26408 -0.69219,0.52983 -1.08985,0.79492 -0.39572,0.25818 -0.76668,0.54333 -1.11133,0.85352 -0.35252,0.31727 -0.65161,0.6785 -0.89843,1.08398 a 0.23639569,0.23639569 0 0 0 -0.004,0.006 c -0.24141,0.42709 -0.35938,0.93439 -0.35938,1.50391 0,0.15209 0.0301,0.33378 0.082,0.57617 0.0537,0.25081 0.13385,0.50179 0.24023,0.75 0.11039,0.25755 0.25715,0.49049 0.44336,0.69531 a 0.23639569,0.23639569 0 0 0 0.0176,0.0176 c 0.22408,0.20377 0.50807,0.3125 0.8125,0.3125 0.29141,0 0.56372,-0.11661 0.75586,-0.33008 0.18541,-0.20606 0.28711,-0.46551 0.28711,-0.73828 0,-0.23439 -0.0763,-0.46505 -0.21289,-0.67968 l 0.0117,0.0215 c -0.088,-0.17615 -0.12695,-0.33397 -0.12695,-0.47461 0,-0.35567 0.1,-0.65053 0.30274,-0.91211 l 0.002,-0.002 c 0.23826,-0.30143 0.52373,-0.58069 0.86133,-0.83789 a 0.23639569,0.23639569 0 0 0 0.002,0 c 0.36512,-0.28214 0.75558,-0.56458 1.17188,-0.84766 0.43024,-0.29257 0.82734,-0.61885 1.18945,-0.98047 l 0.002,-0.002 c 0.38676,-0.36958 0.70459,-0.79397 0.95117,-1.26953 0.27296,-0.49381 0.4043,-1.08148 0.4043,-1.74805 0,-0.56904 -0.12661,-1.10766 -0.375,-1.60742 l -0.002,-0.004 c -0.23341,-0.51899 -0.58286,-0.96858 -1.04492,-1.34179 -0.44491,-0.37292 -0.98459,-0.66413 -1.61133,-0.87305 -0.63338,-0.21113 -1.34606,-0.3125 -2.13867,-0.3125 z m -0.27735,13.59961 c -0.44073,0 -0.84153,0.16184 -1.15039,0.4707 -0.30846,0.30845 -0.47265,0.70886 -0.47266,1.15039 0,0.44154 0.16421,0.84194 0.47266,1.15039 0.30846,0.30846 0.70886,0.47266 1.15039,0.47266 0.44153,0 0.84194,-0.1642 1.15039,-0.47266 0.30885,-0.30885 0.47071,-0.70964 0.47071,-1.15039 0,-0.44074 -0.16186,-0.84154 -0.47071,-1.15039 -0.30886,-0.30886 -0.70966,-0.4707 -1.15039,-0.4707 z" />
      <circle
         style="fill:none;fill-rule:evenodd;stroke:#00467a;stroke-width:7.27788;stroke-linecap:round;stroke-linejoin:round;stroke-miterlimit:4;stroke-dasharray:none;stroke-opacity:1"
         id="path2006"
         cx="1718.9225"
         cy="446.40652"
         r="46.045929"
         inkscape:export-xdpi="97"
         inkscape:export-ydpi="97" />
    </g>
  </g>
</svg>
