<?xml version="1.0" encoding="UTF-8" standalone="no"?>
<svg
   xmlns:dc="http://purl.org/dc/elements/1.1/"
   xmlns:cc="http://creativecommons.org/ns#"
   xmlns:rdf="http://www.w3.org/1999/02/22-rdf-syntax-ns#"
   xmlns:svg="http://www.w3.org/2000/svg"
   xmlns="http://www.w3.org/2000/svg"
   xmlns:sodipodi="http://sodipodi.sourceforge.net/DTD/sodipodi-0.dtd"
   xmlns:inkscape="http://www.inkscape.org/namespaces/inkscape"
   width="188.86865mm"
   height="178.3582mm"
   viewBox="0 0 188.86866 178.3582"
   version="1.1"
   id="svg1455"
   inkscape:version="1.0.2-2 (e86c870879, 2021-01-15)">
  <defs
     id="defs1449" />
  <sodipodi:namedview
     id="base"
     pagecolor="#ffffff"
     bordercolor="#666666"
     borderopacity="1.0"
     inkscape:pageopacity="0.0"
     inkscape:pageshadow="2"
     inkscape:zoom="0.12374369"
     inkscape:cx="4054.8894"
     inkscape:cy="891.90678"
     inkscape:document-units="mm"
     inkscape:current-layer="layer1"
     inkscape:document-rotation="0"
     showgrid="false"
     inkscape:window-width="1920"
     inkscape:window-height="1017"
     inkscape:window-x="-8"
     inkscape:window-y="-8"
     inkscape:window-maximized="1" />
  <metadata
     id="metadata1452">
    <rdf:RDF>
      <cc:Work
         rdf:about="">
        <dc:format>image/svg+xml</dc:format>
        <dc:type
           rdf:resource="http://purl.org/dc/dcmitype/StillImage" />
        <dc:title></dc:title>
      </cc:Work>
    </rdf:RDF>
  </metadata>
  <g
     inkscape:label="Layer 1"
     inkscape:groupmode="layer"
     id="layer1"
     transform="translate(-18.520014,-70.509507)">
    <g
       id="g2267"
       transform="translate(12.095238)">
      <path
         id="path3629-7"
         style="color:#000000;font-style:normal;font-variant:normal;font-weight:normal;font-stretch:normal;font-size:medium;line-height:normal;font-family:sans-serif;font-variant-ligatures:normal;font-variant-position:normal;font-variant-caps:normal;font-variant-numeric:normal;font-variant-alternates:normal;font-variant-east-asian:normal;font-feature-settings:normal;font-variation-settings:normal;text-indent:0;text-align:start;text-decoration:none;text-decoration-line:none;text-decoration-style:solid;text-decoration-color:#000000;letter-spacing:normal;word-spacing:normal;text-transform:none;writing-mode:lr-tb;direction:ltr;text-orientation:mixed;dominant-baseline:auto;baseline-shift:baseline;text-anchor:start;white-space:normal;shape-padding:0;shape-margin:0;inline-size:0;clip-rule:nonzero;display:inline;overflow:visible;visibility:visible;isolation:auto;mix-blend-mode:normal;color-interpolation:sRGB;color-interpolation-filters:linearRGB;solid-color:#000000;solid-opacity:1;vector-effect:none;fill:#00467a;fill-opacity:1;fill-rule:nonzero;stroke:none;stroke-width:0.333132;stroke-linecap:butt;stroke-linejoin:miter;stroke-miterlimit:4;stroke-dasharray:none;stroke-dashoffset:0;stroke-opacity:1;color-rendering:auto;image-rendering:auto;shape-rendering:auto;text-rendering:auto;enable-background:accumulate;stop-color:#000000"
         d="m 83.536036,72.553626 c -3.18798,0.82226 -6.33709,1.89537 -9.42058,3.22297 -8.85397,3.81208 -16.56195,9.46343 -22.74276,16.40548 -3.90159,3.86872 2.02087,11.065604 6.9395,7.18647 5.01853,-5.79664 11.27439,-10.5771 18.48644,-13.89936 16.71793,-7.70096 36.048204,-6.44049 51.534774,3.0537 0.59698,0.36589 1.18814,0.74401 1.7731,1.13431 l -2.98816,-0.16972 v 0.001 c -2.7196,-0.13215 -5.05877,1.97304 -5.21352,4.69145 -0.15468,2.71846 1.93046,5.07543 4.6476,5.25268 v -0.001 l 17.46567,0.993524 c 2.73421,0.15549 5.09954,-1.955004 5.25514,-4.689044 l 0.99529,-17.48565 4.6e-4,-0.005 c 0.13127,-2.7188 -1.97414,-5.05685 -4.69167,-5.21153 -2.71752,-0.15461 -5.07406,1.92947 -5.25237,4.64552 l -3.1e-4,0.005 -0.39089,6.87011 C 123.93312,71.858076 103.01824,67.528486 83.536186,72.553576 Z"
         sodipodi:nodetypes="sscccsccssccccccssccss"
         inkscape:export-xdpi="96.059502"
         inkscape:export-ydpi="96.059502" />
      <path
         id="path865"
         style="color:#000000;font-style:normal;font-variant:normal;font-weight:normal;font-stretch:normal;font-size:medium;line-height:normal;font-family:sans-serif;font-variant-ligatures:normal;font-variant-position:normal;font-variant-caps:normal;font-variant-numeric:normal;font-variant-alternates:normal;font-variant-east-asian:normal;font-feature-settings:normal;font-variation-settings:normal;text-indent:0;text-align:start;text-decoration:none;text-decoration-line:none;text-decoration-style:solid;text-decoration-color:#000000;letter-spacing:normal;word-spacing:normal;text-transform:none;writing-mode:lr-tb;direction:ltr;text-orientation:mixed;dominant-baseline:auto;baseline-shift:baseline;text-anchor:start;white-space:normal;shape-padding:0;shape-margin:0;inline-size:0;clip-rule:nonzero;display:inline;overflow:visible;visibility:visible;isolation:auto;mix-blend-mode:normal;color-interpolation:sRGB;color-interpolation-filters:linearRGB;solid-color:#000000;solid-opacity:1;vector-effect:none;fill:#00467a;fill-opacity:1;fill-rule:nonzero;stroke:none;stroke-width:0.716627;stroke-linecap:round;stroke-linejoin:round;stroke-miterlimit:4;stroke-dasharray:none;stroke-dashoffset:0;stroke-opacity:1;color-rendering:auto;image-rendering:auto;shape-rendering:auto;text-rendering:auto;enable-background:accumulate;stop-color:#000000"
         d="m 66.204456,106.14748 c -18.58015,0 -33.76235,15.16114 -33.76235,33.71752 0,18.55644 15.18228,33.7179 33.76235,33.7179 18.58023,0 33.75821,-15.16253 33.75821,-33.7179 0,-18.55528 -15.17798,-33.71752 -33.75821,-33.71752 z m 0,11.47273 c 12.37394,0 22.27147,9.88753 22.27147,22.24479 0,12.35734 -9.89745,22.24485 -22.27147,22.24485 -12.37387,0 -22.27559,-9.88865 -22.27559,-22.24485 0,-12.35604 9.9018,-22.24479 22.27559,-22.24479 z m 79.992494,10.91235 c -15.5226,0 -28.22602,12.68558 -28.22602,28.1886 0,15.50301 12.70334,28.18852 28.22602,28.18852 15.52267,0 28.22425,-12.68551 28.22425,-28.18852 0,-15.50302 -12.70158,-28.1886 -28.22425,-28.1886 z m 0,11.47274 c 9.31715,0 16.73751,7.41239 16.73751,16.71586 0,9.30354 -7.42044,16.71579 -16.73751,16.71579 -9.31693,0 -16.73928,-7.41233 -16.73928,-16.71579 0,-9.30347 7.42227,-16.71586 16.73928,-16.71586 z m -79.996854,38.86715 c -7.00743,0 -14.02465,0.53961 -20.9828,1.6488 -0.0213,0.008 -0.0427,0.008 -0.0643,0.01 h -3.8e-4 l -1.35718,0.23239 c -21.45811,3.42175 -37.3706603,22.03946 -37.3706603,43.74425 0,13.30483 10.9592703,24.25555 24.2829203,24.25555 h 70.985374 c 13.32349,0 24.28868,-10.94881 24.28868,-24.25555 0,-21.70716 -15.91702,-40.32441 -37.377104,-43.74524 l -1.35818,-0.23278 c 0,0 -0.008,0 -0.0107,0 -0.0214,-0.008 -0.0421,-0.008 -0.0635,-0.009 -6.95488,-1.10843 -13.9646,-1.64742 -20.96805,-1.64742 z m 0,11.47282 h 0.008 c 6.41734,0 12.82405,0.49409 19.16673,1.50537 0,0 0.008,0 0.009,0 0,0 0,0 0.008,0 l 1.34588,0.23048 c 0,0 0.008,0 0.0107,0 0.0176,0 0.0352,0.008 0.0528,0.008 15.939664,2.54082 27.700334,16.29911 27.700334,32.41616 0,7.01126 -5.77989,12.78251 -12.80193,12.78251 H 30.714276 c -7.02196,0 -12.79649,-5.76988 -12.79649,-12.78251 0,-16.11659 11.75821,-29.8755 27.69696,-32.41586 v 0 c 0.0213,-0.008 0.0427,-0.008 0.0643,-0.01 4.6e-4,0 0,0 0,0 l 1.35722,-0.23109 c 6.34159,-1.01075 12.75006,-1.50545 19.1664,-1.50545 z m 79.994174,0.17425 c -2.8722,0.062 -11.47725,0.56676 -8.61171,0.35166 -1.83308,0.14848 -3.6611,0.34316 -5.48355,0.58213 -1.49099,0.19515 -2.8924,1.0021 -3.80851,2.19338 -0.91605,1.19127 -1.33532,2.75218 -1.13941,4.24155 0.19583,1.48924 1.00439,2.88896 2.19712,3.80347 1.19273,0.91459 2.75478,1.33279 4.24553,1.13712 1.63748,-0.21465 3.27672,-0.38883 4.91718,-0.52171 2.22611,-0.18022 7.62865,-0.31042 7.73108,-0.31287 5.06956,0 10.13368,0.39579 15.14662,1.19457 0,0 0.008,0 0.0115,0 l 1.09298,0.18504 c 0,0 0,0 0,0 0.0153,0 0.0306,0.008 0.0459,0.008 12.24428,1.9518 21.26769,12.51034 21.26769,24.89108 0,5.00446 -4.12292,9.12194 -9.1354,9.12194 h -40.52193 c -1.50338,0 -2.99758,0.61794 -4.06087,1.67986 -1.0633,1.06184 -1.68246,2.55459 -1.68246,4.05659 0,1.502 0.61916,2.99467 1.68246,4.05651 1.06329,1.06185 2.55749,1.67986 4.06087,1.67986 h 40.52193 c 11.31263,0 20.62214,-9.29612 20.62214,-20.59476 0,-17.96764 -13.17593,-33.38506 -30.93872,-36.21924 v 0 l -1.09405,-0.18566 c -0.016,0 -0.0329,-0.008 -0.0489,-0.008 -5.51385,-0.87917 -11.07336,-1.30617 -16.62698,-1.32583 v 0 c -0.008,0 -0.008,0 -0.0145,0 h 0.0398 c -0.13379,-0.01 -0.26789,-0.0145 -0.40206,-0.0153 0,0 0,0 0,0 h -0.008 v 0 c 0,0 0,0 0,0 z m 15.27215,12.67595 c 0,8e-5 0.008,8e-5 0.008,0 0.008,0 0.008,0 0.0122,0 z"
         sodipodi:nodetypes="sssssssssssssssssssscssccssssccsccccsscccscssssccscccccccssscscsccccsssssssssccccssccsscscccscc"
         inkscape:export-xdpi="96"
         inkscape:export-ydpi="96" />
      <path
         id="path1233"
         style="color:#000000;font-style:normal;font-variant:normal;font-weight:normal;font-stretch:normal;font-size:medium;line-height:normal;font-family:sans-serif;font-variant-ligatures:normal;font-variant-position:normal;font-variant-caps:normal;font-variant-numeric:normal;font-variant-alternates:normal;font-variant-east-asian:normal;font-feature-settings:normal;font-variation-settings:normal;text-indent:0;text-align:start;text-decoration:none;text-decoration-line:none;text-decoration-style:solid;text-decoration-color:#000000;letter-spacing:normal;word-spacing:normal;text-transform:none;writing-mode:lr-tb;direction:ltr;text-orientation:mixed;dominant-baseline:auto;baseline-shift:baseline;text-anchor:start;white-space:normal;shape-padding:0;shape-margin:0;inline-size:0;clip-rule:nonzero;display:inline;overflow:visible;visibility:visible;isolation:auto;mix-blend-mode:normal;color-interpolation:sRGB;color-interpolation-filters:linearRGB;solid-color:#000000;solid-opacity:1;vector-effect:none;fill:#00467a;fill-opacity:1;fill-rule:nonzero;stroke:none;stroke-width:0.716627;stroke-linecap:round;stroke-linejoin:round;stroke-miterlimit:4;stroke-dasharray:none;stroke-dashoffset:0;stroke-opacity:1;color-rendering:auto;image-rendering:auto;shape-rendering:auto;text-rendering:auto;enable-background:accumulate;stop-color:#000000"
         d="m 66.204456,106.14748 c -18.58015,0 -33.76235,15.16114 -33.76235,33.71752 0,18.55644 15.18228,33.7179 33.76235,33.7179 18.58023,0 33.75821,-15.16253 33.75821,-33.7179 0,-18.55528 -15.17798,-33.71752 -33.75821,-33.71752 z m 0,11.47273 c 12.37394,0 22.27147,9.88753 22.27147,22.24479 0,12.35734 -9.89745,22.24485 -22.27147,22.24485 -12.37387,0 -22.27559,-9.88865 -22.27559,-22.24485 0,-12.35604 9.9018,-22.24479 22.27559,-22.24479 z m 79.992494,10.91235 c -15.5226,0 -28.22602,12.68558 -28.22602,28.1886 0,15.50301 12.70334,28.18852 28.22602,28.18852 15.52267,0 28.22425,-12.68551 28.22425,-28.18852 0,-15.50302 -12.70158,-28.1886 -28.22425,-28.1886 z m 0,11.47274 c 9.31715,0 16.73751,7.41239 16.73751,16.71586 0,9.30354 -7.42044,16.71579 -16.73751,16.71579 -9.31693,0 -16.73928,-7.41233 -16.73928,-16.71579 0,-9.30347 7.42227,-16.71586 16.73928,-16.71586 z m -79.996854,38.86715 c -7.00743,0 -14.02465,0.53961 -20.9828,1.6488 -0.0213,0.008 -0.0427,0.008 -0.0643,0.01 h -3.8e-4 l -1.35718,0.23239 c -21.45811,3.42175 -37.3706603,22.03946 -37.3706603,43.74425 0,13.30483 10.9592703,24.25555 24.2829203,24.25555 h 70.985374 c 13.32349,0 24.28868,-10.94881 24.28868,-24.25555 0,-21.70716 -15.91702,-40.32441 -37.377104,-43.74524 l -1.35818,-0.23278 c 0,0 -0.008,0 -0.0107,0 -0.0214,-0.008 -0.0421,-0.008 -0.0635,-0.009 -6.95488,-1.10843 -13.9646,-1.64742 -20.96805,-1.64742 z m 0,11.47282 h 0.008 c 6.41734,0 12.82405,0.49409 19.16673,1.50537 0,0 0.008,0 0.009,0 0,0 0,0 0.008,0 l 1.34588,0.23048 c 0,0 0.008,0 0.0107,0 0.0176,0 0.0352,0.008 0.0528,0.008 15.939664,2.54082 27.700334,16.29911 27.700334,32.41616 0,7.01126 -5.77989,12.78251 -12.80193,12.78251 H 30.714276 c -7.02196,0 -12.79649,-5.76988 -12.79649,-12.78251 0,-16.11659 11.75821,-29.8755 27.69696,-32.41586 v 0 c 0.0213,-0.008 0.0427,-0.008 0.0643,-0.01 4.6e-4,0 0,0 0,0 l 1.35722,-0.23109 c 6.34159,-1.01075 12.75006,-1.50545 19.1664,-1.50545 z m 79.994174,0.17425 c -2.8722,0.062 -11.47725,0.56676 -8.61171,0.35166 -1.83308,0.14848 -3.6611,0.34316 -5.48355,0.58213 -1.49099,0.19515 -2.8924,1.0021 -3.80851,2.19338 -0.91605,1.19127 -1.33532,2.75218 -1.13941,4.24155 0.19583,1.48924 1.00439,2.88896 2.19712,3.80347 1.19273,0.91459 2.75478,1.33279 4.24553,1.13712 1.63748,-0.21465 3.27672,-0.38883 4.91718,-0.52171 2.22611,-0.18022 7.62865,-0.31042 7.73108,-0.31287 5.06956,0 10.13368,0.39579 15.14662,1.19457 0,0 0.008,0 0.0115,0 l 1.09298,0.18504 c 0,0 0,0 0,0 0.0153,0 0.0306,0.008 0.0459,0.008 12.24428,1.9518 21.26769,12.51034 21.26769,24.89108 0,5.00446 -4.12292,9.12194 -9.1354,9.12194 h -40.52193 c -1.50338,0 -2.99758,0.61794 -4.06087,1.67986 -1.0633,1.06184 -1.68246,2.55459 -1.68246,4.05659 0,1.502 0.61916,2.99467 1.68246,4.05651 1.06329,1.06185 2.55749,1.67986 4.06087,1.67986 h 40.52193 c 11.31263,0 20.62214,-9.29612 20.62214,-20.59476 0,-17.96764 -13.17593,-33.38506 -30.93872,-36.21924 v 0 l -1.09405,-0.18566 c -0.016,0 -0.0329,-0.008 -0.0489,-0.008 -5.51385,-0.87917 -11.07336,-1.30617 -16.62698,-1.32583 v 0 c -0.008,0 -0.008,0 -0.0145,0 h 0.0398 c -0.13379,-0.01 -0.26789,-0.0145 -0.40206,-0.0153 0,0 0,0 0,0 h -0.008 v 0 c 0,0 0,0 0,0 z m 15.27215,12.67595 c 0,8e-5 0.008,8e-5 0.008,0 0.008,0 0.008,0 0.0122,0 z"
         sodipodi:nodetypes="sssssssssssssssssssscssccssssccsccccsscccscssssccscccccccssscscsccccsssssssssccccssccsscscccscc"
         inkscape:export-xdpi="96"
         inkscape:export-ydpi="96" />
    </g>
  </g>
</svg>
