<?xml version="1.0" encoding="UTF-8" standalone="no"?>
<svg
   xmlns:dc="http://purl.org/dc/elements/1.1/"
   xmlns:cc="http://creativecommons.org/ns#"
   xmlns:rdf="http://www.w3.org/1999/02/22-rdf-syntax-ns#"
   xmlns:svg="http://www.w3.org/2000/svg"
   xmlns="http://www.w3.org/2000/svg"
   xmlns:sodipodi="http://sodipodi.sourceforge.net/DTD/sodipodi-0.dtd"
   xmlns:inkscape="http://www.inkscape.org/namespaces/inkscape"
   width="186.06114mm"
   height="186.06114mm"
   viewBox="0 0 186.06115 186.06115"
   version="1.1"
   id="svg261"
   inkscape:version="1.0.2-2 (e86c870879, 2021-01-15)"
   sodipodi:docname="remove.svg">
  <defs
     id="defs255" />
  <sodipodi:namedview
     id="base"
     pagecolor="#ffffff"
     bordercolor="#666666"
     borderopacity="1.0"
     inkscape:pageopacity="0.0"
     inkscape:pageshadow="2"
     inkscape:zoom="0.35"
     inkscape:cx="1107.7709"
     inkscape:cy="493.68083"
     inkscape:document-units="mm"
     inkscape:current-layer="layer1"
     inkscape:document-rotation="0"
     showgrid="false"
     inkscape:window-width="1267"
     inkscape:window-height="1041"
     inkscape:window-x="182"
     inkscape:window-y="0"
     inkscape:window-maximized="0"
     inkscape:snap-page="true" />
  <metadata
     id="metadata258">
    <rdf:RDF>
      <cc:Work
         rdf:about="">
        <dc:format>image/svg+xml</dc:format>
        <dc:type
           rdf:resource="http://purl.org/dc/dcmitype/StillImage" />
        <dc:title />
      </cc:Work>
    </rdf:RDF>
  </metadata>
  <g
     inkscape:label="Layer 1"
     inkscape:groupmode="layer"
     id="layer1"
     transform="translate(290.31323,113.79839)">
    <path
       d="m -197.28275,-83.715289 c -56.08412,5.3e-5 -84.16093,67.803239 -44.5083,107.455859 39.65265,39.65267 107.4559,11.57577 107.4559,-44.50833 0,-34.76496 -28.18263,-62.947581 -62.9476,-62.947529 z m 0,116.902469 c -48.07217,-5e-5 -72.13795,-58.11709 -38.15001,-92.10505 33.98813,-33.987966 92.10507,-9.92203 92.10507,38.15011 -8e-5,29.7985 -24.15659,53.95494 -53.95506,53.95494 z m 31.47384,-53.95494 c 0,2.48324 -2.0131,4.49624 -4.49628,4.49624 h -22.48129 -8.99247 -22.48128 c -5.98213,-0.0105 -5.98213,-8.97969 0,-8.99249 h 22.48128 8.99247 22.48129 c 2.48318,0 4.49628,2.01301 4.49628,4.49625 z"
       id="path6214"
       style="fill:#ff5778;fill-opacity:1;stroke-width:4.23332"
       sodipodi:nodetypes="ssssssssssccccccss"
       inkscape:export-xdpi="97"
       inkscape:export-ydpi="97" />
  </g>
</svg>
