<?xml version="1.0" encoding="UTF-8" standalone="no"?>
<svg
   xmlns:dc="http://purl.org/dc/elements/1.1/"
   xmlns:cc="http://creativecommons.org/ns#"
   xmlns:rdf="http://www.w3.org/1999/02/22-rdf-syntax-ns#"
   xmlns:svg="http://www.w3.org/2000/svg"
   xmlns="http://www.w3.org/2000/svg"
   xmlns:sodipodi="http://sodipodi.sourceforge.net/DTD/sodipodi-0.dtd"
   xmlns:inkscape="http://www.inkscape.org/namespaces/inkscape"
   width="186.06114mm"
   height="186.06114mm"
   viewBox="0 0 186.06114 186.06115"
   version="1.1"
   id="svg8"
   inkscape:version="1.0.2-2 (e86c870879, 2021-01-15)"
   sodipodi:docname="replace.svg">
  <defs
     id="defs2" />
  <sodipodi:namedview
     id="base"
     pagecolor="#ffffff"
     bordercolor="#666666"
     borderopacity="1.0"
     inkscape:pageopacity="0.0"
     inkscape:pageshadow="2"
     inkscape:zoom="0.98994949"
     inkscape:cx="540.98604"
     inkscape:cy="344.91454"
     inkscape:document-units="mm"
     inkscape:current-layer="layer1"
     inkscape:document-rotation="0"
     showgrid="false"
     inkscape:window-width="1920"
     inkscape:window-height="1017"
     inkscape:window-x="-8"
     inkscape:window-y="-8"
     inkscape:window-maximized="1"
     showguides="false" />
  <metadata
     id="metadata5">
    <rdf:RDF>
      <cc:Work
         rdf:about="">
        <dc:format>image/svg+xml</dc:format>
        <dc:type
           rdf:resource="http://purl.org/dc/dcmitype/StillImage" />
        <dc:title></dc:title>
      </cc:Work>
    </rdf:RDF>
  </metadata>
  <g
     inkscape:label="Layer 1"
     inkscape:groupmode="layer"
     id="layer1"
     transform="translate(414.25296,-663.72083)">
    <path
       d="m -272.62491,781.22089 -28.00004,-28.00006 h 21.00003 c 0,-23.17 -18.83006,-42.00004 -42.00004,-42.00004 -7.07005,0 -13.79006,1.74999 -19.60008,4.90005 l -10.21994,-10.2201 c 8.61007,-5.45999 18.83004,-8.67991 29.82002,-8.67991 30.94006,0 55.99998,25.05993 55.99998,56 h 21.00002 z M -363.625,753.22083 c 0,23.17 18.83004,42.00003 42.00004,42.00003 7.07002,0 13.79002,-1.74998 19.60007,-4.90004 l 10.21995,10.22009 c -8.60993,5.46001 -18.83004,8.67992 -29.82002,8.67992 -30.94007,0 -56,-25.05993 -56,-56 h -21 l 27.99994,-28.00007 28.00005,28.00007 z"
       id="path4"
       style="fill:#00467a;fill-opacity:1;stroke-width:6.99999" />
  </g>
</svg>
