<?xml version="1.0" encoding="UTF-8" standalone="no"?>
<svg
   width="210.02098mm"
   height="210mm"
   viewBox="0 0 210.02099 210"
   version="1.1"
   id="svg1491"
   inkscape:version="1.1 (c68e22c387, 2021-05-23)"
   sodipodi:docname="Reports_line.svg"
   xmlns:inkscape="http://www.inkscape.org/namespaces/inkscape"
   xmlns:sodipodi="http://sodipodi.sourceforge.net/DTD/sodipodi-0.dtd"
   xmlns="http://www.w3.org/2000/svg"
   xmlns:svg="http://www.w3.org/2000/svg"
   xmlns:rdf="http://www.w3.org/1999/02/22-rdf-syntax-ns#"
   xmlns:cc="http://creativecommons.org/ns#"
   xmlns:dc="http://purl.org/dc/elements/1.1/">
  <defs
     id="defs1485" />
  <sodipodi:namedview
     id="base"
     pagecolor="#ffffff"
     bordercolor="#666666"
     borderopacity="1.0"
     inkscape:pageopacity="0.0"
     inkscape:pageshadow="2"
     inkscape:zoom="0.24748737"
     inkscape:cx="583.86818"
     inkscape:cy="-143.44166"
     inkscape:document-units="mm"
     inkscape:current-layer="layer1"
     inkscape:document-rotation="0"
     showgrid="false"
     fit-margin-top="0"
     fit-margin-left="0"
     fit-margin-right="0"
     fit-margin-bottom="0"
     inkscape:window-width="1366"
     inkscape:window-height="705"
     inkscape:window-x="-8"
     inkscape:window-y="-8"
     inkscape:window-maximized="1"
     inkscape:pagecheckerboard="0" />
  <metadata
     id="metadata1488">
    <rdf:RDF>
      <cc:Work
         rdf:about="">
        <dc:format>image/svg+xml</dc:format>
        <dc:type
           rdf:resource="http://purl.org/dc/dcmitype/StillImage" />
        <dc:title />
      </cc:Work>
    </rdf:RDF>
  </metadata>
  <g
     inkscape:label="Layer 1"
     inkscape:groupmode="layer"
     id="layer1"
     transform="translate(-48.738702,-396.38833)">
    <path
       id="path4093"
       style="fill:#00467a;fill-opacity:1;stroke:none;stroke-width:4.11635;stroke-linejoin:round;stroke-miterlimit:4;stroke-dasharray:none;stroke-opacity:1"
       d="m 153.75158,606.38833 a 105.01219,104.99931 0 0 0 105.00811,-105.00016 7.5008707,7.4999508 0 0 0 -7.49808,-7.49718 h -90.01198 v -90.00105 a 7.5008707,7.4999508 0 0 0 -7.49805,-7.50161 105.01288,105 0 0 0 0,210 z m 0.10918,-15.34015 a 90.010448,89.99941 0 0 1 -7.61161,-179.6568 v 89.99679 a 7.5008707,7.4999508 0 0 0 7.50246,7.50169 h 90.00759 a 90.010448,89.99941 0 0 1 -89.89844,82.15832 z m 93.0192,-112.1515 a 7.5008707,7.4999508 0 0 0 7.15684,-9.83444 105.01219,104.99931 0 0 0 -67.50898,-67.49623 7.5008707,7.4999508 0 0 0 -9.82719,7.49714 v 62.32764 a 7.5008707,7.4999508 0 0 0 7.05203,7.49716 h 62.78166 a 7.5008707,7.4999508 0 0 0 0.34198,0.006 z m -11.37194,-15.00737 h -44.25288 v -44.24784 a 90.010448,89.99941 0 0 1 44.25288,44.24784 z"
       inkscape:export-xdpi="97"
       inkscape:export-ydpi="97" />
  </g>
</svg>
