<?xml version="1.0" encoding="UTF-8" standalone="no"?>
<svg
   width="210mm"
   height="210mm"
   viewBox="0 0 210 210"
   version="1.1"
   id="svg2376"
   inkscape:version="1.1 (c68e22c387, 2021-05-23)"
   sodipodi:docname="Reports.svg"
   xmlns:inkscape="http://www.inkscape.org/namespaces/inkscape"
   xmlns:sodipodi="http://sodipodi.sourceforge.net/DTD/sodipodi-0.dtd"
   xmlns="http://www.w3.org/2000/svg"
   xmlns:svg="http://www.w3.org/2000/svg"
   xmlns:rdf="http://www.w3.org/1999/02/22-rdf-syntax-ns#"
   xmlns:cc="http://creativecommons.org/ns#"
   xmlns:dc="http://purl.org/dc/elements/1.1/">
  <defs
     id="defs2370" />
  <sodipodi:namedview
     id="base"
     pagecolor="#ffffff"
     bordercolor="#666666"
     borderopacity="1.0"
     inkscape:pageopacity="0.0"
     inkscape:pageshadow="2"
     inkscape:zoom="0.12374369"
     inkscape:cx="3236.5287"
     inkscape:cy="-998.03069"
     inkscape:document-units="mm"
     inkscape:current-layer="layer1"
     inkscape:document-rotation="0"
     showgrid="false"
     fit-margin-top="0"
     fit-margin-left="0"
     fit-margin-right="0"
     fit-margin-bottom="0"
     inkscape:window-width="1366"
     inkscape:window-height="705"
     inkscape:window-x="-8"
     inkscape:window-y="-8"
     inkscape:window-maximized="1"
     inkscape:pagecheckerboard="0" />
  <metadata
     id="metadata2373">
    <rdf:RDF>
      <cc:Work
         rdf:about="">
        <dc:format>image/svg+xml</dc:format>
        <dc:type
           rdf:resource="http://purl.org/dc/dcmitype/StillImage" />
        <dc:title />
      </cc:Work>
    </rdf:RDF>
  </metadata>
  <g
     inkscape:label="Layer 1"
     inkscape:groupmode="layer"
     id="layer1"
     transform="translate(33.272334,-761.22058)">
    <g
       id="g3095"
       transform="matrix(0.94080249,0,0,0.94064052,-1.9696393,45.185657)">
      <path
         style="fill:#00467a;fill-opacity:1;stroke:none;stroke-width:4.37583;stroke-linejoin:round;stroke-miterlimit:4;stroke-dasharray:none;stroke-opacity:1"
         d="m 165.22539,832.98125 h -47.03974 v -47.04012 a 95.678861,95.678861 0 0 1 47.03974,47.04012 z"
         id="path2520"
         inkscape:export-xdpi="97"
         inkscape:export-ydpi="97" />
      <path
         style="fill:#00467a;fill-opacity:1;stroke:none;stroke-width:4.37583;stroke-linejoin:round;stroke-miterlimit:4;stroke-dasharray:none;stroke-opacity:1"
         d="m 177.31345,848.93566 a 7.9732386,7.9732386 0 0 0 7.60752,-10.45504 111.62534,111.62534 0 0 0 -71.76036,-71.75564 7.9732386,7.9732386 0 0 0 -10.44603,7.97028 v 66.26082 a 7.9732386,7.9732386 0 0 0 7.49615,7.97028 h 66.73533 a 7.9732386,7.9732386 0 0 0 0.36352,0.007 z"
         id="path2518"
         inkscape:export-xdpi="97"
         inkscape:export-ydpi="97" />
      <path
         style="fill:#00467a;fill-opacity:1;stroke:none;stroke-width:4.37583;stroke-linejoin:round;stroke-miterlimit:4;stroke-dasharray:none;stroke-opacity:1"
         d="m 78.436345,968.16453 a 95.678861,95.678861 0 0 1 -8.09094,-190.99412 v 95.67609 a 7.9732386,7.9732386 0 0 0 7.97492,7.97507 h 95.675835 a 95.678861,95.678861 0 0 1 -95.559815,87.34296 z"
         id="path2516"
         inkscape:export-xdpi="97"
         inkscape:export-ydpi="97" />
      <path
         style="fill:#00467a;fill-opacity:1;stroke:none;stroke-width:4.37583;stroke-linejoin:round;stroke-miterlimit:4;stroke-dasharray:none;stroke-opacity:1"
         d="M 78.320325,984.47271 A 111.62534,111.62534 0 0 0 189.94136,872.8465 7.9732386,7.9732386 0 0 0 181.97108,864.87622 H 86.290605 v -95.68064 a 7.9732386,7.9732386 0 0 0 -7.97028,-7.975 111.62607,111.62607 0 0 0 0,223.25213 z"
         id="path2149"
         inkscape:export-xdpi="97"
         inkscape:export-ydpi="97" />
    </g>
  </g>
</svg>
