<?xml version="1.0" encoding="UTF-8" standalone="no"?>
<svg
   xmlns:dc="http://purl.org/dc/elements/1.1/"
   xmlns:cc="http://creativecommons.org/ns#"
   xmlns:rdf="http://www.w3.org/1999/02/22-rdf-syntax-ns#"
   xmlns:svg="http://www.w3.org/2000/svg"
   xmlns="http://www.w3.org/2000/svg"
   xmlns:sodipodi="http://sodipodi.sourceforge.net/DTD/sodipodi-0.dtd"
   xmlns:inkscape="http://www.inkscape.org/namespaces/inkscape"
   width="186mm"
   height="186mm"
   viewBox="0 0 186 186"
   version="1.1"
   id="svg261"
   inkscape:version="1.0.2-2 (e86c870879, 2021-01-15)"
   sodipodi:docname="Save.svg">
  <defs
     id="defs255" />
  <sodipodi:namedview
     id="base"
     pagecolor="#ffffff"
     bordercolor="#666666"
     borderopacity="1.0"
     inkscape:pageopacity="0.0"
     inkscape:pageshadow="2"
     inkscape:zoom="0.35"
     inkscape:cx="307.65541"
     inkscape:cy="1187.8511"
     inkscape:document-units="mm"
     inkscape:current-layer="layer1"
     inkscape:document-rotation="0"
     showgrid="false"
     inkscape:window-width="1267"
     inkscape:window-height="1041"
     inkscape:window-x="182"
     inkscape:window-y="0"
     inkscape:window-maximized="0"
     inkscape:snap-page="true" />
  <metadata
     id="metadata258">
    <rdf:RDF>
      <cc:Work
         rdf:about="">
        <dc:format>image/svg+xml</dc:format>
        <dc:type
           rdf:resource="http://purl.org/dc/dcmitype/StillImage" />
        <dc:title />
      </cc:Work>
    </rdf:RDF>
  </metadata>
  <g
     inkscape:label="Layer 1"
     inkscape:groupmode="layer"
     id="layer1"
     transform="translate(78.616005,297.46426)">
    <path
       id="path22137"
       style="fill:#00467a;fill-opacity:1;stroke-width:1.26439"
       sodipodi:type="inkscape:offset"
       inkscape:radius="4.021112"
       inkscape:original="M 55.166016 0 C 24.748016 0 0 24.748969 0 55.167969 L 0 456.83203 C 0 487.25103 24.748016 512 55.166016 512 L 111.39844 512 L 400.59961 512 L 456.83203 512 C 487.25203 512 512 487.25103 512 456.83203 L 512 111.40039 C 512 107.42239 510.41847 103.60792 507.60547 100.79492 L 411.20508 4.3945312 C 408.39208 1.5815313 404.57761 0 400.59961 0 L 368.4668 0 L 111.39844 0 L 55.166016 0 z M 55.166016 30 L 96.398438 30 L 96.398438 151.56641 C 96.398438 181.98541 121.14741 206.73242 151.56641 206.73242 L 328.30078 206.73242 C 358.71978 206.73242 383.4668 181.98541 383.4668 151.56641 L 383.4668 30 L 394.38672 30 L 482 117.61328 L 482 456.83203 C 482 470.70903 470.70903 482 456.83203 482 L 415.59961 482 L 415.59961 328.30078 C 415.59961 297.88278 390.85259 273.13477 360.43359 273.13477 L 151.56641 273.13477 C 121.14741 273.13477 96.398437 297.88278 96.398438 328.30078 L 96.398438 482 L 55.166016 482 C 41.290016 482 30 470.70903 30 456.83203 L 30 55.167969 C 30 41.290969 41.290016 30 55.166016 30 z M 126.39844 30 L 353.4668 30 L 353.4668 151.56641 C 353.4668 165.44341 342.17778 176.73242 328.30078 176.73242 L 151.56641 176.73242 C 137.68941 176.73242 126.39844 165.44341 126.39844 151.56641 L 126.39844 30 z M 151.56641 303.13477 L 360.43164 303.13477 C 374.30864 303.13477 385.59961 314.42478 385.59961 328.30078 L 385.59961 482 L 126.39844 482 L 126.39844 328.30078 C 126.39844 314.42478 137.68941 303.13477 151.56641 303.13477 z "
       transform="matrix(0.21652563,0,0,0.21652563,-41.04671,-259.89482)"
       inkscape:export-xdpi="97"
       inkscape:export-ydpi="97"
       d="m 55.166016,-4.0214844 c -32.599129,0 -59.1875004,26.5894794 -59.1875004,59.1894534 V 456.83203 c 0,32.59997 26.5883704,59.18945 59.1875004,59.18945 h 56.232424 289.20117 56.23242 c 32.60099,0 59.18945,-26.58948 59.18945,-59.18945 V 111.40039 c 0,-5.04378 -2.00692,-9.88387 -5.57226,-13.449218 L 414.04883,1.5507812 c -3.56535,-3.5653447 -8.40544,-5.5722656 -13.44922,-5.5722656 H 368.4668 111.39844 Z m 0,38.0429684 H 92.376953 V 151.56641 c 0,32.60005 26.589567,59.1875 59.189457,59.1875 h 176.73437 c 32.59989,0 59.1875,-26.58762 59.1875,-59.1875 V 34.021484 h 5.23242 l 85.25782,85.257816 v 337.55273 c 0,11.69583 -9.45066,21.14649 -21.14649,21.14649 H 419.62109 V 328.30078 c 0,-32.59896 -26.58752,-59.1875 -59.1875,-59.1875 H 151.56641 c -32.59998,0 -59.189458,26.58837 -59.189457,59.1875 V 477.97852 H 55.166016 c -11.694668,0 -21.144532,-9.45048 -21.144532,-21.14649 V 55.167969 c 0,-11.696009 9.449864,-21.146485 21.144532,-21.146485 z m 75.253904,0 H 349.44531 V 151.56641 c 0,11.6962 -9.44833,21.14453 -21.14453,21.14453 H 151.56641 c -11.69621,0 -21.14649,-9.44871 -21.14649,-21.14453 z m 21.14649,273.134766 h 208.86523 c 11.69601,0 21.14648,9.44986 21.14648,21.14453 V 477.97852 H 130.41992 V 328.30078 c 0,-11.69467 9.45048,-21.14453 21.14649,-21.14453 z" />
  </g>
</svg>
