<?xml version="1.0" encoding="UTF-8" standalone="no"?>
<svg
   width="210.00002mm"
   height="209.99991mm"
   viewBox="0 0 210.00002 209.99991"
   version="1.1"
   id="svg2376"
   inkscape:version="1.1 (c68e22c387, 2021-05-23)"
   sodipodi:docname="Settings.svg"
   xmlns:inkscape="http://www.inkscape.org/namespaces/inkscape"
   xmlns:sodipodi="http://sodipodi.sourceforge.net/DTD/sodipodi-0.dtd"
   xmlns="http://www.w3.org/2000/svg"
   xmlns:svg="http://www.w3.org/2000/svg"
   xmlns:rdf="http://www.w3.org/1999/02/22-rdf-syntax-ns#"
   xmlns:cc="http://creativecommons.org/ns#"
   xmlns:dc="http://purl.org/dc/elements/1.1/">
  <defs
     id="defs2370" />
  <sodipodi:namedview
     id="base"
     pagecolor="#ffffff"
     bordercolor="#666666"
     borderopacity="1.0"
     inkscape:pageopacity="0.0"
     inkscape:pageshadow="2"
     inkscape:zoom="0.12374369"
     inkscape:cx="-92.934032"
     inkscape:cy="-998.03069"
     inkscape:document-units="mm"
     inkscape:current-layer="layer1"
     inkscape:document-rotation="0"
     showgrid="false"
     fit-margin-top="0"
     fit-margin-left="0"
     fit-margin-right="0"
     fit-margin-bottom="0"
     inkscape:window-width="1366"
     inkscape:window-height="705"
     inkscape:window-x="-8"
     inkscape:window-y="-8"
     inkscape:window-maximized="1"
     inkscape:pagecheckerboard="0" />
  <metadata
     id="metadata2373">
    <rdf:RDF>
      <cc:Work
         rdf:about="">
        <dc:format>image/svg+xml</dc:format>
        <dc:type
           rdf:resource="http://purl.org/dc/dcmitype/StillImage" />
        <dc:title />
      </cc:Work>
    </rdf:RDF>
  </metadata>
  <g
     inkscape:label="Layer 1"
     inkscape:groupmode="layer"
     id="layer1"
     transform="translate(-846.25174,-759.66705)">
    <path
       id="path2043"
       style="fill:#00467a;fill-opacity:1;stroke-width:0.414424"
       d="m 966.22855,759.66705 -30.03329,0.0214 c -7.89672,7.7e-4 -14.84826,5.33398 -16.55662,12.68521 l -3.67016,15.57354 c -5.84126,2.42665 -11.42695,5.51833 -16.68877,9.24775 l -15.88847,-4.79081 c -7.64641,-2.24484 -16.02811,0.83192 -19.86171,7.37906 l -15.08466,24.90273 a 1.3903958,1.3274637 0 0 0 0,0.0214 c -3.86305,6.57863 -2.53054,14.81266 3.2701,20.02308 l 12.23784,10.74943 c -0.33067,3.10029 -0.53959,6.18042 -0.53959,9.19961 0,3.01762 0.20221,6.10249 0.54785,9.20334 l -12.30382,10.79765 c -5.74253,5.16316 -7.05677,13.39567 -3.16147,20.04548 a 1.3903958,1.3274637 0 0 0 0,0.0214 l 14.99148,24.75089 c 3.87432,6.60506 12.25174,9.71596 19.94324,7.43455 l 15.85756,-4.7833 c 5.26018,3.72864 10.845,6.82641 16.6847,9.25157 l 3.66636,15.55876 c 1.71585,7.37432 8.66768,12.70717 16.56449,12.70717 h 30.09928 c 7.89429,0 14.84553,-5.33341 16.54496,-12.69979 l 3.67016,-15.57353 c 5.83882,-2.42666 11.42315,-5.52221 16.68469,-9.25156 l 15.8925,4.79068 c 7.6735,2.27337 16.0458,-0.82454 19.8773,-7.36773 l 15.0808,-24.90295 a 1.3903958,1.3274637 0 0 0 0,-0.0214 c 3.8601,-6.57312 2.5389,-14.79041 -3.1926,-19.95277 -0.076,-0.0646 -0.1608,-0.15214 -0.078,-0.0431 a 1.3903958,1.3274637 0 0 0 -0.075,-0.0431 l -12.2418,-10.73833 c 0.3307,-3.09812 0.5396,-6.18433 0.5396,-9.19214 0,-3.00887 -0.2089,-6.09968 -0.5396,-9.19954 l 12.3078,-10.8051 c 5.7433,-5.16316 7.0558,-13.39178 3.1613,-20.04182 a 1.3903958,1.3274637 0 0 0 0,-0.0214 l -14.9953,-24.75092 c -3.8736,-6.60425 -12.2274,-9.69506 -19.9317,-7.43452 l -15.8653,4.78328 c -5.26074,-3.72898 -10.84351,-6.82583 -16.68476,-9.25135 l -3.66238,-15.55875 c -1.71585,-7.37433 -8.67166,-12.71082 -16.56819,-12.71104 z m -14.97972,60.48122 c 25.69878,0 46.62878,19.98512 46.62878,44.52184 0,24.53693 -20.93,44.51848 -46.62878,44.51848 -25.69956,0 -46.62879,-19.98155 -46.62879,-44.51848 0,-24.53656 20.92923,-44.52184 46.62879,-44.52184 z"
       inkscape:export-xdpi="97"
       inkscape:export-ydpi="97" />
  </g>
</svg>
