<?xml version="1.0" encoding="UTF-8" standalone="no"?>
<svg
   width="210mm"
   height="210mm"
   viewBox="0 0 210.00001 210.00001"
   version="1.1"
   id="svg1491"
   inkscape:version="1.1 (c68e22c387, 2021-05-23)"
   sodipodi:docname="Settings_line.svg"
   xmlns:inkscape="http://www.inkscape.org/namespaces/inkscape"
   xmlns:sodipodi="http://sodipodi.sourceforge.net/DTD/sodipodi-0.dtd"
   xmlns="http://www.w3.org/2000/svg"
   xmlns:svg="http://www.w3.org/2000/svg"
   xmlns:rdf="http://www.w3.org/1999/02/22-rdf-syntax-ns#"
   xmlns:cc="http://creativecommons.org/ns#"
   xmlns:dc="http://purl.org/dc/elements/1.1/">
  <defs
     id="defs1485" />
  <sodipodi:namedview
     id="base"
     pagecolor="#ffffff"
     bordercolor="#666666"
     borderopacity="1.0"
     inkscape:pageopacity="0.0"
     inkscape:pageshadow="2"
     inkscape:zoom="0.24748737"
     inkscape:cx="-907.117"
     inkscape:cy="-139.40105"
     inkscape:document-units="mm"
     inkscape:current-layer="layer1"
     inkscape:document-rotation="0"
     showgrid="false"
     fit-margin-top="0"
     fit-margin-left="0"
     fit-margin-right="0"
     fit-margin-bottom="0"
     inkscape:window-width="1366"
     inkscape:window-height="705"
     inkscape:window-x="-8"
     inkscape:window-y="-8"
     inkscape:window-maximized="1"
     inkscape:pagecheckerboard="0" />
  <metadata
     id="metadata1488">
    <rdf:RDF>
      <cc:Work
         rdf:about="">
        <dc:format>image/svg+xml</dc:format>
        <dc:type
           rdf:resource="http://purl.org/dc/dcmitype/StillImage" />
        <dc:title />
      </cc:Work>
    </rdf:RDF>
  </metadata>
  <g
     inkscape:label="Layer 1"
     inkscape:groupmode="layer"
     id="layer1"
     transform="translate(-442.86694,-395.69407)">
    <g
       id="g2958"
       transform="matrix(0.42414558,0,0,0.40494557,444.24023,397.02798)"
       style="fill:#00467a;fill-opacity:1"
       inkscape:export-xdpi="97"
       inkscape:export-ydpi="97">
      <path
         id="path2944"
         style="fill:#00467a;fill-opacity:1;stroke-width:1"
         d="m 208.8268,-3.2775901 c -18.6185,0.00183 -35.0113,13.1749848 -39.0381,31.3285691 v 0 l -8.6515,38.45419 c -13.7717,5.992623 -26.9424,13.634407 -39.3481,22.844205 L 84.323299,77.516049 c -18.0285,-5.543573 -37.7934,2.051842 -46.8311,18.220088 L 1.9329993,157.2371 a 3.2781954,3.2781954 0 0 0 0,0.061 c -9.1079,16.24634 -5.9664,36.58599 7.7101,49.45348 a 3.2781954,3.2781954 0 0 0 0.061,0 l 28.8496997,26.53788 c -0.7852,7.65582 -1.2752,15.26832 -1.2752,22.72463 0,7.45203 0.4881,15.06697 1.2868,22.72462 L 9.5607993,305.40777 a 3.2781954,3.2781954 0 0 0 -0.061,0 c -13.5399,12.75034 -16.6448,33.07901 -7.46,49.50107 a 3.2781954,3.2781954 0 0 0 0,0.061 l 35.3443997,61.11963 c 9.1347,16.31101 28.8887,23.99734 47.0221,18.36347 L 121.8001,422.64402 c 12.4026,9.20796 25.5672,16.85463 39.3358,22.84359 l 8.6394,38.4188 v 0 c 4.0457,18.21094 20.4433,31.38776 39.0618,31.38776 h 70.9628 c 18.6124,0 35.007,-13.17255 39.0143,-31.36396 l 8.6515,-38.46639 c 13.7674,-5.99263 26.9314,-13.6338 39.3364,-22.8436 l 37.4652,11.83272 c 18.0926,5.61434 37.8331,-2.03781 46.8678,-18.1963 l 35.5585,-61.50095 a 3.2781954,3.2781954 0 0 0 0,-0.061 c 9.1,-16.23231 5.9823,-36.52621 -7.5313,-49.27472 -0.1587,-0.15253 -0.3783,-0.37217 -0.1037,-0.0976 a 3.2781954,3.2781954 0 0 0 -0.1099,-0.10982 l -28.8618,-26.52629 c 0.7834,-7.65094 1.2751,-15.2732 1.2751,-22.70083 0,-7.43068 -0.488,-15.05721 -1.2751,-22.71242 l 29.0168,-26.68127 a 3.2781954,3.2781954 0 0 0 0.061,0 c 13.5405,-12.75034 16.6411,-33.07901 7.46,-49.50106 a 3.2781954,3.2781954 0 0 0 0,-0.061 L 451.2687,95.910652 C 442.1358,79.601468 422.4331,71.964564 404.2697,77.547185 L 366.8644,89.356716 C 354.46,80.147527 341.3002,72.502693 327.5279,66.51251 l -8.6393,-38.418192 v 0 C 314.8417,9.8833819 298.4452,-3.2934333 279.8267,-3.2940434 Z m 0,38.5621811 h 70.9627 c 0.6242,0 1.3057,0.512503 1.4893,1.262954 l 10.8443,48.142324 c 1.4338,6.365408 5.9939,11.589887 12.1311,13.84673 16.5532,6.096351 32.2126,15.201201 46.6048,27.038801 5.0433,4.14761 11.8364,5.51063 18.0657,3.52712 l 46.891,-14.81194 c 0.8719,-0.27456 1.6132,-0.004 1.9664,0.61927 a 3.2781954,3.2781954 0 0 0 0,0.061 l 35.3444,61.11963 c 0.4576,0.82184 0.2014,1.88711 -0.2135,2.27576 l -36.0717,33.18761 c -4.6991,4.33736 -6.9438,10.72229 -5.9938,17.04011 1.3831,9.294 2.0732,18.50746 2.0732,27.40792 0,8.89742 -0.6901,18.12674 -2.0732,27.42013 -0.9506,6.31904 1.294,12.72715 6.0054,17.05231 l 35.9405,33.04423 c 0.6455,0.64185 0.723,1.72299 0.4515,2.20438 l -35.5586,61.51316 a 3.2781954,3.2781954 0 0 0 0,0.061 c -0.1708,0.30506 -0.9011,0.70347 -1.7998,0.42708 l -46.9508,-14.82414 c -6.2428,-1.97863 -13.045,-0.64185 -18.0773,3.51552 -14.391,11.83638 -30.0735,20.94185 -46.6048,27.03819 -6.1421,2.25928 -10.6936,7.48559 -12.1311,13.84673 l -10.8797,48.24971 a 3.2781954,3.2781954 0 0 0 0,0.061 c -0.1464,0.68517 -0.762,1.16777 -1.3941,1.16777 H 208.886 c -0.626,0 -1.2496,-0.46369 -1.418,-1.22756 l -10.8559,-48.21371 c -1.4374,-6.36114 -5.9889,-11.58745 -12.131,-13.84673 -16.5533,-6.09635 -32.2133,-15.20059 -46.6055,-27.03819 -3.496,-2.87978 -7.8461,-4.39715 -12.2616,-4.39715 -1.942,0 -3.9078,0.28065 -5.8273,0.90542 l -46.831801,14.78815 c -0.9347,0.28676 -1.6613,-0.004 -1.9902,-0.59792 a 3.2781954,3.2781954 0 0 0 0,-0.061 l -35.3322,-61.09584 c -0.4637,-0.83831 -0.2196,-1.91517 0.1892,-2.30016 l 36.0826,-33.16321 c 4.6931,-4.33553 6.9444,-10.71863 5.9938,-17.04011 -1.3868,-9.29277 -2.0738,-18.5221 -2.0738,-27.42012 0,-8.89742 0.687,-18.11515 2.0738,-27.40792 0.9506,-6.32331 -1.2983,-12.73082 -6.006,-17.05232 l -35.9521,-33.03203 c -0.6729,-0.64307 -0.7401,-1.72237 -0.4515,-2.24037 l 35.547,-61.46496 a 3.2781954,3.2781954 0 0 0 0,-0.061 c 0.1464,-0.26845 0.9835,-0.68883 1.823,-0.42709 l 46.939201,14.81256 c 6.183,1.95849 13.0048,0.64612 18.0651,-3.51553 14.3666,-11.83515 30.0467,-20.94184 46.5816,-27.03819 6.1196,-2.278807 10.6827,-7.484982 12.1195,-13.84734 v 0 l 10.8797,-48.238113 a 3.2781954,3.2781954 0 0 0 0,-0.06101 c 0.1465,-0.680897 0.7706,-1.167775 1.3942,-1.167775 z m 35.4871,110.775059 c -60.5937,0 -109.941,49.34732 -109.941,109.94102 0,60.59432 49.3473,109.94163 109.941,109.94163 60.5907,0 109.9417,-49.34731 109.9417,-109.94163 0,-60.59431 -49.351,-109.94102 -109.9417,-109.94102 z m 0,38.54998 c 39.395,0 71.3917,31.99726 71.3917,71.39104 0,39.39439 -31.9967,71.39165 -71.3917,71.39165 -39.3974,0 -71.391,-31.99665 -71.391,-71.39165 0,-39.39378 31.9936,-71.39104 71.391,-71.39104 z" />
    </g>
  </g>
</svg>
