<?xml version="1.0" encoding="UTF-8" standalone="no"?>
<svg
   width="210mm"
   height="210mm"
   viewBox="0 0 210.00001 210"
   version="1.1"
   id="svg2376"
   inkscape:version="1.1 (c68e22c387, 2021-05-23)"
   sodipodi:docname="Sms.svg"
   xmlns:inkscape="http://www.inkscape.org/namespaces/inkscape"
   xmlns:sodipodi="http://sodipodi.sourceforge.net/DTD/sodipodi-0.dtd"
   xmlns="http://www.w3.org/2000/svg"
   xmlns:svg="http://www.w3.org/2000/svg"
   xmlns:rdf="http://www.w3.org/1999/02/22-rdf-syntax-ns#"
   xmlns:cc="http://creativecommons.org/ns#"
   xmlns:dc="http://purl.org/dc/elements/1.1/">
  <defs
     id="defs2370" />
  <sodipodi:namedview
     id="base"
     pagecolor="#ffffff"
     bordercolor="#666666"
     borderopacity="1.0"
     inkscape:pageopacity="0.0"
     inkscape:pageshadow="2"
     inkscape:zoom="0.12374369"
     inkscape:cx="-3406.2343"
     inkscape:cy="-957.62459"
     inkscape:document-units="mm"
     inkscape:current-layer="layer1"
     inkscape:document-rotation="0"
     showgrid="false"
     fit-margin-top="0"
     fit-margin-left="0"
     fit-margin-right="0"
     fit-margin-bottom="0"
     inkscape:window-width="1366"
     inkscape:window-height="705"
     inkscape:window-x="-8"
     inkscape:window-y="-8"
     inkscape:window-maximized="1"
     inkscape:pagecheckerboard="0" />
  <metadata
     id="metadata2373">
    <rdf:RDF>
      <cc:Work
         rdf:about="">
        <dc:format>image/svg+xml</dc:format>
        <dc:type
           rdf:resource="http://purl.org/dc/dcmitype/StillImage" />
        <dc:title />
      </cc:Work>
    </rdf:RDF>
  </metadata>
  <g
     inkscape:label="Layer 1"
     inkscape:groupmode="layer"
     id="layer1"
     transform="translate(-1737.3928,-763.61756)">
    <g
       id="g3107"
       transform="matrix(0.94232732,0,0,0.94232741,100.20009,44.039803)">
      <path
         id="path2151"
         style="fill:#00467a;fill-opacity:1;stroke-width:0.433281"
         d="m 1757.3971,763.61756 c -11.0263,0 -20.0043,8.97451 -20.0043,20.00026 v 182.84799 c 0,11.02589 8.978,20.00423 20.0043,20.00423 h 104.8574 c 11.0261,0 20.0002,-8.97834 20.0002,-20.00423 v -36.09558 l 21.8948,-21.89075 h 36.0916 c 11.0255,0 20.0042,-8.97827 20.0042,-20.00426 v -51.99105 c 0,-11.02598 -8.9787,-20.00823 -20.0042,-20.00823 h -57.9864 v -32.85812 c 0,-11.02575 -8.9741,-20.00026 -20.0002,-20.00026 z m 104.8574,66.87135 h 77.9866 c 3.3088,0 5.9912,2.68603 5.9912,5.99526 v 51.99105 c 0,3.30901 -2.6824,5.99131 -5.9912,5.99131 h -38.9973 c -1.8577,0 -3.6348,0.74076 -4.9481,2.05436 l -14.041,14.03696 V 901.473 c 0,-3.86318 -3.1391,-7.00647 -7.0025,-7.00647 h -12.9977 c -3.3089,0 -5.9953,-2.68268 -5.9953,-5.99131 v -51.99105 c 0,-3.30884 2.6864,-5.99526 5.9953,-5.99526 z m -52.9503,104.75748 a 11.104042,11.104042 0 0 1 11.1072,11.10727 11.104042,11.104042 0 0 1 -11.1072,11.10325 11.104042,11.104042 0 0 1 -11.1033,-11.10325 11.104042,11.104042 0 0 1 11.1033,-11.10727 z"
         inkscape:export-xdpi="97"
         inkscape:export-ydpi="97" />
      <path
         style="fill:#00467a;fill-opacity:1;stroke-width:0.433283"
         d="m 1875.2514,868.47023 c -3.8634,0 -7.0089,3.14077 -7.0089,7.00432 0,3.86309 3.1455,7.00851 7.0089,7.00851 h 25.9937 c 3.8641,0 7.0089,-3.14542 7.0089,-7.00851 0,-3.86355 -3.1456,-7.00432 -7.0089,-7.00432 z"
         id="path2543"
         inkscape:export-xdpi="97"
         inkscape:export-ydpi="97" />
      <path
         style="fill:#00467a;fill-opacity:1;stroke-width:0.433283"
         d="m 1875.2514,842.47211 c -3.8634,0 -7.0089,3.14069 -7.0089,7.00425 0,3.86333 3.1455,7.00859 7.0089,7.00859 h 51.992 c 3.8633,0 7.0081,-3.14543 7.0081,-7.00859 0,-3.86356 -3.1448,-7.00425 -7.0081,-7.00425 z"
         id="path2541"
         inkscape:export-xdpi="97"
         inkscape:export-ydpi="97" />
    </g>
  </g>
</svg>
