<?xml version="1.0" encoding="UTF-8" standalone="no"?>
<svg
   width="210mm"
   height="210mm"
   viewBox="0 0 210.00001 210.00001"
   version="1.1"
   id="svg1491"
   inkscape:version="1.1 (c68e22c387, 2021-05-23)"
   sodipodi:docname="Sms_line.svg"
   xmlns:inkscape="http://www.inkscape.org/namespaces/inkscape"
   xmlns:sodipodi="http://sodipodi.sourceforge.net/DTD/sodipodi-0.dtd"
   xmlns="http://www.w3.org/2000/svg"
   xmlns:svg="http://www.w3.org/2000/svg"
   xmlns:rdf="http://www.w3.org/1999/02/22-rdf-syntax-ns#"
   xmlns:cc="http://creativecommons.org/ns#"
   xmlns:dc="http://purl.org/dc/elements/1.1/">
  <defs
     id="defs1485" />
  <sodipodi:namedview
     id="base"
     pagecolor="#ffffff"
     bordercolor="#666666"
     borderopacity="1.0"
     inkscape:pageopacity="0.0"
     inkscape:pageshadow="2"
     inkscape:zoom="0.24748737"
     inkscape:cx="-1097.0257"
     inkscape:cy="127.27922"
     inkscape:document-units="mm"
     inkscape:current-layer="layer1"
     inkscape:document-rotation="0"
     showgrid="false"
     fit-margin-top="0"
     fit-margin-left="0"
     fit-margin-right="0"
     fit-margin-bottom="0"
     inkscape:window-width="1366"
     inkscape:window-height="705"
     inkscape:window-x="-8"
     inkscape:window-y="-8"
     inkscape:window-maximized="1"
     inkscape:pagecheckerboard="0" />
  <metadata
     id="metadata1488">
    <rdf:RDF>
      <cc:Work
         rdf:about="">
        <dc:format>image/svg+xml</dc:format>
        <dc:type
           rdf:resource="http://purl.org/dc/dcmitype/StillImage" />
        <dc:title />
      </cc:Work>
    </rdf:RDF>
  </metadata>
  <g
     inkscape:label="Layer 1"
     inkscape:groupmode="layer"
     id="layer1"
     transform="translate(-842.17394,-397.46112)">
    <g
       id="g2291"
       transform="matrix(2.1030091,0,0,2.1030091,-928.92547,-438.40319)">
      <g
         id="g4201"
         transform="matrix(0.19414738,0,0,0.19414738,850.98104,397.68757)"
         style="fill:#00467a;fill-opacity:1"
         inkscape:export-xdpi="97"
         inkscape:export-ydpi="97">
        <g
           id="g4126"
           style="fill:#00467a;fill-opacity:1">
          <g
             id="g4124"
             style="fill:#00467a;fill-opacity:1">
            <path
               id="path4122"
               style="fill:#00467a;fill-opacity:1;stroke-width:0.202009"
               d="m -3408.4648,2006.5762 c -5.1405,0 -9.3262,4.1856 -9.3262,9.3261 v 85.2481 c 0,5.1406 4.1857,9.3262 9.3262,9.3262 h 48.8867 c 5.1406,0 9.3261,-4.1856 9.3261,-9.3262 v -16.8281 l 10.2071,-10.2071 h 16.8281 c 5.1405,0 9.3262,-4.1855 9.3262,-9.3261 v -24.2403 c 0,-5.1406 -4.1857,-9.3281 -9.3262,-9.3281 h -27.0352 v -15.3184 c 0,-5.1405 -4.1855,-9.3261 -9.3261,-9.3261 z m 0,6.5332 h 48.8867 c 1.5429,0 2.7929,1.2501 2.7929,2.7929 v 2.795 6.5332 5.9902 h -2.7929 c -5.1405,0 -9.3262,4.1875 -9.3262,9.3281 v 24.2403 c 0,5.1406 4.1858,9.3261 9.3262,9.3261 h 2.7929 v 11.6485 6.5332 8.8535 c 0,1.543 -1.2501,2.7949 -2.7929,2.7949 h -48.8867 c -1.5426,0 -2.793,-1.2519 -2.793,-2.7949 v -8.8535 -6.5332 -60.5332 -6.5332 -2.795 c 0,-1.5428 1.2503,-2.7929 2.793,-2.7929 z m 48.8867,24.6445 h 36.3613 c 1.5426,0 2.793,1.2521 2.793,2.7949 v 24.2403 c 0,1.5428 -1.2503,2.7929 -2.793,2.7929 h -18.1816 c -0.8663,0 -1.6962,0.3465 -2.3086,0.959 l -6.545,6.543 v -4.2344 c 0,-1.8011 -1.4644,-3.2676 -3.2656,-3.2676 h -6.0605 c -1.5427,0 -2.7949,-1.2503 -2.7949,-2.7929 v -24.2403 c 0,-1.5426 1.2524,-2.7949 2.7949,-2.7949 z m 6.0605,5.5879 c -1.801,0 -3.2676,1.4643 -3.2676,3.2656 0,1.8012 1.4664,3.2676 3.2676,3.2676 h 24.2403 c 1.8013,0 3.2675,-1.4665 3.2675,-3.2676 0,-1.8013 -1.4664,-3.2656 -3.2675,-3.2656 z m 0,12.1211 c -1.801,0 -3.2676,1.4643 -3.2676,3.2656 0,1.8011 1.4664,3.2676 3.2676,3.2676 h 12.1192 c 1.8013,0 3.2675,-1.4665 3.2675,-3.2676 0,-1.8013 -1.4664,-3.2656 -3.2675,-3.2656 z"
               transform="matrix(4.9502758,0,0,4.9502758,16873.645,-9934.2721)" />
          </g>
        </g>
        <g
           id="g4132"
           style="fill:#00467a;fill-opacity:1">
          <g
             id="g4130"
             style="fill:#00467a;fill-opacity:1" />
        </g>
        <g
           id="g4138"
           style="fill:#00467a;fill-opacity:1">
          <g
             id="g4136"
             style="fill:#00467a;fill-opacity:1" />
        </g>
        <g
           id="g4140"
           style="fill:#00467a;fill-opacity:1" />
        <g
           id="g4142"
           style="fill:#00467a;fill-opacity:1" />
        <g
           id="g4144"
           style="fill:#00467a;fill-opacity:1" />
        <g
           id="g4146"
           style="fill:#00467a;fill-opacity:1" />
        <g
           id="g4148"
           style="fill:#00467a;fill-opacity:1" />
        <g
           id="g4150"
           style="fill:#00467a;fill-opacity:1" />
        <g
           id="g4152"
           style="fill:#00467a;fill-opacity:1" />
        <g
           id="g4154"
           style="fill:#00467a;fill-opacity:1" />
        <g
           id="g4156"
           style="fill:#00467a;fill-opacity:1" />
        <g
           id="g4158"
           style="fill:#00467a;fill-opacity:1" />
        <g
           id="g4160"
           style="fill:#00467a;fill-opacity:1" />
        <g
           id="g4162"
           style="fill:#00467a;fill-opacity:1" />
        <g
           id="g4164"
           style="fill:#00467a;fill-opacity:1" />
        <g
           id="g4166"
           style="fill:#00467a;fill-opacity:1" />
        <g
           id="g4168"
           style="fill:#00467a;fill-opacity:1" />
      </g>
      <circle
         style="fill:#00467a;fill-opacity:1;fill-rule:evenodd;stroke:none;stroke-width:1.76537;stroke-linecap:round;stroke-linejoin:round;stroke-miterlimit:4;stroke-dasharray:none;stroke-opacity:1"
         id="path4214"
         cx="874.39655"
         cy="479.34293"
         r="4.9755573"
         inkscape:export-xdpi="97"
         inkscape:export-ydpi="97" />
    </g>
  </g>
</svg>
