<?xml version="1.0" encoding="UTF-8" standalone="no"?>
<svg
   xmlns:dc="http://purl.org/dc/elements/1.1/"
   xmlns:cc="http://creativecommons.org/ns#"
   xmlns:rdf="http://www.w3.org/1999/02/22-rdf-syntax-ns#"
   xmlns:svg="http://www.w3.org/2000/svg"
   xmlns="http://www.w3.org/2000/svg"
   xmlns:sodipodi="http://sodipodi.sourceforge.net/DTD/sodipodi-0.dtd"
   xmlns:inkscape="http://www.inkscape.org/namespaces/inkscape"
   width="203.89502mm"
   height="83.908859mm"
   viewBox="0 0 203.89505 83.908857"
   version="1.1"
   id="svg1374"
   sodipodi:docname="spitfire.svg"
   inkscape:version="1.0.2-2 (e86c870879, 2021-01-15)">
  <sodipodi:namedview
     pagecolor="#ffffff"
     bordercolor="#666666"
     borderopacity="1"
     objecttolerance="10"
     gridtolerance="10"
     guidetolerance="10"
     inkscape:pageopacity="0"
     inkscape:pageshadow="2"
     inkscape:window-width="1920"
     inkscape:window-height="1017"
     id="namedview62"
     showgrid="false"
     inkscape:zoom="1.352146"
     inkscape:cx="639.49739"
     inkscape:cy="260.25716"
     inkscape:window-x="-8"
     inkscape:window-y="-8"
     inkscape:window-maximized="1"
     inkscape:current-layer="svg1374" />
  <defs
     id="defs1368" />
  <metadata
     id="metadata1371">
    <rdf:RDF>
      <cc:Work
         rdf:about="">
        <dc:format>image/svg+xml</dc:format>
        <dc:type
           rdf:resource="http://purl.org/dc/dcmitype/StillImage" />
        <dc:title />
      </cc:Work>
    </rdf:RDF>
  </metadata>
  <g
     id="layer1"
     transform="matrix(0.94784742,0,0,0.9486957,-183.68408,-239.07532)">
    <g
       id="g2687">
      <path
         d="m 214.49555,320.46405 c 10.51927,0 15.62111,-6.02557 15.62111,-13.07548 0,-15.48571 -21.40672,-10.12297 -21.40672,-17.89594 0,-2.65126 1.94607,-4.82046 6.99532,-4.82046 3.26098,0 6.78493,1.08461 10.2037,3.31407 l 2.62981,-7.41145 c -3.41875,-2.47049 -8.15244,-3.73585 -12.7809,-3.73585 -10.46668,0 -15.51594,5.9653 -15.51594,13.13573 0,15.66649 21.40673,10.24347 21.40673,18.13696 0,2.591 -2.05127,4.51919 -7.10052,4.51919 -4.41809,0 -9.04657,-1.80767 -12.14976,-4.39868 l -2.8928,7.35119 c 3.26098,2.89228 9.15177,4.88072 14.98997,4.88072 z"
         style="font-style:normal;font-variant:normal;font-weight:bold;font-stretch:normal;font-size:33.5473px;line-height:1.25;font-family:Montserrat;-inkscape-font-specification:'Montserrat Bold';letter-spacing:-0.529167px;fill:#595a5a;fill-opacity:1;stroke-width:1.4074"
         id="path2185" />
      <path
         d="m 251.30763,286.84137 c -3.78693,0 -6.83751,1.38588 -8.88878,4.21791 v -3.73585 H 234.582 v 50.49404 l 8.20503,-6.3869 v -15.12416 c 2.10384,2.65124 4.99666,3.91663 8.5206,3.91663 7.94207,0 14.09583,-6.50763 14.09583,-16.69084 0,-10.1832 -6.15376,-16.69083 -14.09583,-16.69083 z m -1.42008,25.66893 c -4.10252,0 -7.2057,-3.37432 -7.2057,-8.9781 0,-5.60378 3.10318,-8.97808 7.2057,-8.97808 4.10251,0 7.2057,3.3743 7.2057,8.97808 0,5.60378 -3.10319,8.9781 -7.2057,8.9781 z"
         style="font-style:normal;font-variant:normal;font-weight:bold;font-stretch:normal;font-size:33.5473px;line-height:1.25;font-family:Montserrat;-inkscape-font-specification:'Montserrat Bold';letter-spacing:-0.529167px;fill:#595a5a;fill-opacity:1;stroke-width:1.4074"
         id="path2187" />
      <path
         d="m 270.01508,319.74099 h 8.20505 v -32.41756 h -8.20505 z"
         style="font-style:normal;font-variant:normal;font-weight:bold;font-stretch:normal;font-size:33.5473px;line-height:1.25;font-family:Montserrat;-inkscape-font-specification:'Montserrat Bold';letter-spacing:-0.529167px;fill:#595a5a;fill-opacity:1;stroke-width:1.4074"
         id="path2189" />
      <path
         d="m 301.04732,311.54619 c -0.89413,0.78334 -2.10385,1.20513 -3.31357,1.20513 -2.20903,0 -3.52396,-1.50638 -3.52396,-4.27816 v -13.196 h 7.04793 v -7.23065 h -7.04793 v -9.54368 l -8.20501,3.47403 v 6.06965 h -4.36551 v 7.23065 h 4.36551 v 13.31652 c 0,7.71273 3.89213,11.62936 10.57184,11.62936 2.52463,0 4.99668,-0.66282 6.67975,-2.0487 z"
         style="font-style:normal;font-variant:normal;font-weight:bold;font-stretch:normal;font-size:33.5473px;line-height:1.25;font-family:Montserrat;-inkscape-font-specification:'Montserrat Bold';letter-spacing:-0.529167px;fill:#595a5a;fill-opacity:1;stroke-width:1.4074"
         id="path2191" />
      <path
         d="M 335.486,285.39525 V 277.562 h -27.82347 v 42.17899 h 8.52063 v -15.36521 h 17.04121 v -7.83323 h -17.04121 v -11.1473 z"
         style="font-style:normal;font-variant:normal;font-weight:bold;font-stretch:normal;font-size:33.5473px;line-height:1.25;font-family:Montserrat;-inkscape-font-specification:'Montserrat Bold';letter-spacing:-0.529167px;fill:#595a5a;fill-opacity:1;stroke-width:1.4074"
         id="path2193" />
      <path
         d="m 343.43504,282.80424 c 3.05059,0 5.10184,-2.28969 5.10184,-5.423 0,-2.89227 -2.05125,-5.06149 -5.10184,-5.06149 -3.0506,0 -5.10186,2.28973 -5.10186,5.24225 0,2.95255 2.05126,5.24224 5.10186,5.24224 z m -4.10253,36.93675 h 8.20504 v -32.41756 h -8.20504 z"
         style="font-style:normal;font-variant:normal;font-weight:bold;font-stretch:normal;font-size:33.5473px;line-height:1.25;font-family:Montserrat;-inkscape-font-specification:'Montserrat Bold';letter-spacing:-0.529167px;fill:#595a5a;fill-opacity:1;stroke-width:1.4074"
         id="path2195" />
      <path
         d="m 362.15973,291.60159 v -4.27816 h -7.83684 v 32.41756 h 8.20503 v -15.30496 c 0,-6.20633 2.99799,-9.03835 7.52127,-9.03835 0.63117,0 1.15712,0.0602 1.84086,0.12049 v -8.67681 c -4.36549,0 -7.73165,1.6269 -9.73032,4.76021 z"
         style="font-style:normal;font-variant:normal;font-weight:bold;font-stretch:normal;font-size:33.5473px;line-height:1.25;font-family:Montserrat;-inkscape-font-specification:'Montserrat Bold';letter-spacing:-0.529167px;fill:#595a5a;fill-opacity:1;stroke-width:1.4074"
         id="path2197" />
      <path
         d="m 403.4006,303.65272 c 0,-10.42422 -6.41676,-16.81135 -14.72697,-16.81135 -8.62582,0 -15.09517,6.98967 -15.09517,16.69083 0,9.64092 6.36415,16.69084 16.14709,16.69084 5.10184,0 9.04658,-1.80767 11.67639,-5.24225 l -4.36549,-5.42302 c -1.94607,2.10894 -4.10252,3.13329 -7.10052,3.13329 -4.3129,0 -7.31088,-2.47049 -8.09983,-6.50762 h 21.40672 c 0.0525,-0.78331 0.15774,-1.80766 0.15774,-2.53072 z m -14.67438,-9.70118 c 3.68173,0 6.36416,2.65126 6.94272,6.74864 H 381.7309 c 0.57856,-4.15763 3.26096,-6.74864 6.99532,-6.74864 z"
         style="font-style:normal;font-variant:normal;font-weight:bold;font-stretch:normal;font-size:33.5473px;line-height:1.25;font-family:Montserrat;-inkscape-font-specification:'Montserrat Bold';letter-spacing:-0.529167px;fill:#595a5a;fill-opacity:1;stroke-width:1.4074"
         id="path2199" />
      <path
         style="fill:#16c1f3;fill-opacity:1;stroke:none;stroke-width:0.443998px;stroke-linecap:butt;stroke-linejoin:miter;stroke-opacity:1"
         d="m 273.88914,283.15639 c 0,0 17.716,-26.68611 57.85734,-24.21934 -30.52619,-12.34096 -50.51976,1.20947 -57.85734,24.21934 z"
         id="path2210" />
      <path
         d="m 278.60272,331.84424 q 0.65061,0.21313 1.03198,0.7179 0.38138,0.49355 0.38138,1.23387 0,1.02077 -0.7852,1.58163 -0.7852,0.54962 -2.28829,0.54962 h -3.90354 v -7.85196 h 3.6792 q 1.39093,0 2.14247,0.54963 0.75155,0.53844 0.75155,1.49188 0,0.58329 -0.26922,1.03198 -0.26921,0.44867 -0.74033,0.69545 z m -4.10544,-2.62479 v 2.16489 h 2.06393 q 0.76277,0 1.16658,-0.26921 0.41503,-0.28042 0.41503,-0.80762 0,-0.53843 -0.41503,-0.80764 -0.40381,-0.28042 -1.16658,-0.28042 z m 2.35559,5.56367 q 1.69377,0 1.69377,-1.13292 0,-1.13293 -1.69377,-1.13293 h -2.35559 v 2.26585 z"
         style="font-weight:600;font-size:6.10215px;line-height:1.25;font-family:Montserrat;-inkscape-font-specification:'Montserrat, Semi-Bold';fill:#595a5a;fill-opacity:1;stroke-width:0.280428"
         id="path1457" />
      <path
         d="m 287.05727,329.93735 -2.80428,6.47226 q -0.39261,0.97588 -0.95345,1.36849 -0.56086,0.40382 -1.35727,0.40382 -0.44869,0 -0.88615,-0.14578 -0.43747,-0.14577 -0.7179,-0.40382 l 0.56086,-1.03197 q 0.20191,0.19069 0.47112,0.30286 0.28042,0.11213 0.56084,0.11213 0.37018,0 0.60573,-0.19067 0.24678,-0.1907 0.4487,-0.63939 l 0.10091,-0.23555 -2.61358,-6.01236 h 1.45821 l 1.88449,4.43073 1.89568,-4.43073 z"
         style="font-weight:600;font-size:6.10215px;line-height:1.25;font-family:Montserrat;-inkscape-font-specification:'Montserrat, Semi-Bold';fill:#595a5a;fill-opacity:1;stroke-width:0.280428"
         id="path1459" />
      <path
         d="m 288.44801,331.73208 q -0.38137,0 -0.6506,-0.258 -0.2692,-0.26921 -0.2692,-0.67303 0,-0.41503 0.25799,-0.67302 0.26921,-0.258 0.66181,-0.258 0.39259,0 0.65059,0.258 0.2692,0.25799 0.2692,0.67302 0,0.40382 -0.2692,0.67303 -0.26921,0.258 -0.65059,0.258 z m 0,4.27371 q -0.38137,0 -0.6506,-0.25799 -0.2692,-0.26921 -0.2692,-0.67303 0,-0.41503 0.25799,-0.67303 0.26921,-0.25799 0.66181,-0.25799 0.39259,0 0.65059,0.25799 0.2692,0.258 0.2692,0.67303 0,0.40382 -0.2692,0.67303 -0.26921,0.25799 -0.65059,0.25799 z"
         style="font-weight:600;font-size:6.10215px;line-height:1.25;font-family:Montserrat;-inkscape-font-specification:'Montserrat, Semi-Bold';fill:#595a5a;fill-opacity:1;stroke-width:0.280428"
         id="path1461" />
      <path
         d="m 294.54047,336.03943 q -1.20023,0 -2.16489,-0.51597 -0.96468,-0.52722 -1.51431,-1.44701 -0.54965,-0.93102 -0.54965,-2.07517 0,-1.14414 0.54965,-2.06393 0.54963,-0.93102 1.51431,-1.44701 0.96466,-0.5272 2.16489,-0.5272 1.20023,0 2.16491,0.5272 0.96466,0.51599 1.5143,1.43578 0.54963,0.91981 0.54963,2.07516 0,1.15536 -0.54963,2.07517 -0.54964,0.91979 -1.5143,1.44701 -0.96468,0.51597 -2.16491,0.51597 z m 0,-1.27874 q 0.78519,0 1.41335,-0.34773 0.62817,-0.35895 0.98711,-0.98711 0.35895,-0.63937 0.35895,-1.42457 0,-0.78519 -0.35895,-1.41335 -0.35894,-0.63937 -0.98711,-0.98711 -0.62816,-0.35894 -1.41335,-0.35894 -0.7852,0 -1.41336,0.35894 -0.62815,0.34774 -0.9871,0.98711 -0.35895,0.62816 -0.35895,1.41335 0,0.7852 0.35895,1.42457 0.35895,0.62816 0.9871,0.98711 0.62816,0.34773 1.41336,0.34773 z"
         style="font-weight:600;font-size:6.10215px;line-height:1.25;font-family:Montserrat;-inkscape-font-specification:'Montserrat, Semi-Bold';fill:#595a5a;fill-opacity:1;stroke-width:0.280428"
         id="path1463" />
      <path
         d="m 303.54552,328.0753 q 1.02077,0 1.77231,0.33651 0.76277,0.33652 1.16657,0.96468 0.40382,0.62816 0.40382,1.49186 0,0.85251 -0.40382,1.49188 -0.4038,0.62816 -1.16657,0.96466 -0.75154,0.33653 -1.77231,0.33653 h -1.7723 v 2.26584 H 300.315 v -7.85196 z m -0.0673,4.35223 q 0.95344,0 1.44701,-0.4038 0.49354,-0.40382 0.49354,-1.15538 0,-0.75154 -0.49354,-1.15536 -0.49357,-0.40382 -1.44701,-0.40382 h -1.70501 v 3.11836 z"
         style="font-weight:600;font-size:6.10215px;line-height:1.25;font-family:Montserrat;-inkscape-font-specification:'Montserrat, Semi-Bold';fill:#595a5a;fill-opacity:1;stroke-width:0.280428"
         id="path1465" />
      <path
         d="m 312.09926,336.03943 q -1.18901,0 -2.15368,-0.51597 -0.95344,-0.52722 -1.50309,-1.44701 -0.53841,-0.91981 -0.53841,-2.07517 0,-1.15535 0.54962,-2.07516 0.54965,-0.91979 1.5031,-1.43578 0.96468,-0.5272 2.15368,-0.5272 0.96468,0 1.76109,0.3365 0.7964,0.33652 1.34605,0.97589 l -0.94223,0.88615 q -0.8525,-0.9198 -2.0976,-0.9198 -0.80764,0 -1.44701,0.35894 -0.63937,0.34774 -0.99832,0.9759 -0.35895,0.62815 -0.35895,1.42456 0,0.79641 0.35895,1.42457 0.35895,0.62816 0.99832,0.98711 0.63937,0.34773 1.44701,0.34773 1.2451,0 2.0976,-0.93102 l 0.94223,0.89736 q -0.54965,0.63939 -1.35727,0.9759 -0.79641,0.3365 -1.76109,0.3365 z"
         style="font-weight:600;font-size:6.10215px;line-height:1.25;font-family:Montserrat;-inkscape-font-specification:'Montserrat, Semi-Bold';fill:#595a5a;fill-opacity:1;stroke-width:0.280428"
         id="path1467" />
      <path
         d="m 326.91654,335.92726 -0.011,-5.20472 -2.57993,4.30736 h -0.6506 l -2.57992,-4.24006 v 5.13742 h -1.39093 v -7.85196 h 1.20023 l 3.11836,5.20474 3.06227,-5.20474 h 1.20023 l 0.011,7.85196 z"
         style="font-weight:600;font-size:6.10215px;line-height:1.25;font-family:Montserrat;-inkscape-font-specification:'Montserrat, Semi-Bold';fill:#595a5a;fill-opacity:1;stroke-width:0.280428"
         id="path1469" />
      <path
         d="m 332.57083,329.87003 q 1.32361,0 2.01907,0.63937 0.70668,0.62818 0.70668,1.90692 v 3.51094 h -1.32363 v -0.72911 q -0.25799,0.39261 -0.74032,0.60573 -0.47112,0.20191 -1.14415,0.20191 -0.67303,0 -1.17778,-0.22433 -0.50478,-0.23557 -0.7852,-0.63939 -0.26923,-0.41504 -0.26923,-0.93102 0,-0.80763 0.59452,-1.28996 0.60571,-0.49356 1.89569,-0.49356 h 1.54796 v -0.0897 q 0,-0.62816 -0.38137,-0.96468 -0.37019,-0.33651 -1.11051,-0.33651 -0.50476,0 -0.99832,0.15698 -0.48233,0.15699 -0.81885,0.43746 l -0.54963,-1.02076 q 0.47112,-0.35893 1.13293,-0.54963 0.6618,-0.19069 1.40214,-0.19069 z m -0.1907,5.115 q 0.52721,0 0.93103,-0.23555 0.41503,-0.24678 0.58328,-0.69547 v -0.69546 h -1.44701 q -1.21144,0 -1.21144,0.79641 0,0.3814 0.30286,0.60573 0.30287,0.22434 0.84128,0.22434 z"
         style="font-weight:600;font-size:6.10215px;line-height:1.25;font-family:Montserrat;-inkscape-font-specification:'Montserrat, Semi-Bold';fill:#595a5a;fill-opacity:1;stroke-width:0.280428"
         id="path1471" />
      <path
         d="m 338.43088,330.81227 q 0.60573,-0.94224 2.13125,-0.94224 v 1.33484 q -0.17941,-0.0336 -0.32529,-0.0336 -0.81886,0 -1.27876,0.48233 -0.45991,0.47111 -0.45991,1.3685 v 2.90521 h -1.40212 v -5.98991 h 1.33483 z"
         style="font-weight:600;font-size:6.10215px;line-height:1.25;font-family:Montserrat;-inkscape-font-specification:'Montserrat, Semi-Bold';fill:#595a5a;fill-opacity:1;stroke-width:0.280428"
         id="path1473" />
      <path
         d="m 344.18596,333.35855 -1.04319,0.98711 v 1.5816 h -1.40214 v -8.32307 h 1.40214 v 5.02525 l 2.90522,-2.69209 h 1.68257 l -2.50141,2.51263 2.73696,3.47728 h -1.705 z"
         style="font-weight:600;font-size:6.10215px;line-height:1.25;font-family:Montserrat;-inkscape-font-specification:'Montserrat, Semi-Bold';fill:#595a5a;fill-opacity:1;stroke-width:0.280428"
         id="path1475" />
      <path
         d="m 354.27276,332.96596 q 0,0.14577 -0.0224,0.41504 h -4.69996 q 0.12334,0.66179 0.63937,1.0544 0.5272,0.38138 1.30118,0.38138 0.98711,0 1.62648,-0.65059 l 0.75154,0.86371 q -0.40381,0.48233 -1.02075,0.72911 -0.61694,0.24678 -1.39093,0.24678 -0.9871,0 -1.73864,-0.3926 -0.75156,-0.39259 -1.16659,-1.08807 -0.4038,-0.70666 -0.4038,-1.59281 0,-0.87494 0.39259,-1.5704 0.40382,-0.70668 1.11048,-1.09927 0.70669,-0.39261 1.59284,-0.39261 0.87494,0 1.55918,0.39261 0.69545,0.38138 1.07685,1.08806 0.39259,0.69545 0.39259,1.61526 z m -3.02862,-1.97421 q -0.67303,0 -1.14415,0.4038 -0.4599,0.39261 -0.56085,1.05443 h 3.39877 q -0.0897,-0.65061 -0.54962,-1.05443 -0.45991,-0.4038 -1.14415,-0.4038 z"
         style="font-weight:600;font-size:6.10215px;line-height:1.25;font-family:Montserrat;-inkscape-font-specification:'Montserrat, Semi-Bold';fill:#595a5a;fill-opacity:1;stroke-width:0.280428"
         id="path1477" />
      <path
         d="m 359.20934,335.60197 q -0.24679,0.20191 -0.60574,0.30287 -0.34773,0.10092 -0.74032,0.10092 -0.98711,0 -1.52552,-0.51599 -0.53843,-0.51599 -0.53843,-1.5031 v -2.88279 h -0.98711 v -1.12172 h 0.98711 v -1.36848 h 1.40213 v 1.36848 h 1.60405 v 1.12172 h -1.60405 v 2.84915 q 0,0.43746 0.21313,0.67301 0.21312,0.22436 0.61694,0.22436 0.47112,0 0.7852,-0.24678 z"
         style="font-weight:600;font-size:6.10215px;line-height:1.25;font-family:Montserrat;-inkscape-font-specification:'Montserrat, Semi-Bold';fill:#595a5a;fill-opacity:1;stroke-width:0.280428"
         id="path1479" />
      <path
         d="m 360.36276,329.93735 h 1.40214 v 5.98991 h -1.40214 z m 0.70669,-0.98711 q -0.38139,0 -0.63939,-0.23557 -0.25797,-0.24678 -0.25797,-0.60573 0,-0.35893 0.25797,-0.5945 0.258,-0.24678 0.63939,-0.24678 0.38138,0 0.63937,0.23557 0.25799,0.22434 0.25799,0.57207 0,0.37017 -0.25799,0.62816 -0.24678,0.24678 -0.63937,0.24678 z"
         style="font-weight:600;font-size:6.10215px;line-height:1.25;font-family:Montserrat;-inkscape-font-specification:'Montserrat, Semi-Bold';fill:#595a5a;fill-opacity:1;stroke-width:0.280428"
         id="path1481" />
      <path
         d="m 367.00398,329.87003 q 1.13293,0 1.81717,0.66182 0.68424,0.66181 0.68424,1.963 v 3.43241 h -1.40214 v -3.25295 q 0,-0.78519 -0.37016,-1.1778 -0.37016,-0.4038 -1.0544,-0.4038 -0.77398,0 -1.22266,0.47111 -0.44869,0.45991 -0.44869,1.33483 v 3.02861 h -1.40214 v -5.98991 h 1.33484 v 0.77396 q 0.34774,-0.41503 0.87494,-0.62815 0.5272,-0.21313 1.189,-0.21313 z"
         style="font-weight:600;font-size:6.10215px;line-height:1.25;font-family:Montserrat;-inkscape-font-specification:'Montserrat, Semi-Bold';fill:#595a5a;fill-opacity:1;stroke-width:0.280428"
         id="path1483" />
      <path
         d="m 377.30585,329.93735 v 5.08134 q 0,3.16323 -3.23053,3.16323 -0.86372,0 -1.63769,-0.22436 -0.77398,-0.21312 -1.27876,-0.62816 l 0.62816,-1.0544 q 0.39261,0.32529 0.98711,0.51599 0.60573,0.20191 1.22265,0.20191 0.98711,0 1.44701,-0.44869 0.45991,-0.44867 0.45991,-1.36848 v -0.31408 q -0.35895,0.39259 -0.87494,0.5945 -0.51599,0.20191 -1.13291,0.20191 -0.85252,0 -1.54797,-0.35895 -0.68424,-0.37017 -1.08806,-1.03196 -0.39261,-0.66182 -0.39261,-1.51433 0,-0.85249 0.39261,-1.50307 0.40382,-0.66182 1.08806,-1.02077 0.69545,-0.35895 1.54797,-0.35895 0.65058,0 1.17778,0.21313 0.53842,0.21312 0.89737,0.6506 v -0.79641 z m -3.19687,4.53169 q 0.79641,0 1.30118,-0.47112 0.51597,-0.48233 0.51597,-1.2451 0,-0.75154 -0.51597,-1.22265 -0.50477,-0.47112 -1.30118,-0.47112 -0.80764,0 -1.32363,0.47112 -0.50476,0.47111 -0.50476,1.22265 0,0.76277 0.50476,1.2451 0.51599,0.47112 1.32363,0.47112 z"
         style="font-weight:600;font-size:6.10215px;line-height:1.25;font-family:Montserrat;-inkscape-font-specification:'Montserrat, Semi-Bold';fill:#595a5a;fill-opacity:1;stroke-width:0.280428"
         id="path1485" />
    </g>
  </g>
</svg>
