<?xml version="1.0" encoding="UTF-8" standalone="no"?>
<svg
   xmlns:dc="http://purl.org/dc/elements/1.1/"
   xmlns:cc="http://creativecommons.org/ns#"
   xmlns:rdf="http://www.w3.org/1999/02/22-rdf-syntax-ns#"
   xmlns:svg="http://www.w3.org/2000/svg"
   xmlns="http://www.w3.org/2000/svg"
   xmlns:sodipodi="http://sodipodi.sourceforge.net/DTD/sodipodi-0.dtd"
   xmlns:inkscape="http://www.inkscape.org/namespaces/inkscape"
   width="186mm"
   height="186mm"
   viewBox="0 0 186 186.00001"
   version="1.1"
   id="svg1491"
   inkscape:version="1.0.2-2 (e86c870879, 2021-01-15)"
   sodipodi:docname="Upload.svg">
  <defs
     id="defs1485" />
  <sodipodi:namedview
     id="base"
     pagecolor="#ffffff"
     bordercolor="#666666"
     borderopacity="1.0"
     inkscape:pageopacity="0.0"
     inkscape:pageshadow="2"
     inkscape:zoom="0.24748737"
     inkscape:cx="-691.00425"
     inkscape:cy="537.72956"
     inkscape:document-units="mm"
     inkscape:current-layer="g2299"
     inkscape:document-rotation="0"
     showgrid="false"
     fit-margin-top="0"
     fit-margin-left="0"
     fit-margin-right="0"
     fit-margin-bottom="0"
     inkscape:window-width="1920"
     inkscape:window-height="1017"
     inkscape:window-x="-8"
     inkscape:window-y="-8"
     inkscape:window-maximized="1"
     showguides="false" />
  <metadata
     id="metadata1488">
    <rdf:RDF>
      <cc:Work
         rdf:about="">
        <dc:format>image/svg+xml</dc:format>
        <dc:type
           rdf:resource="http://purl.org/dc/dcmitype/StillImage" />
        <dc:title />
      </cc:Work>
    </rdf:RDF>
  </metadata>
  <g
     inkscape:label="Layer 1"
     inkscape:groupmode="layer"
     id="layer1"
     transform="translate(-1234.6741,-375.09968)">
    <g
       id="g2299"
       transform="matrix(1.3042211,0,0,1.3042211,-375.61385,-114.11322)">
      <g
         id="g4253"
         style="fill:#00467a;fill-opacity:1"
         transform="matrix(0.20078371,0,0,0.20078371,1254.5748,395.00026)"
         inkscape:export-xdpi="97"
         inkscape:export-ydpi="97">
        <g
           id="g4251"
           style="fill:#00467a;fill-opacity:1">
          <g
             id="g4249"
             style="fill:#00467a;fill-opacity:1">
            <path
               d="M 426.635,188.224 C 402.969,93.946 307.358,36.704 213.08,60.37 139.404,78.865 85.907,142.542 80.395,218.303 28.082,226.93 -7.333,276.331 1.294,328.644 c 7.669,46.507 47.967,80.566 95.101,80.379 h 80 v -32 h -80 c -35.346,0 -64,-28.654 -64,-64 0,-35.346 28.654,-64 64,-64 8.837,0 16,-7.163 16,-16 -0.08,-79.529 64.327,-144.065 143.856,-144.144 68.844,-0.069 128.107,48.601 141.424,116.144 1.315,6.744 6.788,11.896 13.6,12.8 43.742,6.229 74.151,46.738 67.923,90.479 -5.593,39.278 -39.129,68.523 -78.803,68.721 h -64 v 32 h 64 c 61.856,-0.187 111.848,-50.483 111.66,-112.339 -0.156,-51.49 -35.4,-96.241 -85.42,-108.46 z"
               id="path4245"
               style="fill:#00467a;fill-opacity:1" />
            <path
               d="m 245.035,253.664 -64,64 22.56,22.56 36.8,-36.64 v 153.44 h 32 v -153.44 l 36.64,36.64 22.56,-22.56 -64,-64 c -6.241,-6.204 -16.319,-6.204 -22.56,0 z"
               id="path4247"
               style="fill:#00467a;fill-opacity:1" />
          </g>
        </g>
      </g>
    </g>
  </g>
</svg>
