<?xml version="1.0" encoding="UTF-8" standalone="no"?>
<svg
   width="210mm"
   height="210mm"
   viewBox="0 0 210 210"
   version="1.1"
   id="svg4513"
   inkscape:version="1.1 (c68e22c387, 2021-05-23)"
   sodipodi:docname="User_line.svg"
   xmlns:inkscape="http://www.inkscape.org/namespaces/inkscape"
   xmlns:sodipodi="http://sodipodi.sourceforge.net/DTD/sodipodi-0.dtd"
   xmlns="http://www.w3.org/2000/svg"
   xmlns:svg="http://www.w3.org/2000/svg"
   xmlns:rdf="http://www.w3.org/1999/02/22-rdf-syntax-ns#"
   xmlns:cc="http://creativecommons.org/ns#"
   xmlns:dc="http://purl.org/dc/elements/1.1/">
  <defs
     id="defs4507" />
  <sodipodi:namedview
     id="base"
     pagecolor="#ffffff"
     bordercolor="#666666"
     borderopacity="1.0"
     inkscape:pageopacity="0.0"
     inkscape:pageshadow="2"
     inkscape:zoom="0.35"
     inkscape:cx="1498.5714"
     inkscape:cy="261.42857"
     inkscape:document-units="mm"
     inkscape:current-layer="layer1"
     inkscape:document-rotation="0"
     showgrid="false"
     inkscape:window-width="1366"
     inkscape:window-height="705"
     inkscape:window-x="-8"
     inkscape:window-y="-8"
     inkscape:window-maximized="1"
     inkscape:pagecheckerboard="0" />
  <metadata
     id="metadata4510">
    <rdf:RDF>
      <cc:Work
         rdf:about="">
        <dc:format>image/svg+xml</dc:format>
        <dc:type
           rdf:resource="http://purl.org/dc/dcmitype/StillImage" />
        <dc:title />
      </cc:Work>
    </rdf:RDF>
  </metadata>
  <g
     inkscape:label="Layer 1"
     inkscape:groupmode="layer"
     id="layer1"
     transform="translate(115.62154,34.237701)">
    <path
       id="path877"
       style="color:#000000;font-style:normal;font-variant:normal;font-weight:normal;font-stretch:normal;font-size:medium;line-height:normal;font-family:sans-serif;font-variant-ligatures:normal;font-variant-position:normal;font-variant-caps:normal;font-variant-numeric:normal;font-variant-alternates:normal;font-variant-east-asian:normal;font-feature-settings:normal;font-variation-settings:normal;text-indent:0;text-align:start;text-decoration:none;text-decoration-line:none;text-decoration-style:solid;text-decoration-color:#000000;letter-spacing:normal;word-spacing:normal;text-transform:none;writing-mode:lr-tb;direction:ltr;text-orientation:mixed;dominant-baseline:auto;baseline-shift:baseline;text-anchor:start;white-space:normal;shape-padding:0;shape-margin:0;inline-size:0;clip-rule:nonzero;display:inline;overflow:visible;visibility:visible;isolation:auto;mix-blend-mode:normal;color-interpolation:sRGB;color-interpolation-filters:linearRGB;solid-color:#000000;solid-opacity:1;vector-effect:none;fill:#00467a;fill-opacity:1;fill-rule:nonzero;stroke:none;stroke-width:3.40157;stroke-linecap:round;stroke-linejoin:round;stroke-miterlimit:4;stroke-dasharray:none;stroke-dashoffset:0;stroke-opacity:1;color-rendering:auto;image-rendering:auto;shape-rendering:auto;text-rendering:auto;enable-background:accumulate;stop-color:#000000"
       sodipodi:type="inkscape:offset"
       inkscape:radius="1.9354483"
       inkscape:original="M 2690.8086 -1451.0801 C 2594.442 -1451.0801 2515.7324 -1372.3705 2515.7324 -1276.0039 C 2515.7324 -1179.6369 2594.4416 -1100.9277 2690.8086 -1100.9277 C 2787.1755 -1100.9277 2865.8789 -1179.6369 2865.8789 -1276.0039 C 2865.8789 -1372.3705 2787.1752 -1451.0801 2690.8086 -1451.0801 z M 2690.8086 -1396.2773 C 2757.5577 -1396.2773 2811.0762 -1342.753 2811.0762 -1276.0039 C 2811.0762 -1209.2543 2757.5573 -1155.7305 2690.8086 -1155.7305 C 2624.0598 -1155.7305 2570.5371 -1209.2543 2570.5371 -1276.0039 C 2570.5371 -1342.753 2624.0595 -1396.2773 2690.8086 -1396.2773 z M 2690.7988 -1079.2773 C 2654.011 -1079.2773 2617.1782 -1076.4394 2580.6602 -1070.6094 A 27.404315 27.404315 0 0 0 2580.3809 -1070.5664 L 2573.168 -1069.334 C 2461.4318 -1051.5088 2378.5957 -954.44092 2378.5957 -841.28516 C 2378.5957 -772.63877 2435.086 -716.14648 2503.7344 -716.14648 L 2877.8633 -716.14648 C 2946.511 -716.14648 3003 -772.63741 3003 -841.28516 C 3003 -954.44164 2920.1575 -1051.5001 2808.4277 -1069.334 L 2801.2168 -1070.5664 A 27.404315 27.404315 0 0 0 2800.9355 -1070.6094 C 2764.4164 -1076.4405 2727.5906 -1079.2773 2690.8047 -1079.2773 L 2690.7988 -1079.2773 z M 2690.8027 -1024.4746 L 2690.7988 -1024.4727 L 2690.8086 -1024.4727 C 2724.7559 -1024.4727 2758.6639 -1021.8577 2792.2285 -1016.502 L 2799.5078 -1015.2617 A 27.404315 27.404315 0 0 0 2799.7949 -1015.2168 C 2885.1754 -1001.5886 2948.2012 -927.74332 2948.2012 -841.28516 C 2948.2012 -802.70083 2916.4515 -770.94922 2877.8672 -770.94922 L 2503.7383 -770.94922 C 2465.1546 -770.94922 2433.4023 -802.70329 2433.4023 -841.28516 C 2433.4023 -927.744 2496.4269 -1001.5959 2581.8086 -1015.2168 A 27.404315 27.404315 0 0 0 2582.0957 -1015.2617 L 2589.3086 -1016.4941 L 2589.375 -1016.5039 C 2622.9405 -1021.8588 2656.8545 -1024.4746 2690.8027 -1024.4746 z "
       transform="matrix(0.33424838,0,0,0.28424293,-910.01636,378.77171)"
       d="m 2690.8086,-1453.0156 c -97.4205,0 -177.0117,79.5912 -177.0117,177.0117 0,97.4209 79.5908,177.0117 177.0117,177.0117 97.4208,0 177.0059,-79.5909 177.0059,-177.0117 0,-97.4204 -79.5854,-177.0117 -177.0059,-177.0117 z m 0,58.6738 c 65.7144,0 118.332,52.6233 118.332,118.3379 0,65.7151 -52.618,118.3379 -118.332,118.3379 -65.7142,0 -118.3359,-52.6229 -118.3359,-118.3379 0,-65.7145 52.6214,-118.3379 118.3359,-118.3379 z m -0.01,313.1289 c -36.8873,0 -73.8218,2.8449 -110.4433,8.6914 -0.093,0.014 -0.1862,0.028 -0.2793,0.043 a 1.9356418,1.9356418 0 0 0 -0.021,0 l -7.2129,1.2324 c -112.6577,17.9831 -196.1816,115.86406 -196.1816,229.95704 0,69.7082 57.364,127.07422 127.0742,127.07422 h 374.1289 c 69.7095,0 127.0722,-57.3647 127.0722,-127.07422 0,-114.09905 -83.5382,-211.97374 -196.1972,-229.95894 l -7.1953,-1.2305 a 1.9356418,1.9356418 0 0 0 -0.024,-0 c -0.1003,-0.016 -0.2003,-0.03 -0.3007,-0.045 -36.6157,-5.8454 -73.5359,-8.6895 -110.4141,-8.6895 z m -0,58.6738 c 6e-4,7e-4 0.01,0 0.012,0 33.8479,0 67.6541,2.6081 101.1152,7.9473 l 7.2598,1.2363 a 1.9356418,1.9356418 0 0 0 0.016,0 c 0.097,0.016 0.1937,0.032 0.291,0.047 84.4523,13.48005 146.7754,86.50198 146.7754,172.01954 0,37.52259 -30.8759,68.40039 -68.3984,68.40039 h -374.1289 c -37.5218,0 -68.4004,-30.88041 -68.4004,-68.40039 0,-85.51827 62.3221,-158.54674 146.7754,-172.01954 0.097,-0.015 0.1938,-0.031 0.291,-0.047 a 1.9356418,1.9356418 0 0 0 0.018,-0 l 7.1914,-1.2285 0.045,-0.01 a 1.9356418,1.9356418 0 0 0 0.022,-0 c 33.4601,-5.3381 67.2704,-7.947 101.1172,-7.9473 z" />
  </g>
</svg>
